<?xml version="1.0" encoding="UTF-8"?>
<svg id="Layer_1" data-name="Layer 1" xmlns="http://www.w3.org/2000/svg" viewBox="0 0 73.85 21.08">
  <defs>
    <style>
      .cls-1 {
        fill-rule: evenodd;
      }

      .cls-1, .cls-2 {
        fill: none;
        stroke: #000;
        stroke-miterlimit: 10;
        stroke-width: .1px;
      }
    </style>
  </defs>
  <rect class="cls-2" x="73.12" y="10.9" width=".68" height=".68"/>
  <rect class="cls-2" x=".05" y="10.89" width=".68" height=".68"/>
  <polygon class="cls-1" points=".73 8.18 .73 8.86 .05 8.86 .05 9.53 .73 9.53 .73 10.21 1.4 10.21 1.4 10.89 2.08 10.89 2.08 10.21 2.76 10.21 2.76 9.53 3.43 9.53 3.43 8.86 2.76 8.86 2.76 8.18 2.08 8.18 2.08 8.86 1.4 8.86 1.4 8.18 1.07 8.18 .73 8.18"/>
  <polygon class="cls-1" points="71.09 8.18 71.09 8.86 70.41 8.86 70.41 9.53 71.09 9.53 71.09 10.21 71.76 10.21 71.76 10.89 72.44 10.89 72.44 10.21 73.12 10.21 73.12 9.53 73.79 9.53 73.79 8.86 73.12 8.86 73.12 8.18 72.44 8.18 72.44 8.86 71.76 8.86 71.76 8.18 71.42 8.18 71.09 8.18"/>
  <polygon class="cls-1" points="62.97 6.22 62.97 10.17 64.32 10.17 64.32 6.22 63.64 6.22 62.97 6.22"/>
  <polygon class="cls-1" points="67.02 5.47 66.34 5.47 66.34 4.11 65.68 4.11 65.68 3.46 65 3.46 65 2.78 63.64 2.78 63.64 2.09 60.94 2.09 60.94 2.78 59.58 2.78 59.58 3.46 58.9 3.46 58.9 4.11 58.22 4.11 58.22 5.47 57.54 5.47 57.54 7.45 58.9 7.45 58.9 6.15 60.26 6.15 60.26 4.79 64.32 4.79 64.32 6.15 65.68 6.15 65.68 10.13 67.02 10.13 67.02 5.47"/>
  <polygon class="cls-1" points="54.84 5.47 54.16 5.47 54.16 4.8 52.82 4.8 52.82 6.15 48.79 6.15 48.79 7.51 51.46 7.51 51.46 8.85 48.79 8.85 48.79 10.21 52.82 10.21 52.82 11.53 54.84 11.53 54.84 5.47"/>
  <polygon class="cls-1" points="22.39 6.15 23.73 6.15 23.73 4.79 27.79 4.79 27.79 6.15 29.15 6.15 29.15 10.2 30.51 10.2 30.51 5.47 29.83 5.47 29.83 4.11 29.15 4.11 29.15 3.46 28.47 3.46 28.47 2.78 27.11 2.78 27.11 2.09 24.41 2.09 24.41 2.78 23.05 2.78 23.05 3.46 22.39 3.46 22.39 4.11 21.71 4.11 21.71 5.47 21.03 5.47 21.03 10.2 22.39 10.2 22.39 6.15"/>
  <polygon class="cls-1" points="27.79 6.17 26.45 6.17 26.45 4.81 25.09 4.81 25.09 6.17 23.73 6.17 23.73 10.2 25.09 10.2 25.09 7.51 26.45 7.51 26.45 10.2 27.79 10.2 27.79 6.17"/>
  <polygon class="cls-1" points="37.92 7.51 36.61 7.51 36.61 10.21 40.62 10.21 40.62 11.55 42.66 11.55 42.66 5.47 41.98 5.47 41.98 4.11 41.3 4.11 41.3 3.46 40.62 3.46 40.62 2.78 39.29 2.78 39.29 2.09 36.59 2.09 36.59 2.78 35.25 2.78 35.25 3.46 34.57 3.46 34.57 4.11 33.89 4.11 33.89 4.77 37.92 4.77 37.92 7.51"/>
  <polygon class="cls-1" points="12.91 19.69 13.59 19.69 13.59 19.01 14.25 19.01 14.25 15.63 13.59 15.63 13.59 14.95 16.97 14.95 16.97 15.63 17.65 15.63 17.65 16.29 18.33 16.29 18.33 16.97 17.65 16.97 17.65 17.65 18.99 17.65 18.99 16.97 20.35 16.97 20.35 17.65 21.71 17.65 21.71 16.97 21.03 16.97 21.03 16.29 21.71 16.29 21.71 15.63 22.39 15.63 22.39 14.95 23.05 14.95 23.05 13.59 23.73 13.59 23.73 21.03 25.09 21.03 25.09 13.59 26.45 13.59 26.45 19.69 27.79 19.69 27.79 13.59 28.47 13.59 28.47 14.95 29.15 14.95 29.15 15.63 29.83 15.63 29.83 16.29 30.51 16.29 30.51 16.97 29.83 16.97 29.83 17.65 31.19 17.65 31.19 16.97 32.53 16.97 32.53 17.65 33.89 17.65 33.89 16.97 33.21 16.97 33.21 16.29 33.89 16.29 33.89 15.63 34.57 15.63 34.57 14.95 35.25 14.95 35.25 13.59 35.91 13.59 35.91 21.03 37.25 21.03 37.25 13.59 38.61 13.59 38.61 19.69 39.97 19.69 39.97 13.59 40.63 13.59 40.63 14.95 41.31 14.95 41.31 15.63 41.99 15.63 41.99 16.29 42.67 16.29 42.67 16.97 41.99 16.97 41.99 17.65 43.35 17.65 43.35 16.97 44.69 16.97 44.69 17.65 46.05 17.65 46.05 16.97 45.37 16.97 45.37 16.29 46.05 16.29 46.05 15.63 46.73 15.63 46.73 14.95 47.41 14.95 47.41 13.59 48.09 13.59 48.09 21.03 49.42 21.03 49.42 13.59 50.79 13.59 50.79 19.69 52.15 19.69 52.15 13.59 52.83 13.59 52.83 14.95 53.48 14.95 53.48 15.63 54.16 15.63 54.16 16.29 54.84 16.29 54.84 16.97 54.16 16.97 54.16 17.65 55.52 17.65 55.52 16.97 56.89 16.97 56.89 17.65 58.22 17.65 58.22 16.97 57.54 16.97 57.54 16.29 58.22 16.29 58.22 15.63 58.9 15.63 58.9 14.95 59.58 14.95 59.58 13.59 60.26 13.59 60.26 21.03 61.62 21.03 61.62 13.59 62.96 13.59 62.96 19.69 64.32 19.69 64.32 13.59 65 13.59 65 14.95 65.68 14.95 65.68 15.63 66.34 15.63 66.34 16.29 67.02 16.29 67.02 16.97 69.06 16.97 69.06 16.29 69.74 16.29 69.74 14.95 70.4 14.95 70.4 13.59 71.08 13.59 71.08 12.91 71.76 12.91 71.76 12.23 73.1 12.23 73.1 11.57 70.4 11.57 70.4 12.23 69.74 12.23 69.74 13.59 69.06 13.59 69.06 14.95 68.38 14.95 68.38 15.63 67.02 15.63 67.02 14.95 66.34 14.95 66.34 13.59 67.7 13.59 67.7 12.23 67.02 12.23 67.02 10.21 64.32 10.21 64.32 11.57 60.26 11.57 60.26 10.21 61.62 10.21 61.62 6.2 60.26 6.2 60.26 7.51 57.54 7.51 57.54 12.23 56.89 12.23 56.89 13.59 58.22 13.59 58.22 14.95 57.54 14.95 57.54 15.63 56.89 15.63 56.89 16.29 55.52 16.29 55.52 15.63 54.84 15.63 54.84 14.95 54.16 14.95 54.16 13.59 55.52 13.59 55.52 12.23 54.84 12.23 54.84 11.57 48.77 11.57 48.77 10.21 47.41 10.21 47.41 6.15 48.77 6.15 48.77 4.79 54.16 4.79 54.16 4.11 53.48 4.11 53.48 3.45 52.83 3.45 52.83 2.77 51.47 2.77 51.47 2.09 48.77 2.09 48.77 2.77 47.41 2.77 47.41 3.45 46.73 3.45 46.73 4.11 46.05 4.11 46.05 5.47 45.37 5.47 45.37 12.23 44.69 12.23 44.69 13.59 46.05 13.59 46.05 14.95 45.37 14.95 45.37 15.63 44.69 15.63 44.69 16.29 43.35 16.29 43.35 15.63 42.67 15.63 42.67 14.95 41.99 14.95 41.99 13.59 43.35 13.59 43.35 12.23 42.67 12.23 42.67 11.57 36.59 11.57 36.59 10.21 35.25 10.21 35.25 7.51 36.59 7.51 36.59 4.79 33.89 4.79 33.89 5.47 33.21 5.47 33.21 12.23 32.53 12.23 32.53 13.59 33.89 13.59 33.89 14.95 33.21 14.95 33.21 15.63 32.53 15.63 32.53 16.29 31.19 16.29 31.19 15.63 30.51 15.63 30.51 14.95 29.83 14.95 29.83 13.59 31.19 13.59 31.19 12.23 30.51 12.23 30.51 10.21 27.79 10.21 27.79 11.57 26.45 11.57 26.45 10.21 25.09 10.21 25.09 11.57 23.73 11.57 23.73 10.21 21.03 10.21 21.03 12.23 20.35 12.23 20.35 13.59 21.71 13.59 21.71 14.95 21.03 14.95 21.03 15.63 20.35 15.63 20.35 16.29 18.99 16.29 18.99 15.63 18.33 15.63 18.33 6.15 13.59 6.15 13.59 8.85 12.23 8.85 12.23 10.21 10.87 10.21 10.87 11.57 6.13 11.57 6.13 14.95 6.81 14.95 6.81 15.63 5.48 15.63 5.48 14.95 4.8 14.95 4.8 13.59 4.12 13.59 4.12 12.23 3.44 12.23 3.44 11.57 .76 11.57 .76 12.23 2.07 12.23 2.07 12.91 2.76 12.91 2.76 13.59 3.44 13.59 3.44 14.95 4.12 14.95 4.12 16.29 4.8 16.29 4.8 16.97 6.81 16.97 6.81 16.29 7.49 16.29 7.49 15.63 8.17 15.63 8.17 14.95 10.87 14.95 10.87 15.63 10.19 15.63 10.19 19.01 10.87 19.01 10.87 19.69 11.55 19.69 11.55 21.03 12.91 21.03 12.91 19.69"/>
  <polygon class="cls-1" points="7.49 .05 7.49 .73 6.81 .73 6.81 1.41 6.13 1.41 6.13 11.54 8.17 11.54 8.17 10.21 10.86 10.21 10.86 7.51 12.23 7.51 12.23 6.15 13.58 6.15 13.58 4.79 16.29 4.79 16.29 6.12 18.33 6.12 18.33 1.41 17.65 1.41 17.65 .73 16.97 .73 16.97 3.45 16.29 3.45 16.29 1.41 15.61 1.41 15.61 2.77 13.59 2.77 13.59 1.41 12.91 1.41 12.91 2.77 10.87 2.77 10.87 1.41 10.19 1.41 10.19 3.45 9.54 3.45 9.54 1.41 8.86 1.41 8.86 3.45 8.17 3.45 8.17 .05 7.49 .05"/>
  <polygon class="cls-1" points="12.23 .73 14.25 .73 14.25 2.09 14.93 2.09 14.93 .73 16.93 .73 16.93 .05 8.18 .05 8.18 .73 11.55 .73 11.55 2.09 12.23 2.09 12.23 .73"/>
</svg>