  0
SECTION
  2
HEADER
  9
$ACADVER
  1
AC1014
  9
$HANDSEED
  5
FFFF
  9
$MEASUREMENT
 70
     1
  0
ENDSEC
  0
SECTION
  2
TABLES
  0
TABLE
  2
VPORT
  5
8
330
0
100
AcDbSymbolTable
 70
     4
  0
VPORT
  5
2E
330
8
100
AcDbSymbolTableRecord
100
AcDbViewportTableRecord
  2
*ACTIVE
 70
     0
 10
0.0
 20
0.0
 11
1.0
 21
1.0
 12
210.0
 22
148.5
 13
0.0
 23
0.0
 14
10.0
 24
10.0
 15
10.0
 25
10.0
 16
0.0
 26
0.0
 36
1.0
 17
0.0
 27
0.0
 37
0.0
 40
341.0
 41
1.24
 42
50.0
 43
0.0
 44
0.0
 50
0.0
 51
0.0
 71
     0
 72
   100
 73
     1
 74
     3
 75
     0
 76
     0
 77
     0
 78
     0
  0
ENDTAB
  0
TABLE
  2
LTYPE
  5
5
330
0
100
AcDbSymbolTable
 70
     1
  0
LTYPE
  5
14
330
5
100
AcDbSymbolTableRecord
100
AcDbLinetypeTableRecord
  2
BYBLOCK
 70
     0
  3

 72
    65
 73
     0
 40
0.0
  0
LTYPE
  5
15
330
5
100
AcDbSymbolTableRecord
100
AcDbLinetypeTableRecord
  2
BYLAYER
 70
     0
  3

 72
    65
 73
     0
 40
0.0
  0
LTYPE
  5
16
330
5
100
AcDbSymbolTableRecord
100
AcDbLinetypeTableRecord
  2
CONTINUOUS
 70
     0
  3
Solid line
 72
    65
 73
     0
 40
0.0
  0
ENDTAB
  0
TABLE
  2
LAYER
  5
2
100
AcDbSymbolTable
 70
2
  0
LAYER
  5
50
100
AcDbSymbolTableRecord
100
AcDbLayerTableRecord
  2
0
 70
0
  6
CONTINUOUS
  0
LAYER
  5
51
100
AcDbSymbolTableRecord
100
AcDbLayerTableRecord
  2
Layer_1
 70
0
  6
CONTINUOUS
  0
ENDTAB
  0
TABLE
  2
STYLE
  5
3
330
0
100
AcDbSymbolTable
 70
     1
  0
STYLE
  5
11
330
3
100
AcDbSymbolTableRecord
100
AcDbTextStyleTableRecord
  2
STANDARD
 70
     0
 40
0.0
 41
1.0
 50
0.0
 71
     0
 42
2.5
  3
txt
  4

  0
ENDTAB
  0
TABLE
  2
VIEW
  5
6
330
0
100
AcDbSymbolTable
 70
     0
  0
ENDTAB
  0
TABLE
  2
UCS
  5
7
330
0
100
AcDbSymbolTable
 70
     0
  0
ENDTAB
  0
TABLE
  2
APPID
  5
9
330
0
100
AcDbSymbolTable
 70
     2
  0
APPID
  5
12
330
9
100
AcDbSymbolTableRecord
100
AcDbRegAppTableRecord
  2
ACAD
 70
     0
  0
ENDTAB
  0
TABLE
  2
DIMSTYLE
  5
A
330
0
100
AcDbSymbolTable
 70
     1
  0
DIMSTYLE
105
27
330
A
100
AcDbSymbolTableRecord
100
AcDbDimStyleTableRecord
  2
ISO-25
 70
     0
  3

  4

  5

  6

  7

 40
1.0
 41
2.5
 42
0.625
 43
3.75
 44
1.25
 45
0.0
 46
0.0
 47
0.0
 48
0.0
140
2.5
141
2.5
142
0.0
143
0.03937007874016
144
1.0
145
0.0
146
1.0
147
0.625
 71
     0
 72
     0
 73
     0
 74
     0
 75
     0
 76
     0
 77
     1
 78
     8
170
     0
171
     3
172
     1
173
     0
174
     0
175
     0
176
     0
177
     0
178
     0
270
     2
271
     2
272
     2
273
     2
274
     3
340
11
275
     0
280
     0
281
     0
282
     0
283
     0
284
     8
285
     0
286
     0
287
     3
288
     0
  0
ENDTAB
  0
TABLE
  2
BLOCK_RECORD
  5
1
330
0
100
AcDbSymbolTable
 70
     1
  0
BLOCK_RECORD
  5
1F
330
1
100
AcDbSymbolTableRecord
100
AcDbBlockTableRecord
  2
*MODEL_SPACE
  0
BLOCK_RECORD
  5
1B
330
1
100
AcDbSymbolTableRecord
100
AcDbBlockTableRecord
  2
*PAPER_SPACE
  0
ENDTAB
  0
ENDSEC
  0
SECTION
  2
BLOCKS
  0
BLOCK
  5
20
330
1F
100
AcDbEntity
  8
0
100
AcDbBlockBegin
  2
*MODEL_SPACE
 70
     0
 10
0.0
 20
0.0
 30
0.0
  3
*MODEL_SPACE
  1

  0
ENDBLK
  5
21
330
1F
100
AcDbEntity
  8
0
100
AcDbBlockEnd
  0
BLOCK
  5
1C
330
1B
100
AcDbEntity
 67
     1
  8
0
100
AcDbBlockBegin
  2
*PAPER_SPACE
  1

  0
ENDBLK
  5
1D
330
1B
100
AcDbEntity
 67
     1
  8
0
100
AcDbBlockEnd
  0
ENDSEC
  0
SECTION
  2
ENTITIES
  0
LWPOLYLINE
  5
100
100
AcDbEntity
  8
Layer_1
 62
7
100
AcDbPolyline
 90
4
 70
1
 10
108.078780
 20
171.742430
 30
0.0
 10
108.258700
 20
171.742430
 30
0.0
 10
108.258700
 20
171.562510
 30
0.0
 10
108.078780
 20
171.562510
 30
0.0
  0
LWPOLYLINE
  5
101
100
AcDbEntity
  8
Layer_1
 62
7
100
AcDbPolyline
 90
4
 70
1
 10
88.745674
 20
171.745080
 30
0.0
 10
88.925591
 20
171.745080
 30
0.0
 10
88.925591
 20
171.565160
 30
0.0
 10
88.745674
 20
171.565160
 30
0.0
  0
LWPOLYLINE
  5
102
100
AcDbEntity
  8
Layer_1
 62
7
100
AcDbPolyline
 90
21
 70
1
 10
88.925590
 20
172.104911
 30
0.0
 10
88.925590
 20
171.924994
 30
0.0
 10
89.102861
 20
171.924994
 30
0.0
 10
89.102861
 20
171.745078
 30
0.0
 10
89.282777
 20
171.745078
 30
0.0
 10
89.282777
 20
171.924994
 30
0.0
 10
89.462694
 20
171.924994
 30
0.0
 10
89.462694
 20
172.104911
 30
0.0
 10
89.639965
 20
172.104911
 30
0.0
 10
89.639965
 20
172.282182
 30
0.0
 10
89.462694
 20
172.282182
 30
0.0
 10
89.462694
 20
172.462098
 30
0.0
 10
89.282777
 20
172.462098
 30
0.0
 10
89.282777
 20
172.282182
 30
0.0
 10
89.102861
 20
172.282182
 30
0.0
 10
89.102861
 20
172.462098
 30
0.0
 10
89.015548
 20
172.462098
 30
0.0
 10
88.925590
 20
172.462098
 30
0.0
 10
88.925590
 20
172.282182
 30
0.0
 10
88.745673
 20
172.282182
 30
0.0
 10
88.745673
 20
172.104911
 30
0.0
  0
LWPOLYLINE
  5
103
100
AcDbEntity
  8
Layer_1
 62
7
100
AcDbPolyline
 90
21
 70
1
 10
107.541673
 20
172.104911
 30
0.0
 10
107.541673
 20
171.924994
 30
0.0
 10
107.718944
 20
171.924994
 30
0.0
 10
107.718944
 20
171.745078
 30
0.0
 10
107.898860
 20
171.745078
 30
0.0
 10
107.898860
 20
171.924994
 30
0.0
 10
108.078777
 20
171.924994
 30
0.0
 10
108.078777
 20
172.104911
 30
0.0
 10
108.256048
 20
172.104911
 30
0.0
 10
108.256048
 20
172.282182
 30
0.0
 10
108.078777
 20
172.282182
 30
0.0
 10
108.078777
 20
172.462098
 30
0.0
 10
107.898860
 20
172.462098
 30
0.0
 10
107.898860
 20
172.282182
 30
0.0
 10
107.718944
 20
172.282182
 30
0.0
 10
107.718944
 20
172.462098
 30
0.0
 10
107.628985
 20
172.462098
 30
0.0
 10
107.541673
 20
172.462098
 30
0.0
 10
107.541673
 20
172.282182
 30
0.0
 10
107.361756
 20
172.282182
 30
0.0
 10
107.361756
 20
172.104911
 30
0.0
  0
LWPOLYLINE
  5
104
100
AcDbEntity
  8
Layer_1
 62
7
100
AcDbPolyline
 90
5
 70
1
 10
105.570527
 20
172.980682
 30
0.0
 10
105.393256
 20
172.980682
 30
0.0
 10
105.393256
 20
171.935578
 30
0.0
 10
105.750444
 20
171.935578
 30
0.0
 10
105.750444
 20
172.980682
 30
0.0
  0
LWPOLYLINE
  5
105
100
AcDbEntity
  8
Layer_1
 62
7
100
AcDbPolyline
 90
28
 70
1
 10
106.110277
 20
173.710932
 30
0.0
 10
105.930360
 20
173.710932
 30
0.0
 10
105.930360
 20
173.890848
 30
0.0
 10
105.570527
 20
173.890848
 30
0.0
 10
105.570527
 20
174.073411
 30
0.0
 10
104.856152
 20
174.073411
 30
0.0
 10
104.856152
 20
173.890848
 30
0.0
 10
104.496319
 20
173.890848
 30
0.0
 10
104.496319
 20
173.710932
 30
0.0
 10
104.316402
 20
173.710932
 30
0.0
 10
104.316402
 20
173.538953
 30
0.0
 10
104.136485
 20
173.538953
 30
0.0
 10
104.136485
 20
173.179119
 30
0.0
 10
103.956569
 20
173.179119
 30
0.0
 10
103.956569
 20
172.655244
 30
0.0
 10
104.316402
 20
172.655244
 30
0.0
 10
104.316402
 20
172.999203
 30
0.0
 10
104.676235
 20
172.999203
 30
0.0
 10
104.676235
 20
173.359036
 30
0.0
 10
105.750444
 20
173.359036
 30
0.0
 10
105.750444
 20
172.999203
 30
0.0
 10
106.110277
 20
172.999203
 30
0.0
 10
106.110277
 20
171.946161
 30
0.0
 10
106.464819
 20
171.946161
 30
0.0
 10
106.464819
 20
173.179119
 30
0.0
 10
106.284902
 20
173.179119
 30
0.0
 10
106.284902
 20
173.538953
 30
0.0
 10
106.110277
 20
173.538953
 30
0.0
  0
LWPOLYLINE
  5
106
100
AcDbEntity
  8
Layer_1
 62
7
100
AcDbPolyline
 90
14
 70
1
 10
102.707735
 20
172.999203
 30
0.0
 10
101.641465
 20
172.999203
 30
0.0
 10
101.641465
 20
172.639369
 30
0.0
 10
102.347902
 20
172.639369
 30
0.0
 10
102.347902
 20
172.284828
 30
0.0
 10
101.641465
 20
172.284828
 30
0.0
 10
101.641465
 20
171.924994
 30
0.0
 10
102.707735
 20
171.924994
 30
0.0
 10
102.707735
 20
171.575744
 30
0.0
 10
103.242194
 20
171.575744
 30
0.0
 10
103.242194
 20
173.179119
 30
0.0
 10
103.062277
 20
173.179119
 30
0.0
 10
103.062277
 20
173.356390
 30
0.0
 10
102.707735
 20
173.356390
 30
0.0
  0
LWPOLYLINE
  5
107
100
AcDbEntity
  8
Layer_1
 62
7
100
AcDbPolyline
 90
28
 70
1
 10
96.085215
 20
172.999203
 30
0.0
 10
96.445048
 20
172.999203
 30
0.0
 10
96.445048
 20
171.927640
 30
0.0
 10
96.804881
 20
171.927640
 30
0.0
 10
96.804881
 20
173.179119
 30
0.0
 10
96.624965
 20
173.179119
 30
0.0
 10
96.624965
 20
173.538953
 30
0.0
 10
96.445048
 20
173.538953
 30
0.0
 10
96.445048
 20
173.710932
 30
0.0
 10
96.265131
 20
173.710932
 30
0.0
 10
96.265131
 20
173.890848
 30
0.0
 10
95.905298
 20
173.890848
 30
0.0
 10
95.905298
 20
174.073411
 30
0.0
 10
95.190923
 20
174.073411
 30
0.0
 10
95.190923
 20
173.890848
 30
0.0
 10
94.831090
 20
173.890848
 30
0.0
 10
94.831090
 20
173.710932
 30
0.0
 10
94.656465
 20
173.710932
 30
0.0
 10
94.656465
 20
173.538953
 30
0.0
 10
94.476548
 20
173.538953
 30
0.0
 10
94.476548
 20
173.179119
 30
0.0
 10
94.296631
 20
173.179119
 30
0.0
 10
94.296631
 20
171.927640
 30
0.0
 10
94.656465
 20
171.927640
 30
0.0
 10
94.656465
 20
172.999203
 30
0.0
 10
95.011006
 20
172.999203
 30
0.0
 10
95.011006
 20
173.359036
 30
0.0
 10
96.085215
 20
173.359036
 30
0.0
  0
LWPOLYLINE
  5
108
100
AcDbEntity
  8
Layer_1
 62
7
100
AcDbPolyline
 90
12
 70
1
 10
95.370840
 20
172.993911
 30
0.0
 10
95.011006
 20
172.993911
 30
0.0
 10
95.011006
 20
171.927640
 30
0.0
 10
95.370840
 20
171.927640
 30
0.0
 10
95.370840
 20
172.639369
 30
0.0
 10
95.730673
 20
172.639369
 30
0.0
 10
95.730673
 20
171.927640
 30
0.0
 10
96.085215
 20
171.927640
 30
0.0
 10
96.085215
 20
172.993911
 30
0.0
 10
95.730673
 20
172.993911
 30
0.0
 10
95.730673
 20
173.353744
 30
0.0
 10
95.370840
 20
173.353744
 30
0.0
  0
LWPOLYLINE
  5
109
100
AcDbEntity
  8
Layer_1
 62
7
100
AcDbPolyline
 90
24
 70
1
 10
99.479819
 20
171.570453
 30
0.0
 10
100.019569
 20
171.570453
 30
0.0
 10
100.019569
 20
173.179119
 30
0.0
 10
99.839652
 20
173.179119
 30
0.0
 10
99.839652
 20
173.538953
 30
0.0
 10
99.659736
 20
173.538953
 30
0.0
 10
99.659736
 20
173.710932
 30
0.0
 10
99.479819
 20
173.710932
 30
0.0
 10
99.479819
 20
173.890848
 30
0.0
 10
99.127923
 20
173.890848
 30
0.0
 10
99.127923
 20
174.073411
 30
0.0
 10
98.413548
 20
174.073411
 30
0.0
 10
98.413548
 20
173.890848
 30
0.0
 10
98.059006
 20
173.890848
 30
0.0
 10
98.059006
 20
173.710932
 30
0.0
 10
97.879090
 20
173.710932
 30
0.0
 10
97.879090
 20
173.538953
 30
0.0
 10
97.699173
 20
173.538953
 30
0.0
 10
97.699173
 20
173.364328
 30
0.0
 10
98.765444
 20
173.364328
 30
0.0
 10
98.765444
 20
172.639369
 30
0.0
 10
98.418840
 20
172.639369
 30
0.0
 10
98.418840
 20
171.924994
 30
0.0
 10
99.479819
 20
171.924994
 30
0.0
  0
LWPOLYLINE
  5
10a
100
AcDbEntity
  8
Layer_1
 62
7
100
AcDbPolyline
 90
334
 70
1
 10
92.502756
 20
170.490953
 30
0.0
 10
92.328131
 20
170.490953
 30
0.0
 10
92.328131
 20
170.670869
 30
0.0
 10
93.222423
 20
170.670869
 30
0.0
 10
93.222423
 20
170.490953
 30
0.0
 10
93.402340
 20
170.490953
 30
0.0
 10
93.402340
 20
170.316328
 30
0.0
 10
93.582256
 20
170.316328
 30
0.0
 10
93.582256
 20
170.136411
 30
0.0
 10
93.402340
 20
170.136411
 30
0.0
 10
93.402340
 20
169.956494
 30
0.0
 10
93.756881
 20
169.956494
 30
0.0
 10
93.756881
 20
170.136411
 30
0.0
 10
94.116715
 20
170.136411
 30
0.0
 10
94.116715
 20
169.956494
 30
0.0
 10
94.476548
 20
169.956494
 30
0.0
 10
94.476548
 20
170.136411
 30
0.0
 10
94.296631
 20
170.136411
 30
0.0
 10
94.296631
 20
170.316328
 30
0.0
 10
94.476548
 20
170.316328
 30
0.0
 10
94.476548
 20
170.490953
 30
0.0
 10
94.656465
 20
170.490953
 30
0.0
 10
94.656465
 20
170.670869
 30
0.0
 10
94.831090
 20
170.670869
 30
0.0
 10
94.831090
 20
171.030703
 30
0.0
 10
95.011006
 20
171.030703
 30
0.0
 10
95.011006
 20
169.062203
 30
0.0
 10
95.370840
 20
169.062203
 30
0.0
 10
95.370840
 20
171.030703
 30
0.0
 10
95.730673
 20
171.030703
 30
0.0
 10
95.730673
 20
169.416744
 30
0.0
 10
96.085215
 20
169.416744
 30
0.0
 10
96.085215
 20
171.030703
 30
0.0
 10
96.265131
 20
171.030703
 30
0.0
 10
96.265131
 20
170.670869
 30
0.0
 10
96.445048
 20
170.670869
 30
0.0
 10
96.445048
 20
170.490953
 30
0.0
 10
96.624965
 20
170.490953
 30
0.0
 10
96.624965
 20
170.316328
 30
0.0
 10
96.804881
 20
170.316328
 30
0.0
 10
96.804881
 20
170.136411
 30
0.0
 10
96.624965
 20
170.136411
 30
0.0
 10
96.624965
 20
169.956494
 30
0.0
 10
96.984798
 20
169.956494
 30
0.0
 10
96.984798
 20
170.136411
 30
0.0
 10
97.339340
 20
170.136411
 30
0.0
 10
97.339340
 20
169.956494
 30
0.0
 10
97.699173
 20
169.956494
 30
0.0
 10
97.699173
 20
170.136411
 30
0.0
 10
97.519256
 20
170.136411
 30
0.0
 10
97.519256
 20
170.316328
 30
0.0
 10
97.699173
 20
170.316328
 30
0.0
 10
97.699173
 20
170.490953
 30
0.0
 10
97.879090
 20
170.490953
 30
0.0
 10
97.879090
 20
170.670869
 30
0.0
 10
98.059006
 20
170.670869
 30
0.0
 10
98.059006
 20
171.030703
 30
0.0
 10
98.233631
 20
171.030703
 30
0.0
 10
98.233631
 20
169.062203
 30
0.0
 10
98.588173
 20
169.062203
 30
0.0
 10
98.588173
 20
171.030703
 30
0.0
 10
98.948006
 20
171.030703
 30
0.0
 10
98.948006
 20
169.416744
 30
0.0
 10
99.307840
 20
169.416744
 30
0.0
 10
99.307840
 20
171.030703
 30
0.0
 10
99.482465
 20
171.030703
 30
0.0
 10
99.482465
 20
170.670869
 30
0.0
 10
99.662381
 20
170.670869
 30
0.0
 10
99.662381
 20
170.490953
 30
0.0
 10
99.842298
 20
170.490953
 30
0.0
 10
99.842298
 20
170.316328
 30
0.0
 10
100.022215
 20
170.316328
 30
0.0
 10
100.022215
 20
170.136411
 30
0.0
 10
99.842298
 20
170.136411
 30
0.0
 10
99.842298
 20
169.956494
 30
0.0
 10
100.202131
 20
169.956494
 30
0.0
 10
100.202131
 20
170.136411
 30
0.0
 10
100.556673
 20
170.136411
 30
0.0
 10
100.556673
 20
169.956494
 30
0.0
 10
100.916506
 20
169.956494
 30
0.0
 10
100.916506
 20
170.136411
 30
0.0
 10
100.736590
 20
170.136411
 30
0.0
 10
100.736590
 20
170.316328
 30
0.0
 10
100.916506
 20
170.316328
 30
0.0
 10
100.916506
 20
170.490953
 30
0.0
 10
101.096423
 20
170.490953
 30
0.0
 10
101.096423
 20
170.670869
 30
0.0
 10
101.276340
 20
170.670869
 30
0.0
 10
101.276340
 20
171.030703
 30
0.0
 10
101.456256
 20
171.030703
 30
0.0
 10
101.456256
 20
169.062203
 30
0.0
 10
101.808152
 20
169.062203
 30
0.0
 10
101.808152
 20
171.030703
 30
0.0
 10
102.170631
 20
171.030703
 30
0.0
 10
102.170631
 20
169.416744
 30
0.0
 10
102.530465
 20
169.416744
 30
0.0
 10
102.530465
 20
171.030703
 30
0.0
 10
102.710381
 20
171.030703
 30
0.0
 10
102.710381
 20
170.670869
 30
0.0
 10
102.882360
 20
170.670869
 30
0.0
 10
102.882360
 20
170.490953
 30
0.0
 10
103.062277
 20
170.490953
 30
0.0
 10
103.062277
 20
170.316328
 30
0.0
 10
103.242194
 20
170.316328
 30
0.0
 10
103.242194
 20
170.136411
 30
0.0
 10
103.062277
 20
170.136411
 30
0.0
 10
103.062277
 20
169.956494
 30
0.0
 10
103.422110
 20
169.956494
 30
0.0
 10
103.422110
 20
170.136411
 30
0.0
 10
103.784590
 20
170.136411
 30
0.0
 10
103.784590
 20
169.956494
 30
0.0
 10
104.136485
 20
169.956494
 30
0.0
 10
104.136485
 20
170.136411
 30
0.0
 10
103.956569
 20
170.136411
 30
0.0
 10
103.956569
 20
170.316328
 30
0.0
 10
104.136485
 20
170.316328
 30
0.0
 10
104.136485
 20
170.490953
 30
0.0
 10
104.316402
 20
170.490953
 30
0.0
 10
104.316402
 20
170.670869
 30
0.0
 10
104.496319
 20
170.670869
 30
0.0
 10
104.496319
 20
171.030703
 30
0.0
 10
104.676235
 20
171.030703
 30
0.0
 10
104.676235
 20
169.062203
 30
0.0
 10
105.036069
 20
169.062203
 30
0.0
 10
105.036069
 20
171.030703
 30
0.0
 10
105.390610
 20
171.030703
 30
0.0
 10
105.390610
 20
169.416744
 30
0.0
 10
105.750444
 20
169.416744
 30
0.0
 10
105.750444
 20
171.030703
 30
0.0
 10
105.930360
 20
171.030703
 30
0.0
 10
105.930360
 20
170.670869
 30
0.0
 10
106.110277
 20
170.670869
 30
0.0
 10
106.110277
 20
170.490953
 30
0.0
 10
106.284902
 20
170.490953
 30
0.0
 10
106.284902
 20
170.316328
 30
0.0
 10
106.464819
 20
170.316328
 30
0.0
 10
106.464819
 20
170.136411
 30
0.0
 10
107.004569
 20
170.136411
 30
0.0
 10
107.004569
 20
170.316328
 30
0.0
 10
107.184485
 20
170.316328
 30
0.0
 10
107.184485
 20
170.670869
 30
0.0
 10
107.359110
 20
170.670869
 30
0.0
 10
107.359110
 20
171.030703
 30
0.0
 10
107.539027
 20
171.030703
 30
0.0
 10
107.539027
 20
171.210619
 30
0.0
 10
107.718944
 20
171.210619
 30
0.0
 10
107.718944
 20
171.390536
 30
0.0
 10
108.073485
 20
171.390536
 30
0.0
 10
108.073485
 20
171.565161
 30
0.0
 10
107.359110
 20
171.565161
 30
0.0
 10
107.359110
 20
171.390536
 30
0.0
 10
107.184485
 20
171.390536
 30
0.0
 10
107.184485
 20
171.030703
 30
0.0
 10
107.004569
 20
171.030703
 30
0.0
 10
107.004569
 20
170.670869
 30
0.0
 10
106.824652
 20
170.670869
 30
0.0
 10
106.824652
 20
170.490953
 30
0.0
 10
106.464819
 20
170.490953
 30
0.0
 10
106.464819
 20
170.670869
 30
0.0
 10
106.284902
 20
170.670869
 30
0.0
 10
106.284902
 20
171.030703
 30
0.0
 10
106.644735
 20
171.030703
 30
0.0
 10
106.644735
 20
171.390536
 30
0.0
 10
106.464819
 20
171.390536
 30
0.0
 10
106.464819
 20
171.924994
 30
0.0
 10
105.750444
 20
171.924994
 30
0.0
 10
105.750444
 20
171.565161
 30
0.0
 10
104.676235
 20
171.565161
 30
0.0
 10
104.676235
 20
171.924994
 30
0.0
 10
105.036069
 20
171.924994
 30
0.0
 10
105.036069
 20
172.985973
 30
0.0
 10
104.676235
 20
172.985973
 30
0.0
 10
104.676235
 20
172.639369
 30
0.0
 10
103.956569
 20
172.639369
 30
0.0
 10
103.956569
 20
171.390536
 30
0.0
 10
103.784590
 20
171.390536
 30
0.0
 10
103.784590
 20
171.030703
 30
0.0
 10
104.136485
 20
171.030703
 30
0.0
 10
104.136485
 20
170.670869
 30
0.0
 10
103.956569
 20
170.670869
 30
0.0
 10
103.956569
 20
170.490953
 30
0.0
 10
103.784590
 20
170.490953
 30
0.0
 10
103.784590
 20
170.316328
 30
0.0
 10
103.422110
 20
170.316328
 30
0.0
 10
103.422110
 20
170.490953
 30
0.0
 10
103.242194
 20
170.490953
 30
0.0
 10
103.242194
 20
170.670869
 30
0.0
 10
103.062277
 20
170.670869
 30
0.0
 10
103.062277
 20
171.030703
 30
0.0
 10
103.422110
 20
171.030703
 30
0.0
 10
103.422110
 20
171.390536
 30
0.0
 10
103.242194
 20
171.390536
 30
0.0
 10
103.242194
 20
171.565161
 30
0.0
 10
101.636173
 20
171.565161
 30
0.0
 10
101.636173
 20
171.924994
 30
0.0
 10
101.276340
 20
171.924994
 30
0.0
 10
101.276340
 20
172.999203
 30
0.0
 10
101.636173
 20
172.999203
 30
0.0
 10
101.636173
 20
173.359036
 30
0.0
 10
103.062277
 20
173.359036
 30
0.0
 10
103.062277
 20
173.538953
 30
0.0
 10
102.882360
 20
173.538953
 30
0.0
 10
102.882360
 20
173.713578
 30
0.0
 10
102.710381
 20
173.713578
 30
0.0
 10
102.710381
 20
173.893494
 30
0.0
 10
102.350548
 20
173.893494
 30
0.0
 10
102.350548
 20
174.073411
 30
0.0
 10
101.636173
 20
174.073411
 30
0.0
 10
101.636173
 20
173.893494
 30
0.0
 10
101.276340
 20
173.893494
 30
0.0
 10
101.276340
 20
173.713578
 30
0.0
 10
101.096423
 20
173.713578
 30
0.0
 10
101.096423
 20
173.538953
 30
0.0
 10
100.916506
 20
173.538953
 30
0.0
 10
100.916506
 20
173.179119
 30
0.0
 10
100.736590
 20
173.179119
 30
0.0
 10
100.736590
 20
171.390536
 30
0.0
 10
100.556673
 20
171.390536
 30
0.0
 10
100.556673
 20
171.030703
 30
0.0
 10
100.916506
 20
171.030703
 30
0.0
 10
100.916506
 20
170.670869
 30
0.0
 10
100.736590
 20
170.670869
 30
0.0
 10
100.736590
 20
170.490953
 30
0.0
 10
100.556673
 20
170.490953
 30
0.0
 10
100.556673
 20
170.316328
 30
0.0
 10
100.202131
 20
170.316328
 30
0.0
 10
100.202131
 20
170.490953
 30
0.0
 10
100.022215
 20
170.490953
 30
0.0
 10
100.022215
 20
170.670869
 30
0.0
 10
99.842298
 20
170.670869
 30
0.0
 10
99.842298
 20
171.030703
 30
0.0
 10
100.202131
 20
171.030703
 30
0.0
 10
100.202131
 20
171.390536
 30
0.0
 10
100.022215
 20
171.390536
 30
0.0
 10
100.022215
 20
171.565161
 30
0.0
 10
98.413548
 20
171.565161
 30
0.0
 10
98.413548
 20
171.924994
 30
0.0
 10
98.059006
 20
171.924994
 30
0.0
 10
98.059006
 20
172.639369
 30
0.0
 10
98.413548
 20
172.639369
 30
0.0
 10
98.413548
 20
173.359036
 30
0.0
 10
97.699173
 20
173.359036
 30
0.0
 10
97.699173
 20
173.179119
 30
0.0
 10
97.519256
 20
173.179119
 30
0.0
 10
97.519256
 20
171.390536
 30
0.0
 10
97.339340
 20
171.390536
 30
0.0
 10
97.339340
 20
171.030703
 30
0.0
 10
97.699173
 20
171.030703
 30
0.0
 10
97.699173
 20
170.670869
 30
0.0
 10
97.519256
 20
170.670869
 30
0.0
 10
97.519256
 20
170.490953
 30
0.0
 10
97.339340
 20
170.490953
 30
0.0
 10
97.339340
 20
170.316328
 30
0.0
 10
96.984798
 20
170.316328
 30
0.0
 10
96.984798
 20
170.490953
 30
0.0
 10
96.804881
 20
170.490953
 30
0.0
 10
96.804881
 20
170.670869
 30
0.0
 10
96.624965
 20
170.670869
 30
0.0
 10
96.624965
 20
171.030703
 30
0.0
 10
96.984798
 20
171.030703
 30
0.0
 10
96.984798
 20
171.390536
 30
0.0
 10
96.804881
 20
171.390536
 30
0.0
 10
96.804881
 20
171.924994
 30
0.0
 10
96.085215
 20
171.924994
 30
0.0
 10
96.085215
 20
171.565161
 30
0.0
 10
95.730673
 20
171.565161
 30
0.0
 10
95.730673
 20
171.924994
 30
0.0
 10
95.370840
 20
171.924994
 30
0.0
 10
95.370840
 20
171.565161
 30
0.0
 10
95.011006
 20
171.565161
 30
0.0
 10
95.011006
 20
171.924994
 30
0.0
 10
94.296631
 20
171.924994
 30
0.0
 10
94.296631
 20
171.390536
 30
0.0
 10
94.116715
 20
171.390536
 30
0.0
 10
94.116715
 20
171.030703
 30
0.0
 10
94.476548
 20
171.030703
 30
0.0
 10
94.476548
 20
170.670869
 30
0.0
 10
94.296631
 20
170.670869
 30
0.0
 10
94.296631
 20
170.490953
 30
0.0
 10
94.116715
 20
170.490953
 30
0.0
 10
94.116715
 20
170.316328
 30
0.0
 10
93.756881
 20
170.316328
 30
0.0
 10
93.756881
 20
170.490953
 30
0.0
 10
93.582256
 20
170.490953
 30
0.0
 10
93.582256
 20
172.999203
 30
0.0
 10
92.328131
 20
172.999203
 30
0.0
 10
92.328131
 20
172.284828
 30
0.0
 10
91.968298
 20
172.284828
 30
0.0
 10
91.968298
 20
171.924994
 30
0.0
 10
91.608465
 20
171.924994
 30
0.0
 10
91.608465
 20
171.565161
 30
0.0
 10
90.354340
 20
171.565161
 30
0.0
 10
90.354340
 20
170.670869
 30
0.0
 10
90.534256
 20
170.670869
 30
0.0
 10
90.534256
 20
170.490953
 30
0.0
 10
90.182361
 20
170.490953
 30
0.0
 10
90.182361
 20
170.670869
 30
0.0
 10
90.002444
 20
170.670869
 30
0.0
 10
90.002444
 20
171.030703
 30
0.0
 10
89.822527
 20
171.030703
 30
0.0
 10
89.822527
 20
171.390536
 30
0.0
 10
89.642611
 20
171.390536
 30
0.0
 10
89.642611
 20
171.565161
 30
0.0
 10
88.933527
 20
171.565161
 30
0.0
 10
88.933527
 20
171.390536
 30
0.0
 10
89.280131
 20
171.390536
 30
0.0
 10
89.280131
 20
171.210619
 30
0.0
 10
89.462694
 20
171.210619
 30
0.0
 10
89.462694
 20
171.030703
 30
0.0
 10
89.642611
 20
171.030703
 30
0.0
 10
89.642611
 20
170.670869
 30
0.0
 10
89.822527
 20
170.670869
 30
0.0
 10
89.822527
 20
170.316328
 30
0.0
 10
90.002444
 20
170.316328
 30
0.0
 10
90.002444
 20
170.136411
 30
0.0
 10
90.534256
 20
170.136411
 30
0.0
 10
90.534256
 20
170.316328
 30
0.0
 10
90.714173
 20
170.316328
 30
0.0
 10
90.714173
 20
170.490953
 30
0.0
 10
90.894090
 20
170.490953
 30
0.0
 10
90.894090
 20
170.670869
 30
0.0
 10
91.608465
 20
170.670869
 30
0.0
 10
91.608465
 20
170.490953
 30
0.0
 10
91.428548
 20
170.490953
 30
0.0
 10
91.428548
 20
169.596661
 30
0.0
 10
91.608465
 20
169.596661
 30
0.0
 10
91.608465
 20
169.416744
 30
0.0
 10
91.788381
 20
169.416744
 30
0.0
 10
91.788381
 20
169.062203
 30
0.0
 10
92.148215
 20
169.062203
 30
0.0
 10
92.148215
 20
169.416744
 30
0.0
 10
92.328131
 20
169.416744
 30
0.0
 10
92.328131
 20
169.596661
 30
0.0
 10
92.502756
 20
169.596661
 30
0.0
  0
LWPOLYLINE
  5
10b
100
AcDbEntity
  8
Layer_1
 62
7
100
AcDbPolyline
 90
40
 70
1
 10
90.354340
 20
174.253328
 30
0.0
 10
90.354340
 20
171.573098
 30
0.0
 10
90.894090
 20
171.573098
 30
0.0
 10
90.894090
 20
171.924994
 30
0.0
 10
91.605819
 20
171.924994
 30
0.0
 10
91.605819
 20
172.639369
 30
0.0
 10
91.968298
 20
172.639369
 30
0.0
 10
91.968298
 20
172.999203
 30
0.0
 10
92.325486
 20
172.999203
 30
0.0
 10
92.325486
 20
173.359036
 30
0.0
 10
93.042506
 20
173.359036
 30
0.0
 10
93.042506
 20
173.007140
 30
0.0
 10
93.582256
 20
173.007140
 30
0.0
 10
93.582256
 20
174.253328
 30
0.0
 10
93.402340
 20
174.253328
 30
0.0
 10
93.402340
 20
174.433244
 30
0.0
 10
93.222423
 20
174.433244
 30
0.0
 10
93.222423
 20
173.713578
 30
0.0
 10
93.042506
 20
173.713578
 30
0.0
 10
93.042506
 20
174.253328
 30
0.0
 10
92.862590
 20
174.253328
 30
0.0
 10
92.862590
 20
173.893494
 30
0.0
 10
92.328131
 20
173.893494
 30
0.0
 10
92.328131
 20
174.253328
 30
0.0
 10
92.148215
 20
174.253328
 30
0.0
 10
92.148215
 20
173.893494
 30
0.0
 10
91.608465
 20
173.893494
 30
0.0
 10
91.608465
 20
174.253328
 30
0.0
 10
91.428548
 20
174.253328
 30
0.0
 10
91.428548
 20
173.713578
 30
0.0
 10
91.256569
 20
173.713578
 30
0.0
 10
91.256569
 20
174.253328
 30
0.0
 10
91.076652
 20
174.253328
 30
0.0
 10
91.076652
 20
173.713578
 30
0.0
 10
90.894090
 20
173.713578
 30
0.0
 10
90.894090
 20
174.613161
 30
0.0
 10
90.714173
 20
174.613161
 30
0.0
 10
90.714173
 20
174.433244
 30
0.0
 10
90.534256
 20
174.433244
 30
0.0
 10
90.534256
 20
174.253328
 30
0.0
  0
LWPOLYLINE
  5
10c
100
AcDbEntity
  8
Layer_1
 62
7
100
AcDbPolyline
 90
12
 70
1
 10
92.682673
 20
174.433244
 30
0.0
 10
93.211840
 20
174.433244
 30
0.0
 10
93.211840
 20
174.613161
 30
0.0
 10
90.896736
 20
174.613161
 30
0.0
 10
90.896736
 20
174.433244
 30
0.0
 10
91.788381
 20
174.433244
 30
0.0
 10
91.788381
 20
174.073411
 30
0.0
 10
91.968298
 20
174.073411
 30
0.0
 10
91.968298
 20
174.433244
 30
0.0
 10
92.502756
 20
174.433244
 30
0.0
 10
92.502756
 20
174.073411
 30
0.0
 10
92.682673
 20
174.073411
 30
0.0
  0
ENDSEC
  0
SECTION
  2
OBJECTS
  0
DICTIONARY
  5
C
330
0
100
AcDbDictionary
  3
ACAD_GROUP
350
D
  3
ACAD_MLINESTYLE
350
17
  0
DICTIONARY
  5
D
330
C
100
AcDbDictionary
  0
DICTIONARY
  5
1A
330
C
100
AcDbDictionary
  0
DICTIONARY
  5
17
330
C
100
AcDbDictionary
  3
STANDARD
350
18
  0
DICTIONARY
  5
19
330
C
100
AcDbDictionary
  0
ENDSEC
  0
EOF
