<?xml version="1.0" encoding="UTF-8"?>
<svg xmlns="http://www.w3.org/2000/svg" width="26.016mm" height="7.400mm" viewBox="262.910553 -127.176003 26.016144 7.400002">
    <path transform="matrix(1,0,0,-1,0,0)" style="stroke:#000000;stroke-width:0.05mm;fill:#000000;fill-rule:evenodd" d="M288.926697,123.112L288.687988,123.112L288.687988,123.350739L288.926697,123.350739L288.926697,123.112z"/>
    <path transform="matrix(1,0,0,-1,0,0)" style="stroke:#000000;stroke-width:0.05mm;fill:#000000;fill-rule:evenodd" d="M263.152039,123.112L262.911987,123.112L262.911987,123.35199L263.152039,123.35199L263.152039,123.112z"/>
    <path transform="matrix(1,0,0,-1,0,0)" style="stroke:#000000;stroke-width:0.05mm;fill:#000000;fill-rule:evenodd" d="M263.149261,124.308838L263.149261,124.070107L262.910553,124.070107L262.910553,123.831375L263.149261,123.831375L263.149261,123.592636L263.388,123.592636L263.388,123.353905L263.62674,123.353905L263.62674,123.592636L263.865479,123.592636L263.865479,123.831375L264.104218,123.831375L264.104218,124.070107L263.865479,124.070107L263.865479,124.308838L263.62674,124.308838L263.62674,124.070107L263.388,124.070107L263.388,124.308838L263.268646,124.308838L263.149261,124.308838z"/>
    <path transform="matrix(1,0,0,-1,0,0)" style="stroke:#000000;stroke-width:0.05mm;fill:#000000;fill-rule:evenodd" d="M287.970459,124.308838L287.970459,124.070107L287.73172,124.070107L287.73172,123.831375L287.970459,123.831375L287.970459,123.592636L288.209198,123.592636L288.209198,123.353905L288.447937,123.353905L288.447937,123.592636L288.686676,123.592636L288.686676,123.831375L288.925385,123.831375L288.925385,124.070107L288.686676,124.070107L288.686676,124.308838L288.447937,124.308838L288.447937,124.070107L288.209198,124.070107L288.209198,124.308838L288.089844,124.308838L287.970459,124.308838z"/>
    <path transform="matrix(1,0,0,-1,0,0)" style="stroke:#000000;stroke-width:0.05mm;fill:#000000;fill-rule:evenodd" d="M285.105682,125.02504L285.105682,123.592636L285.58313,123.592636L285.58313,125.02504L285.344391,125.02504L285.105682,125.02504z"/>
    <path transform="matrix(1,0,0,-1,0,0)" style="stroke:#000000;stroke-width:0.05mm;fill:#000000;fill-rule:evenodd" d="M286.536011,125.264L286.29599,125.264L286.29599,125.744003L286.063995,125.744003L286.063995,125.975998L285.824005,125.975998L285.824005,126.216003L285.343994,126.216003L285.343994,126.456001L284.391998,126.456001L284.391998,126.216003L283.911987,126.216003L283.911987,125.975998L283.671997,125.975998L283.671997,125.744003L283.432007,125.744003L283.432007,125.264L283.191986,125.264L283.191986,124.544006L283.671997,124.544006L283.671997,125.024002L284.152008,125.024002L284.152008,125.503998L285.584015,125.503998L285.584015,125.024002L286.063995,125.024002L286.063995,123.592003L286.536011,123.592003L286.536011,125.264z"/>
    <path transform="matrix(1,0,0,-1,0,0)" style="stroke:#000000;stroke-width:0.05mm;fill:#000000;fill-rule:evenodd" d="M282.23999,125.264L282,125.264L282,125.503998L281.528015,125.503998L281.528015,125.024002L280.096008,125.024002L280.096008,124.543999L281.048004,124.543999L281.048004,124.071999L280.096008,124.071999L280.096008,123.592003L281.528015,123.592003L281.528015,123.112L282.23999,123.112L282.23999,125.264z"/>
    <path transform="matrix(1,0,0,-1,0,0)" style="stroke:#000000;stroke-width:0.05mm;fill:#000000;fill-rule:evenodd" d="M266.967987,126.456001L267.208008,126.456001L267.208008,126.935997L267.920013,126.935997L267.920013,126.456001L268.160004,126.456001L268.160004,126.935997L268.880005,126.935997L268.880005,127.176003L265.536011,127.176003L265.536011,126.935997L266.967987,126.935997L266.967987,126.456001z"/>
    <path transform="matrix(1,0,0,-1,0,0)" style="stroke:#000000;stroke-width:0.05mm;fill:#000000;fill-rule:evenodd" d="M265.776001,123.592003L266.727997,123.592003L266.727997,124.543999L267.208008,124.543999L267.208008,125.024002L267.687988,125.024002L267.687988,125.503998L268.640015,125.503998L268.640015,125.024002L269.359985,125.024002L269.359985,126.695999L269.119995,126.695999L269.119995,126.935997L268.880005,126.935997L268.880005,125.975998L268.640015,125.975998L268.640015,126.695999L268.399994,126.695999L268.399994,126.216003L267.687988,126.216003L267.687988,126.695999L267.447998,126.695999L267.447998,126.216003L266.727997,126.216003L266.727997,126.695999L266.488007,126.695999L266.488007,125.975998L266.256012,125.975998L266.256012,126.695999L266.015991,126.695999L266.015991,125.975998L265.776001,125.975998L265.776001,126.935997L265.29599,126.935997L265.29599,126.695999L265.056,126.695999L265.056,123.112L265.776001,123.112L265.776001,123.592003z"/>
    <path transform="matrix(1,0,0,-1,0,0)" style="stroke:#000000;stroke-width:0.05mm;fill:#000000;fill-rule:evenodd" d="M270.791992,125.024002L271.264008,125.024002L271.264008,125.503998L272.696014,125.503998L272.696014,125.024002L273.175995,125.024002L273.175995,123.592003L273.656006,123.592003L273.656006,125.264L273.415985,125.264L273.415985,125.744003L273.175995,125.744003L273.175995,125.975998L272.936005,125.975998L272.936005,126.216003L272.455994,126.216003L272.455994,126.456001L271.503998,126.456001L271.503998,126.216003L271.023987,126.216003L271.023987,125.975998L270.791992,125.975998L270.791992,125.744003L270.552002,125.744003L270.552002,125.264L270.312012,125.264L270.312012,123.592003L270.791992,123.592003L270.791992,125.024002z"/>
    <path transform="matrix(1,0,0,-1,0,0)" style="stroke:#000000;stroke-width:0.05mm;fill:#000000;fill-rule:evenodd" d="M272.696014,125.024002L272.223999,125.024002L272.223999,125.503998L271.743988,125.503998L271.743988,125.024002L271.264008,125.024002L271.264008,123.592003L271.743988,123.592003L271.743988,124.543999L272.223999,124.543999L272.223999,123.592003L272.696014,123.592003L272.696014,125.024002z"/>
    <path transform="matrix(1,0,0,-1,0,0)" style="stroke:#000000;stroke-width:0.05mm;fill:#000000;fill-rule:evenodd" d="M276.272003,124.543999L275.799988,124.543999L275.799988,123.592003L277.223999,123.592003L277.223999,123.112L277.944,123.112L277.944,125.264L277.70401,125.264L277.70401,125.744003L277.463989,125.744003L277.463989,125.975998L277.223999,125.975998L277.223999,126.216003L276.752014,126.216003L276.752014,126.456001L275.799988,126.456001L275.799988,126.216003L275.328003,126.216003L275.328003,125.975998L275.088013,125.975998L275.088013,125.744003L274.847992,125.744003L274.847992,125.503998L276.272003,125.503998L276.272003,124.543999z"/>
    <path transform="matrix(1,0,0,-1,0,0)" style="stroke:#000000;stroke-width:0.05mm;fill:#000000;fill-rule:evenodd" d="M267.447998,120.248001L267.687988,120.248001L267.687988,120.487999L267.920013,120.487999L267.920013,121.68L267.687988,121.68L267.687988,121.919998L268.880005,121.919998L268.880005,121.68L269.119995,121.68L269.119995,121.447998L269.359985,121.447998L269.359985,121.208L269.119995,121.208L269.119995,120.968002L269.59201,120.968002L269.59201,121.208L270.071991,121.208L270.071991,120.968002L270.552002,120.968002L270.552002,121.208L270.312012,121.208L270.312012,121.447998L270.552002,121.447998L270.552002,121.68L270.791992,121.68L270.791992,121.919998L271.023987,121.919998L271.023987,122.400002L271.264008,122.400002L271.264008,119.776001L271.743988,119.776001L271.743988,122.400002L272.223999,122.400002L272.223999,120.248001L272.696014,120.248001L272.696014,122.400002L272.936005,122.400002L272.936005,121.919998L273.175995,121.919998L273.175995,121.68L273.415985,121.68L273.415985,121.447998L273.656006,121.447998L273.656006,121.208L273.415985,121.208L273.415985,120.968002L273.895996,120.968002L273.895996,121.208L274.368011,121.208L274.368011,120.968002L274.847992,120.968002L274.847992,121.208L274.608002,121.208L274.608002,121.447998L274.847992,121.447998L274.847992,121.68L275.088013,121.68L275.088013,121.919998L275.328003,121.919998L275.328003,122.400002L275.559998,122.400002L275.559998,119.776001L276.032013,119.776001L276.032013,122.400002L276.511993,122.400002L276.511993,120.248001L276.992004,120.248001L276.992004,122.400002L277.223999,122.400002L277.223999,121.919998L277.463989,121.919998L277.463989,121.68L277.70401,121.68L277.70401,121.447998L277.944,121.447998L277.944,121.208L277.70401,121.208L277.70401,120.968002L278.18399,120.968002L278.18399,121.208L278.656006,121.208L278.656006,120.968002L279.135986,120.968002L279.135986,121.208L278.895996,121.208L278.895996,121.447998L279.135986,121.447998L279.135986,121.68L279.376007,121.68L279.376007,121.919998L279.615997,121.919998L279.615997,122.400002L279.855988,122.400002L279.855988,119.776001L280.328003,119.776001L280.328003,122.400002L280.808014,122.400002L280.808014,120.248001L281.287994,120.248001L281.287994,122.400002L281.528015,122.400002L281.528015,121.919998L281.76001,121.919998L281.76001,121.68L282,121.68L282,121.447998L282.23999,121.447998L282.23999,121.208L282,121.208L282,120.968002L282.480011,120.968002L282.480011,121.208L282.959991,121.208L282.959991,120.968002L283.432007,120.968002L283.432007,121.208L283.191986,121.208L283.191986,121.447998L283.432007,121.447998L283.432007,121.68L283.671997,121.68L283.671997,121.919998L283.911987,121.919998L283.911987,122.400002L284.152008,122.400002L284.152008,119.776001L284.631989,119.776001L284.631989,122.400002L285.104004,122.400002L285.104004,120.248001L285.584015,120.248001L285.584015,122.400002L285.824005,122.400002L285.824005,121.919998L286.063995,121.919998L286.063995,121.68L286.29599,121.68L286.29599,121.447998L286.536011,121.447998L286.536011,121.208L287.256012,121.208L287.256012,121.447998L287.496002,121.447998L287.496002,121.919998L287.727997,121.919998L287.727997,122.400002L287.967987,122.400002L287.967987,122.639999L288.208008,122.639999L288.208008,122.879997L288.687988,122.879997L288.687988,123.112L287.727997,123.112L287.727997,122.879997L287.496002,122.879997L287.496002,122.400002L287.256012,122.400002L287.256012,121.919998L287.015991,121.919998L287.015991,121.68L286.536011,121.68L286.536011,121.919998L286.29599,121.919998L286.29599,122.400002L286.776001,122.400002L286.776001,122.879997L286.536011,122.879997L286.536011,123.592003L285.584015,123.592003L285.584015,123.112L284.152008,123.112L284.152008,123.592003L284.631989,123.592003L284.631989,125.024002L284.152008,125.024002L284.152008,124.543999L283.191986,124.543999L283.191986,122.879997L282.959991,122.879997L282.959991,122.400002L283.432007,122.400002L283.432007,121.919998L283.191986,121.919998L283.191986,121.68L282.959991,121.68L282.959991,121.447998L282.480011,121.447998L282.480011,121.68L282.23999,121.68L282.23999,121.919998L282,121.919998L282,122.400002L282.480011,122.400002L282.480011,122.879997L282.23999,122.879997L282.23999,123.112L280.096008,123.112L280.096008,123.592003L279.615997,123.592003L279.615997,125.024002L280.096008,125.024002L280.096008,125.503998L282,125.503998L282,125.744003L281.76001,125.744003L281.76001,125.975998L281.528015,125.975998L281.528015,126.216003L281.048004,126.216003L281.048004,126.456001L280.096008,126.456001L280.096008,126.216003L279.615997,126.216003L279.615997,125.975998L279.376007,125.975998L279.376007,125.744003L279.135986,125.744003L279.135986,125.264L278.895996,125.264L278.895996,122.879997L278.656006,122.879997L278.656006,122.400002L279.135986,122.400002L279.135986,121.919998L278.895996,121.919998L278.895996,121.68L278.656006,121.68L278.656006,121.447998L278.18399,121.447998L278.18399,121.68L277.944,121.68L277.944,121.919998L277.70401,121.919998L277.70401,122.400002L278.18399,122.400002L278.18399,122.879997L277.944,122.879997L277.944,123.112L275.799988,123.112L275.799988,123.592003L275.328003,123.592003L275.328003,124.543999L275.799988,124.543999L275.799988,125.503998L274.847992,125.503998L274.847992,125.264L274.608002,125.264L274.608002,122.879997L274.368011,122.879997L274.368011,122.400002L274.847992,122.400002L274.847992,121.919998L274.608002,121.919998L274.608002,121.68L274.368011,121.68L274.368011,121.447998L273.895996,121.447998L273.895996,121.68L273.656006,121.68L273.656006,121.919998L273.415985,121.919998L273.415985,122.400002L273.895996,122.400002L273.895996,122.879997L273.656006,122.879997L273.656006,123.592003L272.696014,123.592003L272.696014,123.112L272.223999,123.112L272.223999,123.592003L271.743988,123.592003L271.743988,123.112L271.264008,123.112L271.264008,123.592003L270.312012,123.592003L270.312012,122.879997L270.071991,122.879997L270.071991,122.400002L270.552002,122.400002L270.552002,121.919998L270.312012,121.919998L270.312012,121.68L270.071991,121.68L270.071991,121.447998L269.59201,121.447998L269.59201,121.68L269.359985,121.68L269.359985,125.024002L267.687988,125.024002L267.687988,124.071999L267.208008,124.071999L267.208008,123.592003L266.727997,123.592003L266.727997,123.112L265.056,123.112L265.056,121.919998L265.29599,121.919998L265.29599,121.68L264.824005,121.68L264.824005,121.919998L264.584015,121.919998L264.584015,122.400002L264.343994,122.400002L264.343994,122.879997L264.104004,122.879997L264.104004,123.112L263.152008,123.112L263.152008,122.879997L263.623993,122.879997L263.623993,122.639999L263.864014,122.639999L263.864014,122.400002L264.104004,122.400002L264.104004,121.919998L264.343994,121.919998L264.343994,121.447998L264.584015,121.447998L264.584015,121.208L265.29599,121.208L265.29599,121.447998L265.536011,121.447998L265.536011,121.68L265.776001,121.68L265.776001,121.919998L266.727997,121.919998L266.727997,121.68L266.488007,121.68L266.488007,120.487999L266.727997,120.487999L266.727997,120.248001L266.967987,120.248001L266.967987,119.776001L267.447998,119.776001L267.447998,120.248001z"/>
</svg>
