  0
SECTION
  2
HEADER
  9
$ACADVER
  1
AC1009
  0
ENDSEC
  0
SECTION
  2
ENTITIES
  0
POLYLINE
  5
90
  8
Layer_0
  62
0
  70
1
  66
1
  10
0
  20
0
  30
0
  0
VERTEX
  5
90
  8
Layer_0
  10
263.14926
  20
124.18947
  0
VERTEX
  5
91
  8
Layer_0
  10
263.14926
  20
124.07011
  0
VERTEX
  5
92
  8
Layer_0
  10
262.91055
  20
124.07011
  0
VERTEX
  5
93
  8
Layer_0
  10
262.91055
  20
123.83138
  0
VERTEX
  5
94
  8
Layer_0
  10
263.14926
  20
123.83138
  0
VERTEX
  5
95
  8
Layer_0
  10
263.14926
  20
123.59264
  0
VERTEX
  5
96
  8
Layer_0
  10
263.388
  20
123.59264
  0
VERTEX
  5
97
  8
Layer_0
  10
263.388
  20
123.3539
  0
VERTEX
  5
98
  8
Layer_0
  10
263.62674
  20
123.3539
  0
VERTEX
  5
99
  8
Layer_0
  10
263.62674
  20
123.59264
  0
VERTEX
  5
9a
  8
Layer_0
  10
263.86548
  20
123.59264
  0
VERTEX
  5
9b
  8
Layer_0
  10
263.86548
  20
123.83138
  0
VERTEX
  5
9c
  8
Layer_0
  10
264.10422
  20
123.83138
  0
VERTEX
  5
9d
  8
Layer_0
  10
264.10422
  20
124.07011
  0
VERTEX
  5
9e
  8
Layer_0
  10
263.86548
  20
124.07011
  0
VERTEX
  5
9f
  8
Layer_0
  10
263.86548
  20
124.30884
  0
VERTEX
  5
a0
  8
Layer_0
  10
263.62674
  20
124.30884
  0
VERTEX
  5
a1
  8
Layer_0
  10
263.62674
  20
124.07011
  0
VERTEX
  5
a2
  8
Layer_0
  10
263.388
  20
124.07011
  0
VERTEX
  5
a3
  8
Layer_0
  10
263.388
  20
124.30884
  0
VERTEX
  5
a4
  8
Layer_0
  10
263.14926
  20
124.30884
  0
VERTEX
  5
a5
  8
Layer_0
  10
263.14926
  20
124.18947
  0
SEQEND
  0
POLYLINE
  5
a7
  8
Layer_0
  62
0
  70
1
  66
1
  10
0
  20
0
  30
0
  0
VERTEX
  5
a7
  8
Layer_0
  10
287.97046
  20
124.18947
  0
VERTEX
  5
a8
  8
Layer_0
  10
287.97046
  20
124.07011
  0
VERTEX
  5
a9
  8
Layer_0
  10
287.73172
  20
124.07011
  0
VERTEX
  5
aa
  8
Layer_0
  10
287.73172
  20
123.83138
  0
VERTEX
  5
ab
  8
Layer_0
  10
287.97046
  20
123.83138
  0
VERTEX
  5
ac
  8
Layer_0
  10
287.97046
  20
123.59264
  0
VERTEX
  5
ad
  8
Layer_0
  10
288.2092
  20
123.59264
  0
VERTEX
  5
ae
  8
Layer_0
  10
288.2092
  20
123.3539
  0
VERTEX
  5
af
  8
Layer_0
  10
288.44794
  20
123.3539
  0
VERTEX
  5
b0
  8
Layer_0
  10
288.44794
  20
123.59264
  0
VERTEX
  5
b1
  8
Layer_0
  10
288.68668
  20
123.59264
  0
VERTEX
  5
b2
  8
Layer_0
  10
288.68668
  20
123.83138
  0
VERTEX
  5
b3
  8
Layer_0
  10
288.92538
  20
123.83138
  0
VERTEX
  5
b4
  8
Layer_0
  10
288.92538
  20
124.07011
  0
VERTEX
  5
b5
  8
Layer_0
  10
288.68668
  20
124.07011
  0
VERTEX
  5
b6
  8
Layer_0
  10
288.68668
  20
124.30884
  0
VERTEX
  5
b7
  8
Layer_0
  10
288.44794
  20
124.30884
  0
VERTEX
  5
b8
  8
Layer_0
  10
288.44794
  20
124.07011
  0
VERTEX
  5
b9
  8
Layer_0
  10
288.2092
  20
124.07011
  0
VERTEX
  5
ba
  8
Layer_0
  10
288.2092
  20
124.30884
  0
VERTEX
  5
bb
  8
Layer_0
  10
287.97046
  20
124.30884
  0
VERTEX
  5
bc
  8
Layer_0
  10
287.97046
  20
124.18947
  0
SEQEND
  0
POLYLINE
  5
be
  8
Layer_0
  62
0
  70
1
  66
1
  10
0
  20
0
  30
0
  0
VERTEX
  5
be
  8
Layer_0
  10
285.10568
  20
124.30884
  0
VERTEX
  5
bf
  8
Layer_0
  10
285.10568
  20
123.59264
  0
VERTEX
  5
c0
  8
Layer_0
  10
285.58313
  20
123.59264
  0
VERTEX
  5
c1
  8
Layer_0
  10
285.58313
  20
125.02504
  0
VERTEX
  5
c2
  8
Layer_0
  10
285.10568
  20
125.02504
  0
VERTEX
  5
c3
  8
Layer_0
  10
285.10568
  20
124.30884
  0
SEQEND
  0
POLYLINE
  5
c5
  8
Layer_0
  62
0
  70
1
  66
1
  10
0
  20
0
  30
0
  0
VERTEX
  5
c5
  8
Layer_0
  10
288.9267
  20
123.112
  0
VERTEX
  5
c6
  8
Layer_0
  10
288.68799
  20
123.112
  0
VERTEX
  5
c7
  8
Layer_0
  10
288.68799
  20
123.35074
  0
VERTEX
  5
c8
  8
Layer_0
  10
288.9267
  20
123.35074
  0
VERTEX
  5
c9
  8
Layer_0
  10
288.9267
  20
123.112
  0
SEQEND
  0
POLYLINE
  5
cb
  8
Layer_0
  62
0
  70
1
  66
1
  10
0
  20
0
  30
0
  0
VERTEX
  5
cb
  8
Layer_0
  10
263.15204
  20
123.112
  0
VERTEX
  5
cc
  8
Layer_0
  10
262.91199
  20
123.112
  0
VERTEX
  5
cd
  8
Layer_0
  10
262.91199
  20
123.35199
  0
VERTEX
  5
ce
  8
Layer_0
  10
263.15204
  20
123.35199
  0
VERTEX
  5
cf
  8
Layer_0
  10
263.15204
  20
123.112
  0
SEQEND
  0
POLYLINE
  5
d1
  8
Layer_0
  62
0
  70
1
  66
1
  10
0
  20
0
  30
0
  0
VERTEX
  5
d1
  8
Layer_0
  10
267.448
  20
120.248
  0
VERTEX
  5
d2
  8
Layer_0
  10
267.68799
  20
120.248
  0
VERTEX
  5
d3
  8
Layer_0
  10
267.68799
  20
120.488
  0
VERTEX
  5
d4
  8
Layer_0
  10
267.92001
  20
120.488
  0
VERTEX
  5
d5
  8
Layer_0
  10
267.92001
  20
121.68
  0
VERTEX
  5
d6
  8
Layer_0
  10
267.68799
  20
121.68
  0
VERTEX
  5
d7
  8
Layer_0
  10
267.68799
  20
121.92
  0
VERTEX
  5
d8
  8
Layer_0
  10
268.88
  20
121.92
  0
VERTEX
  5
d9
  8
Layer_0
  10
268.88
  20
121.68
  0
VERTEX
  5
da
  8
Layer_0
  10
269.12
  20
121.68
  0
VERTEX
  5
db
  8
Layer_0
  10
269.12
  20
121.448
  0
VERTEX
  5
dc
  8
Layer_0
  10
269.35999
  20
121.448
  0
VERTEX
  5
dd
  8
Layer_0
  10
269.35999
  20
121.208
  0
VERTEX
  5
de
  8
Layer_0
  10
269.12
  20
121.208
  0
VERTEX
  5
df
  8
Layer_0
  10
269.12
  20
120.968
  0
VERTEX
  5
e0
  8
Layer_0
  10
269.59201
  20
120.968
  0
VERTEX
  5
e1
  8
Layer_0
  10
269.59201
  20
121.208
  0
VERTEX
  5
e2
  8
Layer_0
  10
270.07199
  20
121.208
  0
VERTEX
  5
e3
  8
Layer_0
  10
270.07199
  20
120.968
  0
VERTEX
  5
e4
  8
Layer_0
  10
270.552
  20
120.968
  0
VERTEX
  5
e5
  8
Layer_0
  10
270.552
  20
121.208
  0
VERTEX
  5
e6
  8
Layer_0
  10
270.31201
  20
121.208
  0
VERTEX
  5
e7
  8
Layer_0
  10
270.31201
  20
121.448
  0
VERTEX
  5
e8
  8
Layer_0
  10
270.552
  20
121.448
  0
VERTEX
  5
e9
  8
Layer_0
  10
270.552
  20
121.68
  0
VERTEX
  5
ea
  8
Layer_0
  10
270.79199
  20
121.68
  0
VERTEX
  5
eb
  8
Layer_0
  10
270.79199
  20
121.92
  0
VERTEX
  5
ec
  8
Layer_0
  10
271.02399
  20
121.92
  0
VERTEX
  5
ed
  8
Layer_0
  10
271.02399
  20
122.4
  0
VERTEX
  5
ee
  8
Layer_0
  10
271.26401
  20
122.4
  0
VERTEX
  5
ef
  8
Layer_0
  10
271.26401
  20
119.776
  0
VERTEX
  5
f0
  8
Layer_0
  10
271.74399
  20
119.776
  0
VERTEX
  5
f1
  8
Layer_0
  10
271.74399
  20
122.4
  0
VERTEX
  5
f2
  8
Layer_0
  10
272.224
  20
122.4
  0
VERTEX
  5
f3
  8
Layer_0
  10
272.224
  20
120.248
  0
VERTEX
  5
f4
  8
Layer_0
  10
272.69601
  20
120.248
  0
VERTEX
  5
f5
  8
Layer_0
  10
272.69601
  20
122.4
  0
VERTEX
  5
f6
  8
Layer_0
  10
272.936
  20
122.4
  0
VERTEX
  5
f7
  8
Layer_0
  10
272.936
  20
121.92
  0
VERTEX
  5
f8
  8
Layer_0
  10
273.17599
  20
121.92
  0
VERTEX
  5
f9
  8
Layer_0
  10
273.17599
  20
121.68
  0
VERTEX
  5
fa
  8
Layer_0
  10
273.41599
  20
121.68
  0
VERTEX
  5
fb
  8
Layer_0
  10
273.41599
  20
121.448
  0
VERTEX
  5
fc
  8
Layer_0
  10
273.65601
  20
121.448
  0
VERTEX
  5
fd
  8
Layer_0
  10
273.65601
  20
121.208
  0
VERTEX
  5
fe
  8
Layer_0
  10
273.41599
  20
121.208
  0
VERTEX
  5
ff
  8
Layer_0
  10
273.41599
  20
120.968
  0
VERTEX
  5
100
  8
Layer_0
  10
273.896
  20
120.968
  0
VERTEX
  5
101
  8
Layer_0
  10
273.896
  20
121.208
  0
VERTEX
  5
102
  8
Layer_0
  10
274.36801
  20
121.208
  0
VERTEX
  5
103
  8
Layer_0
  10
274.36801
  20
120.968
  0
VERTEX
  5
104
  8
Layer_0
  10
274.84799
  20
120.968
  0
VERTEX
  5
105
  8
Layer_0
  10
274.84799
  20
121.208
  0
VERTEX
  5
106
  8
Layer_0
  10
274.608
  20
121.208
  0
VERTEX
  5
107
  8
Layer_0
  10
274.608
  20
121.448
  0
VERTEX
  5
108
  8
Layer_0
  10
274.84799
  20
121.448
  0
VERTEX
  5
109
  8
Layer_0
  10
274.84799
  20
121.68
  0
VERTEX
  5
10a
  8
Layer_0
  10
275.08801
  20
121.68
  0
VERTEX
  5
10b
  8
Layer_0
  10
275.08801
  20
121.92
  0
VERTEX
  5
10c
  8
Layer_0
  10
275.328
  20
121.92
  0
VERTEX
  5
10d
  8
Layer_0
  10
275.328
  20
122.4
  0
VERTEX
  5
10e
  8
Layer_0
  10
275.56
  20
122.4
  0
VERTEX
  5
10f
  8
Layer_0
  10
275.56
  20
119.776
  0
VERTEX
  5
110
  8
Layer_0
  10
276.03201
  20
119.776
  0
VERTEX
  5
111
  8
Layer_0
  10
276.03201
  20
122.4
  0
VERTEX
  5
112
  8
Layer_0
  10
276.51199
  20
122.4
  0
VERTEX
  5
113
  8
Layer_0
  10
276.51199
  20
120.248
  0
VERTEX
  5
114
  8
Layer_0
  10
276.992
  20
120.248
  0
VERTEX
  5
115
  8
Layer_0
  10
276.992
  20
122.4
  0
VERTEX
  5
116
  8
Layer_0
  10
277.224
  20
122.4
  0
VERTEX
  5
117
  8
Layer_0
  10
277.224
  20
121.92
  0
VERTEX
  5
118
  8
Layer_0
  10
277.46399
  20
121.92
  0
VERTEX
  5
119
  8
Layer_0
  10
277.46399
  20
121.68
  0
VERTEX
  5
11a
  8
Layer_0
  10
277.70401
  20
121.68
  0
VERTEX
  5
11b
  8
Layer_0
  10
277.70401
  20
121.448
  0
VERTEX
  5
11c
  8
Layer_0
  10
277.944
  20
121.448
  0
VERTEX
  5
11d
  8
Layer_0
  10
277.944
  20
121.208
  0
VERTEX
  5
11e
  8
Layer_0
  10
277.70401
  20
121.208
  0
VERTEX
  5
11f
  8
Layer_0
  10
277.70401
  20
120.968
  0
VERTEX
  5
120
  8
Layer_0
  10
278.18399
  20
120.968
  0
VERTEX
  5
121
  8
Layer_0
  10
278.18399
  20
121.208
  0
VERTEX
  5
122
  8
Layer_0
  10
278.65601
  20
121.208
  0
VERTEX
  5
123
  8
Layer_0
  10
278.65601
  20
120.968
  0
VERTEX
  5
124
  8
Layer_0
  10
279.13599
  20
120.968
  0
VERTEX
  5
125
  8
Layer_0
  10
279.13599
  20
121.208
  0
VERTEX
  5
126
  8
Layer_0
  10
278.896
  20
121.208
  0
VERTEX
  5
127
  8
Layer_0
  10
278.896
  20
121.448
  0
VERTEX
  5
128
  8
Layer_0
  10
279.13599
  20
121.448
  0
VERTEX
  5
129
  8
Layer_0
  10
279.13599
  20
121.68
  0
VERTEX
  5
12a
  8
Layer_0
  10
279.37601
  20
121.68
  0
VERTEX
  5
12b
  8
Layer_0
  10
279.37601
  20
121.92
  0
VERTEX
  5
12c
  8
Layer_0
  10
279.616
  20
121.92
  0
VERTEX
  5
12d
  8
Layer_0
  10
279.616
  20
122.4
  0
VERTEX
  5
12e
  8
Layer_0
  10
279.85599
  20
122.4
  0
VERTEX
  5
12f
  8
Layer_0
  10
279.85599
  20
119.776
  0
VERTEX
  5
130
  8
Layer_0
  10
280.328
  20
119.776
  0
VERTEX
  5
131
  8
Layer_0
  10
280.328
  20
122.4
  0
VERTEX
  5
132
  8
Layer_0
  10
280.80801
  20
122.4
  0
VERTEX
  5
133
  8
Layer_0
  10
280.80801
  20
120.248
  0
VERTEX
  5
134
  8
Layer_0
  10
281.28799
  20
120.248
  0
VERTEX
  5
135
  8
Layer_0
  10
281.28799
  20
122.4
  0
VERTEX
  5
136
  8
Layer_0
  10
281.52802
  20
122.4
  0
VERTEX
  5
137
  8
Layer_0
  10
281.52802
  20
121.92
  0
VERTEX
  5
138
  8
Layer_0
  10
281.76001
  20
121.92
  0
VERTEX
  5
139
  8
Layer_0
  10
281.76001
  20
121.68
  0
VERTEX
  5
13a
  8
Layer_0
  10
282
  20
121.68
  0
VERTEX
  5
13b
  8
Layer_0
  10
282
  20
121.448
  0
VERTEX
  5
13c
  8
Layer_0
  10
282.23999
  20
121.448
  0
VERTEX
  5
13d
  8
Layer_0
  10
282.23999
  20
121.208
  0
VERTEX
  5
13e
  8
Layer_0
  10
282
  20
121.208
  0
VERTEX
  5
13f
  8
Layer_0
  10
282
  20
120.968
  0
VERTEX
  5
140
  8
Layer_0
  10
282.48001
  20
120.968
  0
VERTEX
  5
141
  8
Layer_0
  10
282.48001
  20
121.208
  0
VERTEX
  5
142
  8
Layer_0
  10
282.95999
  20
121.208
  0
VERTEX
  5
143
  8
Layer_0
  10
282.95999
  20
120.968
  0
VERTEX
  5
144
  8
Layer_0
  10
283.43201
  20
120.968
  0
VERTEX
  5
145
  8
Layer_0
  10
283.43201
  20
121.208
  0
VERTEX
  5
146
  8
Layer_0
  10
283.19199
  20
121.208
  0
VERTEX
  5
147
  8
Layer_0
  10
283.19199
  20
121.448
  0
VERTEX
  5
148
  8
Layer_0
  10
283.43201
  20
121.448
  0
VERTEX
  5
149
  8
Layer_0
  10
283.43201
  20
121.68
  0
VERTEX
  5
14a
  8
Layer_0
  10
283.672
  20
121.68
  0
VERTEX
  5
14b
  8
Layer_0
  10
283.672
  20
121.92
  0
VERTEX
  5
14c
  8
Layer_0
  10
283.91199
  20
121.92
  0
VERTEX
  5
14d
  8
Layer_0
  10
283.91199
  20
122.4
  0
VERTEX
  5
14e
  8
Layer_0
  10
284.15201
  20
122.4
  0
VERTEX
  5
14f
  8
Layer_0
  10
284.15201
  20
119.776
  0
VERTEX
  5
150
  8
Layer_0
  10
284.63199
  20
119.776
  0
VERTEX
  5
151
  8
Layer_0
  10
284.63199
  20
122.4
  0
VERTEX
  5
152
  8
Layer_0
  10
285.104
  20
122.4
  0
VERTEX
  5
153
  8
Layer_0
  10
285.104
  20
120.248
  0
VERTEX
  5
154
  8
Layer_0
  10
285.58401
  20
120.248
  0
VERTEX
  5
155
  8
Layer_0
  10
285.58401
  20
122.4
  0
VERTEX
  5
156
  8
Layer_0
  10
285.82401
  20
122.4
  0
VERTEX
  5
157
  8
Layer_0
  10
285.82401
  20
121.92
  0
VERTEX
  5
158
  8
Layer_0
  10
286.064
  20
121.92
  0
VERTEX
  5
159
  8
Layer_0
  10
286.064
  20
121.68
  0
VERTEX
  5
15a
  8
Layer_0
  10
286.29599
  20
121.68
  0
VERTEX
  5
15b
  8
Layer_0
  10
286.29599
  20
121.448
  0
VERTEX
  5
15c
  8
Layer_0
  10
286.53601
  20
121.448
  0
VERTEX
  5
15d
  8
Layer_0
  10
286.53601
  20
121.208
  0
VERTEX
  5
15e
  8
Layer_0
  10
287.25601
  20
121.208
  0
VERTEX
  5
15f
  8
Layer_0
  10
287.25601
  20
121.448
  0
VERTEX
  5
160
  8
Layer_0
  10
287.496
  20
121.448
  0
VERTEX
  5
161
  8
Layer_0
  10
287.496
  20
121.92
  0
VERTEX
  5
162
  8
Layer_0
  10
287.728
  20
121.92
  0
VERTEX
  5
163
  8
Layer_0
  10
287.728
  20
122.4
  0
VERTEX
  5
164
  8
Layer_0
  10
287.96799
  20
122.4
  0
VERTEX
  5
165
  8
Layer_0
  10
287.96799
  20
122.64
  0
VERTEX
  5
166
  8
Layer_0
  10
288.20801
  20
122.64
  0
VERTEX
  5
167
  8
Layer_0
  10
288.20801
  20
122.88
  0
VERTEX
  5
168
  8
Layer_0
  10
288.68799
  20
122.88
  0
VERTEX
  5
169
  8
Layer_0
  10
288.68799
  20
123.112
  0
VERTEX
  5
16a
  8
Layer_0
  10
287.728
  20
123.112
  0
VERTEX
  5
16b
  8
Layer_0
  10
287.728
  20
122.88
  0
VERTEX
  5
16c
  8
Layer_0
  10
287.496
  20
122.88
  0
VERTEX
  5
16d
  8
Layer_0
  10
287.496
  20
122.4
  0
VERTEX
  5
16e
  8
Layer_0
  10
287.25601
  20
122.4
  0
VERTEX
  5
16f
  8
Layer_0
  10
287.25601
  20
121.92
  0
VERTEX
  5
170
  8
Layer_0
  10
287.01599
  20
121.92
  0
VERTEX
  5
171
  8
Layer_0
  10
287.01599
  20
121.68
  0
VERTEX
  5
172
  8
Layer_0
  10
286.53601
  20
121.68
  0
VERTEX
  5
173
  8
Layer_0
  10
286.53601
  20
121.92
  0
VERTEX
  5
174
  8
Layer_0
  10
286.29599
  20
121.92
  0
VERTEX
  5
175
  8
Layer_0
  10
286.29599
  20
122.4
  0
VERTEX
  5
176
  8
Layer_0
  10
286.776
  20
122.4
  0
VERTEX
  5
177
  8
Layer_0
  10
286.776
  20
122.88
  0
VERTEX
  5
178
  8
Layer_0
  10
286.53601
  20
122.88
  0
VERTEX
  5
179
  8
Layer_0
  10
286.53601
  20
124.432
  0
VERTEX
  5
17a
  8
Layer_0
  10
286.064
  20
124.432
  0
VERTEX
  5
17b
  8
Layer_0
  10
286.064
  20
123.592
  0
VERTEX
  5
17c
  8
Layer_0
  10
285.58401
  20
123.592
  0
VERTEX
  5
17d
  8
Layer_0
  10
285.58401
  20
123.112
  0
VERTEX
  5
17e
  8
Layer_0
  10
284.15201
  20
123.112
  0
VERTEX
  5
17f
  8
Layer_0
  10
284.15201
  20
123.592
  0
VERTEX
  5
180
  8
Layer_0
  10
284.63199
  20
123.592
  0
VERTEX
  5
181
  8
Layer_0
  10
284.63199
  20
125.024
  0
VERTEX
  5
182
  8
Layer_0
  10
284.15201
  20
125.024
  0
VERTEX
  5
183
  8
Layer_0
  10
284.15201
  20
124.544
  0
VERTEX
  5
184
  8
Layer_0
  10
283.672
  20
124.544
  0
VERTEX
  5
185
  8
Layer_0
  10
283.672
  20
124.768
  0
VERTEX
  5
186
  8
Layer_0
  10
283.19199
  20
124.768
  0
VERTEX
  5
187
  8
Layer_0
  10
283.19199
  20
122.88
  0
VERTEX
  5
188
  8
Layer_0
  10
282.95999
  20
122.88
  0
VERTEX
  5
189
  8
Layer_0
  10
282.95999
  20
122.4
  0
VERTEX
  5
18a
  8
Layer_0
  10
283.43201
  20
122.4
  0
VERTEX
  5
18b
  8
Layer_0
  10
283.43201
  20
121.92
  0
VERTEX
  5
18c
  8
Layer_0
  10
283.19199
  20
121.92
  0
VERTEX
  5
18d
  8
Layer_0
  10
283.19199
  20
121.68
  0
VERTEX
  5
18e
  8
Layer_0
  10
282.95999
  20
121.68
  0
VERTEX
  5
18f
  8
Layer_0
  10
282.95999
  20
121.448
  0
VERTEX
  5
190
  8
Layer_0
  10
282.48001
  20
121.448
  0
VERTEX
  5
191
  8
Layer_0
  10
282.48001
  20
121.68
  0
VERTEX
  5
192
  8
Layer_0
  10
282.23999
  20
121.68
  0
VERTEX
  5
193
  8
Layer_0
  10
282.23999
  20
121.92
  0
VERTEX
  5
194
  8
Layer_0
  10
282
  20
121.92
  0
VERTEX
  5
195
  8
Layer_0
  10
282
  20
122.4
  0
VERTEX
  5
196
  8
Layer_0
  10
282.48001
  20
122.4
  0
VERTEX
  5
197
  8
Layer_0
  10
282.48001
  20
122.88
  0
VERTEX
  5
198
  8
Layer_0
  10
282.23999
  20
122.88
  0
VERTEX
  5
199
  8
Layer_0
  10
282.23999
  20
125.264
  0
VERTEX
  5
19a
  8
Layer_0
  10
282
  20
125.264
  0
VERTEX
  5
19b
  8
Layer_0
  10
282
  20
125.744
  0
VERTEX
  5
19c
  8
Layer_0
  10
281.76001
  20
125.744
  0
VERTEX
  5
19d
  8
Layer_0
  10
281.76001
  20
125.976
  0
VERTEX
  5
19e
  8
Layer_0
  10
281.52802
  20
125.976
  0
VERTEX
  5
19f
  8
Layer_0
  10
281.52802
  20
126.216
  0
VERTEX
  5
1a0
  8
Layer_0
  10
281.048
  20
126.216
  0
VERTEX
  5
1a1
  8
Layer_0
  10
281.048
  20
126.456
  0
VERTEX
  5
1a2
  8
Layer_0
  10
280.09601
  20
126.456
  0
VERTEX
  5
1a3
  8
Layer_0
  10
280.09601
  20
126.216
  0
VERTEX
  5
1a4
  8
Layer_0
  10
279.616
  20
126.216
  0
VERTEX
  5
1a5
  8
Layer_0
  10
279.616
  20
125.976
  0
VERTEX
  5
1a6
  8
Layer_0
  10
279.37601
  20
125.976
  0
VERTEX
  5
1a7
  8
Layer_0
  10
279.37601
  20
125.744
  0
VERTEX
  5
1a8
  8
Layer_0
  10
279.13599
  20
125.744
  0
VERTEX
  5
1a9
  8
Layer_0
  10
279.13599
  20
125.264
  0
VERTEX
  5
1aa
  8
Layer_0
  10
278.896
  20
125.264
  0
VERTEX
  5
1ab
  8
Layer_0
  10
278.896
  20
122.88
  0
VERTEX
  5
1ac
  8
Layer_0
  10
278.65601
  20
122.88
  0
VERTEX
  5
1ad
  8
Layer_0
  10
278.65601
  20
122.4
  0
VERTEX
  5
1ae
  8
Layer_0
  10
279.13599
  20
122.4
  0
VERTEX
  5
1af
  8
Layer_0
  10
279.13599
  20
121.92
  0
VERTEX
  5
1b0
  8
Layer_0
  10
278.896
  20
121.92
  0
VERTEX
  5
1b1
  8
Layer_0
  10
278.896
  20
121.68
  0
VERTEX
  5
1b2
  8
Layer_0
  10
278.65601
  20
121.68
  0
VERTEX
  5
1b3
  8
Layer_0
  10
278.65601
  20
121.448
  0
VERTEX
  5
1b4
  8
Layer_0
  10
278.18399
  20
121.448
  0
VERTEX
  5
1b5
  8
Layer_0
  10
278.18399
  20
121.68
  0
VERTEX
  5
1b6
  8
Layer_0
  10
277.944
  20
121.68
  0
VERTEX
  5
1b7
  8
Layer_0
  10
277.944
  20
121.92
  0
VERTEX
  5
1b8
  8
Layer_0
  10
277.70401
  20
121.92
  0
VERTEX
  5
1b9
  8
Layer_0
  10
277.70401
  20
122.4
  0
VERTEX
  5
1ba
  8
Layer_0
  10
278.18399
  20
122.4
  0
VERTEX
  5
1bb
  8
Layer_0
  10
278.18399
  20
122.88
  0
VERTEX
  5
1bc
  8
Layer_0
  10
277.944
  20
122.88
  0
VERTEX
  5
1bd
  8
Layer_0
  10
277.944
  20
125.264
  0
VERTEX
  5
1be
  8
Layer_0
  10
277.70401
  20
125.264
  0
VERTEX
  5
1bf
  8
Layer_0
  10
277.70401
  20
125.744
  0
VERTEX
  5
1c0
  8
Layer_0
  10
277.46399
  20
125.744
  0
VERTEX
  5
1c1
  8
Layer_0
  10
277.46399
  20
125.976
  0
VERTEX
  5
1c2
  8
Layer_0
  10
277.224
  20
125.976
  0
VERTEX
  5
1c3
  8
Layer_0
  10
277.224
  20
126.216
  0
VERTEX
  5
1c4
  8
Layer_0
  10
276.75201
  20
126.216
  0
VERTEX
  5
1c5
  8
Layer_0
  10
276.75201
  20
126.456
  0
VERTEX
  5
1c6
  8
Layer_0
  10
275.79999
  20
126.456
  0
VERTEX
  5
1c7
  8
Layer_0
  10
275.79999
  20
126.216
  0
VERTEX
  5
1c8
  8
Layer_0
  10
275.328
  20
126.216
  0
VERTEX
  5
1c9
  8
Layer_0
  10
275.328
  20
125.976
  0
VERTEX
  5
1ca
  8
Layer_0
  10
275.08801
  20
125.976
  0
VERTEX
  5
1cb
  8
Layer_0
  10
275.08801
  20
125.744
  0
VERTEX
  5
1cc
  8
Layer_0
  10
274.84799
  20
125.744
  0
VERTEX
  5
1cd
  8
Layer_0
  10
274.84799
  20
125.264
  0
VERTEX
  5
1ce
  8
Layer_0
  10
274.608
  20
125.264
  0
VERTEX
  5
1cf
  8
Layer_0
  10
274.608
  20
122.88
  0
VERTEX
  5
1d0
  8
Layer_0
  10
274.36801
  20
122.88
  0
VERTEX
  5
1d1
  8
Layer_0
  10
274.36801
  20
122.4
  0
VERTEX
  5
1d2
  8
Layer_0
  10
274.84799
  20
122.4
  0
VERTEX
  5
1d3
  8
Layer_0
  10
274.84799
  20
121.92
  0
VERTEX
  5
1d4
  8
Layer_0
  10
274.608
  20
121.92
  0
VERTEX
  5
1d5
  8
Layer_0
  10
274.608
  20
121.68
  0
VERTEX
  5
1d6
  8
Layer_0
  10
274.36801
  20
121.68
  0
VERTEX
  5
1d7
  8
Layer_0
  10
274.36801
  20
121.448
  0
VERTEX
  5
1d8
  8
Layer_0
  10
273.896
  20
121.448
  0
VERTEX
  5
1d9
  8
Layer_0
  10
273.896
  20
121.68
  0
VERTEX
  5
1da
  8
Layer_0
  10
273.65601
  20
121.68
  0
VERTEX
  5
1db
  8
Layer_0
  10
273.65601
  20
121.92
  0
VERTEX
  5
1dc
  8
Layer_0
  10
273.41599
  20
121.92
  0
VERTEX
  5
1dd
  8
Layer_0
  10
273.41599
  20
122.4
  0
VERTEX
  5
1de
  8
Layer_0
  10
273.896
  20
122.4
  0
VERTEX
  5
1df
  8
Layer_0
  10
273.896
  20
122.88
  0
VERTEX
  5
1e0
  8
Layer_0
  10
273.65601
  20
122.88
  0
VERTEX
  5
1e1
  8
Layer_0
  10
273.65601
  20
125.264
  0
VERTEX
  5
1e2
  8
Layer_0
  10
273.41599
  20
125.264
  0
VERTEX
  5
1e3
  8
Layer_0
  10
273.41599
  20
125.744
  0
VERTEX
  5
1e4
  8
Layer_0
  10
273.17599
  20
125.744
  0
VERTEX
  5
1e5
  8
Layer_0
  10
273.17599
  20
125.976
  0
VERTEX
  5
1e6
  8
Layer_0
  10
272.936
  20
125.976
  0
VERTEX
  5
1e7
  8
Layer_0
  10
272.936
  20
126.216
  0
VERTEX
  5
1e8
  8
Layer_0
  10
272.45599
  20
126.216
  0
VERTEX
  5
1e9
  8
Layer_0
  10
272.45599
  20
126.456
  0
VERTEX
  5
1ea
  8
Layer_0
  10
271.504
  20
126.456
  0
VERTEX
  5
1eb
  8
Layer_0
  10
271.504
  20
126.216
  0
VERTEX
  5
1ec
  8
Layer_0
  10
271.02399
  20
126.216
  0
VERTEX
  5
1ed
  8
Layer_0
  10
271.02399
  20
125.976
  0
VERTEX
  5
1ee
  8
Layer_0
  10
270.79199
  20
125.976
  0
VERTEX
  5
1ef
  8
Layer_0
  10
270.79199
  20
125.744
  0
VERTEX
  5
1f0
  8
Layer_0
  10
270.552
  20
125.744
  0
VERTEX
  5
1f1
  8
Layer_0
  10
270.552
  20
125.264
  0
VERTEX
  5
1f2
  8
Layer_0
  10
270.31201
  20
125.264
  0
VERTEX
  5
1f3
  8
Layer_0
  10
270.31201
  20
122.88
  0
VERTEX
  5
1f4
  8
Layer_0
  10
270.07199
  20
122.88
  0
VERTEX
  5
1f5
  8
Layer_0
  10
270.07199
  20
122.4
  0
VERTEX
  5
1f6
  8
Layer_0
  10
270.552
  20
122.4
  0
VERTEX
  5
1f7
  8
Layer_0
  10
270.552
  20
121.92
  0
VERTEX
  5
1f8
  8
Layer_0
  10
270.31201
  20
121.92
  0
VERTEX
  5
1f9
  8
Layer_0
  10
270.31201
  20
121.68
  0
VERTEX
  5
1fa
  8
Layer_0
  10
270.07199
  20
121.68
  0
VERTEX
  5
1fb
  8
Layer_0
  10
270.07199
  20
121.448
  0
VERTEX
  5
1fc
  8
Layer_0
  10
269.59201
  20
121.448
  0
VERTEX
  5
1fd
  8
Layer_0
  10
269.59201
  20
121.68
  0
VERTEX
  5
1fe
  8
Layer_0
  10
269.35999
  20
121.68
  0
VERTEX
  5
1ff
  8
Layer_0
  10
269.35999
  20
126.696
  0
VERTEX
  5
200
  8
Layer_0
  10
269.12
  20
126.696
  0
VERTEX
  5
201
  8
Layer_0
  10
269.12
  20
126.936
  0
VERTEX
  5
202
  8
Layer_0
  10
268.88
  20
126.936
  0
VERTEX
  5
203
  8
Layer_0
  10
268.88
  20
127.176
  0
VERTEX
  5
204
  8
Layer_0
  10
265.53601
  20
127.176
  0
VERTEX
  5
205
  8
Layer_0
  10
265.53601
  20
126.936
  0
VERTEX
  5
206
  8
Layer_0
  10
265.29599
  20
126.936
  0
VERTEX
  5
207
  8
Layer_0
  10
265.29599
  20
126.696
  0
VERTEX
  5
208
  8
Layer_0
  10
265.056
  20
126.696
  0
VERTEX
  5
209
  8
Layer_0
  10
265.056
  20
121.92
  0
VERTEX
  5
20a
  8
Layer_0
  10
265.29599
  20
121.92
  0
VERTEX
  5
20b
  8
Layer_0
  10
265.29599
  20
121.68
  0
VERTEX
  5
20c
  8
Layer_0
  10
264.82401
  20
121.68
  0
VERTEX
  5
20d
  8
Layer_0
  10
264.82401
  20
121.92
  0
VERTEX
  5
20e
  8
Layer_0
  10
264.58401
  20
121.92
  0
VERTEX
  5
20f
  8
Layer_0
  10
264.58401
  20
122.4
  0
VERTEX
  5
210
  8
Layer_0
  10
264.34399
  20
122.4
  0
VERTEX
  5
211
  8
Layer_0
  10
264.34399
  20
122.88
  0
VERTEX
  5
212
  8
Layer_0
  10
264.104
  20
122.88
  0
VERTEX
  5
213
  8
Layer_0
  10
264.104
  20
123.112
  0
VERTEX
  5
214
  8
Layer_0
  10
263.15201
  20
123.112
  0
VERTEX
  5
215
  8
Layer_0
  10
263.15201
  20
122.88
  0
VERTEX
  5
216
  8
Layer_0
  10
263.62399
  20
122.88
  0
VERTEX
  5
217
  8
Layer_0
  10
263.62399
  20
122.64
  0
VERTEX
  5
218
  8
Layer_0
  10
263.86401
  20
122.64
  0
VERTEX
  5
219
  8
Layer_0
  10
263.86401
  20
122.4
  0
VERTEX
  5
21a
  8
Layer_0
  10
264.104
  20
122.4
  0
VERTEX
  5
21b
  8
Layer_0
  10
264.104
  20
121.92
  0
VERTEX
  5
21c
  8
Layer_0
  10
264.34399
  20
121.92
  0
VERTEX
  5
21d
  8
Layer_0
  10
264.34399
  20
121.448
  0
VERTEX
  5
21e
  8
Layer_0
  10
264.58401
  20
121.448
  0
VERTEX
  5
21f
  8
Layer_0
  10
264.58401
  20
121.208
  0
VERTEX
  5
220
  8
Layer_0
  10
265.29599
  20
121.208
  0
VERTEX
  5
221
  8
Layer_0
  10
265.29599
  20
121.448
  0
VERTEX
  5
222
  8
Layer_0
  10
265.53601
  20
121.448
  0
VERTEX
  5
223
  8
Layer_0
  10
265.53601
  20
121.68
  0
VERTEX
  5
224
  8
Layer_0
  10
265.776
  20
121.68
  0
VERTEX
  5
225
  8
Layer_0
  10
265.776
  20
121.92
  0
VERTEX
  5
226
  8
Layer_0
  10
266.728
  20
121.92
  0
VERTEX
  5
227
  8
Layer_0
  10
266.728
  20
121.68
  0
VERTEX
  5
228
  8
Layer_0
  10
266.48801
  20
121.68
  0
VERTEX
  5
229
  8
Layer_0
  10
266.48801
  20
120.488
  0
VERTEX
  5
22a
  8
Layer_0
  10
266.728
  20
120.488
  0
VERTEX
  5
22b
  8
Layer_0
  10
266.728
  20
120.248
  0
VERTEX
  5
22c
  8
Layer_0
  10
266.96799
  20
120.248
  0
VERTEX
  5
22d
  8
Layer_0
  10
266.96799
  20
119.776
  0
VERTEX
  5
22e
  8
Layer_0
  10
267.448
  20
119.776
  0
VERTEX
  5
22f
  8
Layer_0
  10
267.448
  20
120.248
  0
SEQEND
  0
POLYLINE
  5
231
  8
Layer_0
  62
0
  70
1
  66
1
  10
0
  20
0
  30
0
  0
VERTEX
  5
231
  8
Layer_0
  10
286.53601
  20
125.264
  0
VERTEX
  5
232
  8
Layer_0
  10
286.29599
  20
125.264
  0
VERTEX
  5
233
  8
Layer_0
  10
286.29599
  20
125.744
  0
VERTEX
  5
234
  8
Layer_0
  10
286.064
  20
125.744
  0
VERTEX
  5
235
  8
Layer_0
  10
286.064
  20
125.976
  0
VERTEX
  5
236
  8
Layer_0
  10
285.82401
  20
125.976
  0
VERTEX
  5
237
  8
Layer_0
  10
285.82401
  20
126.216
  0
VERTEX
  5
238
  8
Layer_0
  10
285.34399
  20
126.216
  0
VERTEX
  5
239
  8
Layer_0
  10
285.34399
  20
126.456
  0
VERTEX
  5
23a
  8
Layer_0
  10
284.392
  20
126.456
  0
VERTEX
  5
23b
  8
Layer_0
  10
284.392
  20
126.216
  0
VERTEX
  5
23c
  8
Layer_0
  10
283.91199
  20
126.216
  0
VERTEX
  5
23d
  8
Layer_0
  10
283.91199
  20
125.976
  0
VERTEX
  5
23e
  8
Layer_0
  10
283.672
  20
125.976
  0
VERTEX
  5
23f
  8
Layer_0
  10
283.672
  20
125.744
  0
VERTEX
  5
240
  8
Layer_0
  10
283.43201
  20
125.744
  0
VERTEX
  5
241
  8
Layer_0
  10
283.43201
  20
125.264
  0
VERTEX
  5
242
  8
Layer_0
  10
283.19199
  20
125.264
  0
VERTEX
  5
243
  8
Layer_0
  10
283.19199
  20
124.856
  0
VERTEX
  5
244
  8
Layer_0
  10
283.672
  20
124.856
  0
VERTEX
  5
245
  8
Layer_0
  10
283.672
  20
125.024
  0
VERTEX
  5
246
  8
Layer_0
  10
284.15201
  20
125.024
  0
VERTEX
  5
247
  8
Layer_0
  10
284.15201
  20
125.504
  0
VERTEX
  5
248
  8
Layer_0
  10
285.58401
  20
125.504
  0
VERTEX
  5
249
  8
Layer_0
  10
285.58401
  20
125.024
  0
VERTEX
  5
24a
  8
Layer_0
  10
286.064
  20
125.024
  0
VERTEX
  5
24b
  8
Layer_0
  10
286.064
  20
124.528
  0
VERTEX
  5
24c
  8
Layer_0
  10
286.53601
  20
124.528
  0
VERTEX
  5
24d
  8
Layer_0
  10
286.53601
  20
125.264
  0
SEQEND
  0
ENDSEC
  0
EOF
