  0
SECTION
  2
HEADER
  9
$ACADVER
  1
AC1014
  9
$HANDSEED
  5
FFFF
  9
$MEASUREMENT
 70
     1
  0
ENDSEC
  0
SECTION
  2
TABLES
  0
TABLE
  2
VPORT
  5
8
330
0
100
AcDbSymbolTable
 70
     4
  0
VPORT
  5
2E
330
8
100
AcDbSymbolTableRecord
100
AcDbViewportTableRecord
  2
*ACTIVE
 70
     0
 10
0.0
 20
0.0
 11
1.0
 21
1.0
 12
210.0
 22
148.5
 13
0.0
 23
0.0
 14
10.0
 24
10.0
 15
10.0
 25
10.0
 16
0.0
 26
0.0
 36
1.0
 17
0.0
 27
0.0
 37
0.0
 40
341.0
 41
1.24
 42
50.0
 43
0.0
 44
0.0
 50
0.0
 51
0.0
 71
     0
 72
   100
 73
     1
 74
     3
 75
     0
 76
     0
 77
     0
 78
     0
  0
ENDTAB
  0
TABLE
  2
LTYPE
  5
5
330
0
100
AcDbSymbolTable
 70
     1
  0
LTYPE
  5
14
330
5
100
AcDbSymbolTableRecord
100
AcDbLinetypeTableRecord
  2
BYBLOCK
 70
     0
  3

 72
    65
 73
     0
 40
0.0
  0
LTYPE
  5
15
330
5
100
AcDbSymbolTableRecord
100
AcDbLinetypeTableRecord
  2
BYLAYER
 70
     0
  3

 72
    65
 73
     0
 40
0.0
  0
LTYPE
  5
16
330
5
100
AcDbSymbolTableRecord
100
AcDbLinetypeTableRecord
  2
CONTINUOUS
 70
     0
  3
Solid line
 72
    65
 73
     0
 40
0.0
  0
ENDTAB
  0
TABLE
  2
LAYER
  5
2
100
AcDbSymbolTable
 70
2
  0
LAYER
  5
50
100
AcDbSymbolTableRecord
100
AcDbLayerTableRecord
  2
0
 70
0
  6
CONTINUOUS
  0
LAYER
  5
51
100
AcDbSymbolTableRecord
100
AcDbLayerTableRecord
  2
Layer_1
 70
0
  6
CONTINUOUS
  0
ENDTAB
  0
TABLE
  2
STYLE
  5
3
330
0
100
AcDbSymbolTable
 70
     1
  0
STYLE
  5
11
330
3
100
AcDbSymbolTableRecord
100
AcDbTextStyleTableRecord
  2
STANDARD
 70
     0
 40
0.0
 41
1.0
 50
0.0
 71
     0
 42
2.5
  3
txt
  4

  0
ENDTAB
  0
TABLE
  2
VIEW
  5
6
330
0
100
AcDbSymbolTable
 70
     0
  0
ENDTAB
  0
TABLE
  2
UCS
  5
7
330
0
100
AcDbSymbolTable
 70
     0
  0
ENDTAB
  0
TABLE
  2
APPID
  5
9
330
0
100
AcDbSymbolTable
 70
     2
  0
APPID
  5
12
330
9
100
AcDbSymbolTableRecord
100
AcDbRegAppTableRecord
  2
ACAD
 70
     0
  0
ENDTAB
  0
TABLE
  2
DIMSTYLE
  5
A
330
0
100
AcDbSymbolTable
 70
     1
  0
DIMSTYLE
105
27
330
A
100
AcDbSymbolTableRecord
100
AcDbDimStyleTableRecord
  2
ISO-25
 70
     0
  3

  4

  5

  6

  7

 40
1.0
 41
2.5
 42
0.625
 43
3.75
 44
1.25
 45
0.0
 46
0.0
 47
0.0
 48
0.0
140
2.5
141
2.5
142
0.0
143
0.03937007874016
144
1.0
145
0.0
146
1.0
147
0.625
 71
     0
 72
     0
 73
     0
 74
     0
 75
     0
 76
     0
 77
     1
 78
     8
170
     0
171
     3
172
     1
173
     0
174
     0
175
     0
176
     0
177
     0
178
     0
270
     2
271
     2
272
     2
273
     2
274
     3
340
11
275
     0
280
     0
281
     0
282
     0
283
     0
284
     8
285
     0
286
     0
287
     3
288
     0
  0
ENDTAB
  0
TABLE
  2
BLOCK_RECORD
  5
1
330
0
100
AcDbSymbolTable
 70
     1
  0
BLOCK_RECORD
  5
1F
330
1
100
AcDbSymbolTableRecord
100
AcDbBlockTableRecord
  2
*MODEL_SPACE
  0
BLOCK_RECORD
  5
1B
330
1
100
AcDbSymbolTableRecord
100
AcDbBlockTableRecord
  2
*PAPER_SPACE
  0
ENDTAB
  0
ENDSEC
  0
SECTION
  2
BLOCKS
  0
BLOCK
  5
20
330
1F
100
AcDbEntity
  8
0
100
AcDbBlockBegin
  2
*MODEL_SPACE
 70
     0
 10
0.0
 20
0.0
 30
0.0
  3
*MODEL_SPACE
  1

  0
ENDBLK
  5
21
330
1F
100
AcDbEntity
  8
0
100
AcDbBlockEnd
  0
BLOCK
  5
1C
330
1B
100
AcDbEntity
 67
     1
  8
0
100
AcDbBlockBegin
  2
*PAPER_SPACE
  1

  0
ENDBLK
  5
1D
330
1B
100
AcDbEntity
 67
     1
  8
0
100
AcDbBlockEnd
  0
ENDSEC
  0
SECTION
  2
ENTITIES
  0
SPLINE
  5
100
100
AcDbEntity
  8
Layer_1
 62
7
100
AcDbSpline
 70
8
 71
3
 72
8
 73
4
 74
0
 40
0
 40
0
 40
0
 40
0
 40
1
 40
1
 40
1
 40
1
 10
84.920001
 20
111.927800
 30
0.0
 10
85.020543
 20
111.372175
 30
0.0
 10
85.224272
 20
110.962072
 30
0.0
 10
85.525897
 20
110.705426
 30
0.0
  0
SPLINE
  5
101
100
AcDbEntity
  8
Layer_1
 62
7
100
AcDbSpline
 70
8
 71
3
 72
8
 73
4
 74
0
 40
0
 40
0
 40
0
 40
0
 40
1
 40
1
 40
1
 40
1
 10
85.525897
 20
110.705426
 30
0.0
 10
85.835459
 20
110.448781
 30
0.0
 10
86.237625
 20
110.316489
 30
0.0
 10
86.758853
 20
110.316489
 30
0.0
  0
SPLINE
  5
102
100
AcDbEntity
  8
Layer_1
 62
7
100
AcDbSpline
 70
8
 71
3
 72
8
 73
4
 74
0
 40
0
 40
0
 40
0
 40
0
 40
1
 40
1
 40
1
 40
1
 10
86.758853
 20
110.316489
 30
0.0
 10
87.309186
 20
110.316489
 30
0.0
 10
87.719290
 20
110.432906
 30
0.0
 10
87.997102
 20
110.665739
 30
0.0
  0
SPLINE
  5
103
100
AcDbEntity
  8
Layer_1
 62
7
100
AcDbSpline
 70
8
 71
3
 72
8
 73
4
 74
0
 40
0
 40
0
 40
0
 40
0
 40
1
 40
1
 40
1
 40
1
 10
87.997102
 20
110.665739
 30
0.0
 10
88.274914
 20
110.898572
 30
0.0
 10
88.412497
 20
111.171092
 30
0.0
 10
88.412497
 20
111.480654
 30
0.0
  0
SPLINE
  5
104
100
AcDbEntity
  8
Layer_1
 62
7
100
AcDbSpline
 70
8
 71
3
 72
8
 73
4
 74
0
 40
0
 40
0
 40
0
 40
0
 40
1
 40
1
 40
1
 40
1
 10
88.412497
 20
111.480654
 30
0.0
 10
88.412497
 20
111.676446
 30
0.0
 10
88.351643
 20
111.848425
 30
0.0
 10
88.235226
 20
111.991300
 30
0.0
  0
SPLINE
  5
105
100
AcDbEntity
  8
Layer_1
 62
7
100
AcDbSpline
 70
8
 71
3
 72
8
 73
4
 74
0
 40
0
 40
0
 40
0
 40
0
 40
1
 40
1
 40
1
 40
1
 10
88.235226
 20
111.991300
 30
0.0
 10
88.118810
 20
112.131529
 30
0.0
 10
87.912435
 20
112.247945
 30
0.0
 10
87.624040
 20
112.356424
 30
0.0
  0
SPLINE
  5
106
100
AcDbEntity
  8
Layer_1
 62
7
100
AcDbSpline
 70
8
 71
3
 72
8
 73
4
 74
0
 40
0
 40
0
 40
0
 40
0
 40
1
 40
1
 40
1
 40
1
 10
87.624040
 20
112.356424
 30
0.0
 10
87.428248
 20
112.427862
 30
0.0
 10
86.973166
 20
112.549570
 30
0.0
 10
86.258791
 20
112.724195
 30
0.0
  0
SPLINE
  5
107
100
AcDbEntity
  8
Layer_1
 62
7
100
AcDbSpline
 70
8
 71
3
 72
8
 73
4
 74
0
 40
0
 40
0
 40
0
 40
0
 40
1
 40
1
 40
1
 40
1
 10
86.258791
 20
112.724195
 30
0.0
 10
85.348626
 20
112.951736
 30
0.0
 10
84.708335
 20
113.229548
 30
0.0
 10
84.337919
 20
113.557631
 30
0.0
  0
SPLINE
  5
108
100
AcDbEntity
  8
Layer_1
 62
7
100
AcDbSpline
 70
8
 71
3
 72
8
 73
4
 74
0
 40
0
 40
0
 40
0
 40
0
 40
1
 40
1
 40
1
 40
1
 10
84.337919
 20
113.557631
 30
0.0
 10
83.821982
 20
114.023297
 30
0.0
 10
83.560045
 20
114.584213
 30
0.0
 10
83.560045
 20
115.256254
 30
0.0
  0
SPLINE
  5
109
100
AcDbEntity
  8
Layer_1
 62
7
100
AcDbSpline
 70
8
 71
3
 72
8
 73
4
 74
0
 40
0
 40
0
 40
0
 40
0
 40
1
 40
1
 40
1
 40
1
 10
83.560045
 20
115.256254
 30
0.0
 10
83.560045
 20
115.684878
 30
0.0
 10
83.681753
 20
116.084399
 30
0.0
 10
83.925169
 20
116.460107
 30
0.0
  0
SPLINE
  5
10a
100
AcDbEntity
  8
Layer_1
 62
7
100
AcDbSpline
 70
8
 71
3
 72
8
 73
4
 74
0
 40
0
 40
0
 40
0
 40
0
 40
1
 40
1
 40
1
 40
1
 10
83.925169
 20
116.460107
 30
0.0
 10
84.168586
 20
116.835814
 30
0.0
 10
84.515189
 20
117.116272
 30
0.0
 10
84.975564
 20
117.314710
 30
0.0
  0
SPLINE
  5
10b
100
AcDbEntity
  8
Layer_1
 62
7
100
AcDbSpline
 70
8
 71
3
 72
8
 73
4
 74
0
 40
0
 40
0
 40
0
 40
0
 40
1
 40
1
 40
1
 40
1
 10
84.975564
 20
117.314710
 30
0.0
 10
85.430647
 20
117.510501
 30
0.0
 10
85.986271
 20
117.608397
 30
0.0
 10
86.634499
 20
117.608397
 30
0.0
  0
SPLINE
  5
10c
100
AcDbEntity
  8
Layer_1
 62
7
100
AcDbSpline
 70
8
 71
3
 72
8
 73
4
 74
0
 40
0
 40
0
 40
0
 40
0
 40
1
 40
1
 40
1
 40
1
 10
86.634499
 20
117.608397
 30
0.0
 10
87.690185
 20
117.608397
 30
0.0
 10
88.489226
 20
117.375564
 30
0.0
 10
89.021038
 20
116.909898
 30
0.0
  0
SPLINE
  5
10d
100
AcDbEntity
  8
Layer_1
 62
7
100
AcDbSpline
 70
8
 71
3
 72
8
 73
4
 74
0
 40
0
 40
0
 40
0
 40
0
 40
1
 40
1
 40
1
 40
1
 10
89.021038
 20
116.909898
 30
0.0
 10
89.555496
 20
116.444232
 30
0.0
 10
89.835954
 20
115.827753
 30
0.0
 10
89.859766
 20
115.055171
 30
0.0
  0
LWPOLYLINE
  5
10e
100
AcDbEntity
  8
Layer_1
 62
7
100
AcDbPolyline
 90
2
 70
0
 10
83.266358
 20
111.766404
 30
0.0
 10
84.920001
 20
111.927800
 30
0.0
  0
SPLINE
  5
10f
100
AcDbEntity
  8
Layer_1
 62
7
100
AcDbSpline
 70
8
 71
3
 72
8
 73
4
 74
0
 40
0
 40
0
 40
0
 40
0
 40
1
 40
1
 40
1
 40
1
 10
88.161143
 20
114.978442
 30
0.0
 10
88.089706
 20
115.407066
 30
0.0
 10
87.933602
 20
115.721920
 30
0.0
 10
87.690185
 20
115.912420
 30
0.0
  0
SPLINE
  5
110
100
AcDbEntity
  8
Layer_1
 62
7
100
AcDbSpline
 70
8
 71
3
 72
8
 73
4
 74
0
 40
0
 40
0
 40
0
 40
0
 40
1
 40
1
 40
1
 40
1
 10
87.690185
 20
115.912420
 30
0.0
 10
87.446769
 20
116.102919
 30
0.0
 10
87.094874
 20
116.195524
 30
0.0
 10
86.613333
 20
116.195524
 30
0.0
  0
SPLINE
  5
111
100
AcDbEntity
  8
Layer_1
 62
7
100
AcDbSpline
 70
8
 71
3
 72
8
 73
4
 74
0
 40
0
 40
0
 40
0
 40
0
 40
1
 40
1
 40
1
 40
1
 10
86.613333
 20
116.195524
 30
0.0
 10
86.131792
 20
116.195524
 30
0.0
 10
85.734917
 20
116.094982
 30
0.0
 10
85.451813
 20
115.891253
 30
0.0
  0
SPLINE
  5
112
100
AcDbEntity
  8
Layer_1
 62
7
100
AcDbSpline
 70
8
 71
3
 72
8
 73
4
 74
0
 40
0
 40
0
 40
0
 40
0
 40
1
 40
1
 40
1
 40
1
 10
85.451813
 20
115.891253
 30
0.0
 10
85.269251
 20
115.758962
 30
0.0
 10
85.184584
 20
115.586983
 30
0.0
 10
85.184584
 20
115.364733
 30
0.0
  0
SPLINE
  5
113
100
AcDbEntity
  8
Layer_1
 62
7
100
AcDbSpline
 70
8
 71
3
 72
8
 73
4
 74
0
 40
0
 40
0
 40
0
 40
0
 40
1
 40
1
 40
1
 40
1
 10
85.184584
 20
115.364733
 30
0.0
 10
85.184584
 20
115.168941
 30
0.0
 10
85.269251
 20
114.996963
 30
0.0
 10
85.438584
 20
114.854088
 30
0.0
  0
SPLINE
  5
114
100
AcDbEntity
  8
Layer_1
 62
7
100
AcDbSpline
 70
8
 71
3
 72
8
 73
4
 74
0
 40
0
 40
0
 40
0
 40
0
 40
1
 40
1
 40
1
 40
1
 10
85.438584
 20
114.854088
 30
0.0
 10
85.655542
 20
114.671525
 30
0.0
 10
86.176771
 20
114.486317
 30
0.0
 10
86.999624
 20
114.293172
 30
0.0
  0
SPLINE
  5
115
100
AcDbEntity
  8
Layer_1
 62
7
100
AcDbSpline
 70
8
 71
3
 72
8
 73
4
 74
0
 40
0
 40
0
 40
0
 40
0
 40
1
 40
1
 40
1
 40
1
 10
86.999624
 20
114.293172
 30
0.0
 10
87.827769
 20
114.097380
 30
0.0
 10
88.438955
 20
113.893651
 30
0.0
 10
88.833184
 20
113.687277
 30
0.0
  0
SPLINE
  5
116
100
AcDbEntity
  8
Layer_1
 62
7
100
AcDbSpline
 70
8
 71
3
 72
8
 73
4
 74
0
 40
0
 40
0
 40
0
 40
0
 40
1
 40
1
 40
1
 40
1
 10
88.833184
 20
113.687277
 30
0.0
 10
89.232704
 20
113.480902
 30
0.0
 10
89.539621
 20
113.192506
 30
0.0
 10
89.761870
 20
112.827382
 30
0.0
  0
SPLINE
  5
117
100
AcDbEntity
  8
Layer_1
 62
7
100
AcDbSpline
 70
8
 71
3
 72
8
 73
4
 74
0
 40
0
 40
0
 40
0
 40
0
 40
1
 40
1
 40
1
 40
1
 10
89.761870
 20
112.827382
 30
0.0
 10
89.984120
 20
112.462257
 30
0.0
 10
90.095245
 20
112.017758
 30
0.0
 10
90.095245
 20
111.483300
 30
0.0
  0
SPLINE
  5
118
100
AcDbEntity
  8
Layer_1
 62
7
100
AcDbSpline
 70
8
 71
3
 72
8
 73
4
 74
0
 40
0
 40
0
 40
0
 40
0
 40
1
 40
1
 40
1
 40
1
 10
90.095245
 20
111.483300
 30
0.0
 10
90.095245
 20
111.004405
 30
0.0
 10
89.957662
 20
110.549322
 30
0.0
 10
89.695725
 20
110.128635
 30
0.0
  0
SPLINE
  5
119
100
AcDbEntity
  8
Layer_1
 62
7
100
AcDbSpline
 70
8
 71
3
 72
8
 73
4
 74
0
 40
0
 40
0
 40
0
 40
0
 40
1
 40
1
 40
1
 40
1
 10
89.695725
 20
110.128635
 30
0.0
 10
89.423204
 20
109.707948
 30
0.0
 10
89.044850
 20
109.395740
 30
0.0
 10
88.558018
 20
109.189366
 30
0.0
  0
SPLINE
  5
11a
100
AcDbEntity
  8
Layer_1
 62
7
100
AcDbSpline
 70
8
 71
3
 72
8
 73
4
 74
0
 40
0
 40
0
 40
0
 40
0
 40
1
 40
1
 40
1
 40
1
 10
88.558018
 20
109.189366
 30
0.0
 10
88.068539
 20
108.988283
 30
0.0
 10
87.457352
 20
108.879804
 30
0.0
 10
86.729749
 20
108.879804
 30
0.0
  0
SPLINE
  5
11b
100
AcDbEntity
  8
Layer_1
 62
7
100
AcDbSpline
 70
8
 71
3
 72
8
 73
4
 74
0
 40
0
 40
0
 40
0
 40
0
 40
1
 40
1
 40
1
 40
1
 10
86.729749
 20
108.879804
 30
0.0
 10
85.663480
 20
108.879804
 30
0.0
 10
84.845918
 20
109.123220
 30
0.0
 10
84.274419
 20
109.617990
 30
0.0
  0
SPLINE
  5
11c
100
AcDbEntity
  8
Layer_1
 62
7
100
AcDbSpline
 70
8
 71
3
 72
8
 73
4
 74
0
 40
0
 40
0
 40
0
 40
0
 40
1
 40
1
 40
1
 40
1
 10
84.274419
 20
109.617990
 30
0.0
 10
83.702920
 20
110.107469
 30
0.0
 10
83.364253
 20
110.827134
 30
0.0
 10
83.253129
 20
111.771696
 30
0.0
  0
LWPOLYLINE
  5
11d
100
AcDbEntity
  8
Layer_1
 62
7
100
AcDbPolyline
 90
2
 70
0
 10
89.859766
 20
115.055171
 30
0.0
 10
88.161143
 20
114.978442
 30
0.0
  0
LWPOLYLINE
  5
11e
100
AcDbEntity
  8
Layer_1
 62
7
100
AcDbPolyline
 90
3
 70
0
 10
83.253129
 20
111.771696
 30
0.0
 10
83.269004
 20
111.766404
 30
0.0
 10
83.266358
 20
111.766404
 30
0.0
  0
SPLINE
  5
11f
100
AcDbEntity
  8
Layer_1
 62
7
100
AcDbSpline
 70
8
 71
3
 72
8
 73
4
 74
0
 40
0
 40
0
 40
0
 40
0
 40
1
 40
1
 40
1
 40
1
 10
123.173412
 20
111.602363
 30
0.0
 10
122.919412
 20
110.681614
 30
0.0
 10
122.501371
 20
109.998990
 30
0.0
 10
121.908705
 20
109.549199
 30
0.0
  0
SPLINE
  5
120
100
AcDbEntity
  8
Layer_1
 62
7
100
AcDbSpline
 70
8
 71
3
 72
8
 73
4
 74
0
 40
0
 40
0
 40
0
 40
0
 40
1
 40
1
 40
1
 40
1
 10
121.908705
 20
109.549199
 30
0.0
 10
121.321331
 20
109.104699
 30
0.0
 10
120.575207
 20
108.882449
 30
0.0
 10
119.670333
 20
108.882449
 30
0.0
  0
SPLINE
  5
121
100
AcDbEntity
  8
Layer_1
 62
7
100
AcDbSpline
 70
8
 71
3
 72
8
 73
4
 74
0
 40
0
 40
0
 40
0
 40
0
 40
1
 40
1
 40
1
 40
1
 10
119.670333
 20
108.882449
 30
0.0
 10
118.553792
 20
108.882449
 30
0.0
 10
117.627752
 20
109.266095
 30
0.0
 10
116.910732
 20
110.030740
 30
0.0
  0
SPLINE
  5
122
100
AcDbEntity
  8
Layer_1
 62
7
100
AcDbSpline
 70
8
 71
3
 72
8
 73
4
 74
0
 40
0
 40
0
 40
0
 40
0
 40
1
 40
1
 40
1
 40
1
 10
116.910732
 20
110.030740
 30
0.0
 10
116.188420
 20
110.792739
 30
0.0
 10
115.828587
 20
111.840487
 30
0.0
 10
115.828587
 20
113.163402
 30
0.0
  0
SPLINE
  5
123
100
AcDbEntity
  8
Layer_1
 62
7
100
AcDbSpline
 70
8
 71
3
 72
8
 73
4
 74
0
 40
0
 40
0
 40
0
 40
0
 40
1
 40
1
 40
1
 40
1
 10
115.828587
 20
113.163402
 30
0.0
 10
115.828587
 20
114.563046
 30
0.0
 10
116.193712
 20
115.655774
 30
0.0
 10
116.916024
 20
116.428357
 30
0.0
  0
SPLINE
  5
124
100
AcDbEntity
  8
Layer_1
 62
7
100
AcDbSpline
 70
8
 71
3
 72
8
 73
4
 74
0
 40
0
 40
0
 40
0
 40
0
 40
1
 40
1
 40
1
 40
1
 10
116.916024
 20
116.428357
 30
0.0
 10
117.638335
 20
117.200939
 30
0.0
 10
118.593480
 20
117.589876
 30
0.0
 10
119.770874
 20
117.589876
 30
0.0
  0
SPLINE
  5
125
100
AcDbEntity
  8
Layer_1
 62
7
100
AcDbSpline
 70
8
 71
3
 72
8
 73
4
 74
0
 40
0
 40
0
 40
0
 40
0
 40
1
 40
1
 40
1
 40
1
 10
119.770874
 20
117.589876
 30
0.0
 10
120.802748
 20
117.589876
 30
0.0
 10
121.641476
 20
117.285605
 30
0.0
 10
122.281767
 20
116.674419
 30
0.0
  0
SPLINE
  5
126
100
AcDbEntity
  8
Layer_1
 62
7
100
AcDbSpline
 70
8
 71
3
 72
8
 73
4
 74
0
 40
0
 40
0
 40
0
 40
0
 40
1
 40
1
 40
1
 40
1
 10
122.281767
 20
116.674419
 30
0.0
 10
122.665412
 20
116.314586
 30
0.0
 10
122.948516
 20
115.801295
 30
0.0
 10
123.141662
 20
115.123962
 30
0.0
  0
LWPOLYLINE
  5
127
100
AcDbEntity
  8
Layer_1
 62
7
100
AcDbPolyline
 90
2
 70
0
 10
121.525059
 20
112.123591
 30
0.0
 10
123.173412
 20
111.602363
 30
0.0
  0
SPLINE
  5
128
100
AcDbEntity
  8
Layer_1
 62
7
100
AcDbSpline
 70
8
 71
3
 72
8
 73
4
 74
0
 40
0
 40
0
 40
0
 40
0
 40
1
 40
1
 40
1
 40
1
 10
121.458914
 20
114.724442
 30
0.0
 10
121.358372
 20
115.158358
 30
0.0
 10
121.149352
 20
115.507608
 30
0.0
 10
120.837144
 20
115.761607
 30
0.0
  0
SPLINE
  5
129
100
AcDbEntity
  8
Layer_1
 62
7
100
AcDbSpline
 70
8
 71
3
 72
8
 73
4
 74
0
 40
0
 40
0
 40
0
 40
0
 40
1
 40
1
 40
1
 40
1
 10
120.837144
 20
115.761607
 30
0.0
 10
120.524936
 20
116.015607
 30
0.0
 10
120.133353
 20
116.139961
 30
0.0
 10
119.683562
 20
116.139961
 30
0.0
  0
SPLINE
  5
12a
100
AcDbEntity
  8
Layer_1
 62
7
100
AcDbSpline
 70
8
 71
3
 72
8
 73
4
 74
0
 40
0
 40
0
 40
0
 40
0
 40
1
 40
1
 40
1
 40
1
 10
119.683562
 20
116.139961
 30
0.0
 10
119.061792
 20
116.139961
 30
0.0
 10
118.551147
 20
115.917711
 30
0.0
 10
118.167501
 20
115.467920
 30
0.0
  0
SPLINE
  5
12b
100
AcDbEntity
  8
Layer_1
 62
7
100
AcDbSpline
 70
8
 71
3
 72
8
 73
4
 74
0
 40
0
 40
0
 40
0
 40
0
 40
1
 40
1
 40
1
 40
1
 10
118.167501
 20
115.467920
 30
0.0
 10
117.778564
 20
115.018129
 30
0.0
 10
117.580127
 20
114.295818
 30
0.0
 10
117.580127
 20
113.290402
 30
0.0
  0
SPLINE
  5
12c
100
AcDbEntity
  8
Layer_1
 62
7
100
AcDbSpline
 70
8
 71
3
 72
8
 73
4
 74
0
 40
0
 40
0
 40
0
 40
0
 40
1
 40
1
 40
1
 40
1
 10
117.580127
 20
113.290402
 30
0.0
 10
117.580127
 20
112.224133
 30
0.0
 10
117.773273
 20
111.464779
 30
0.0
 10
118.156918
 20
111.014988
 30
0.0
  0
SPLINE
  5
12d
100
AcDbEntity
  8
Layer_1
 62
7
100
AcDbSpline
 70
8
 71
3
 72
8
 73
4
 74
0
 40
0
 40
0
 40
0
 40
0
 40
1
 40
1
 40
1
 40
1
 10
118.156918
 20
111.014988
 30
0.0
 10
118.540563
 20
110.559906
 30
0.0
 10
119.035333
 20
110.337656
 30
0.0
 10
119.651812
 20
110.337656
 30
0.0
  0
SPLINE
  5
12e
100
AcDbEntity
  8
Layer_1
 62
7
100
AcDbSpline
 70
8
 71
3
 72
8
 73
4
 74
0
 40
0
 40
0
 40
0
 40
0
 40
1
 40
1
 40
1
 40
1
 10
119.651812
 20
110.337656
 30
0.0
 10
120.101603
 20
110.337656
 30
0.0
 10
120.490540
 20
110.477885
 30
0.0
 10
120.813331
 20
110.766280
 30
0.0
  0
SPLINE
  5
12f
100
AcDbEntity
  8
Layer_1
 62
7
100
AcDbSpline
 70
8
 71
3
 72
8
 73
4
 74
0
 40
0
 40
0
 40
0
 40
0
 40
1
 40
1
 40
1
 40
1
 10
120.813331
 20
110.766280
 30
0.0
 10
121.136122
 20
111.054676
 30
0.0
 10
121.374247
 20
111.504467
 30
0.0
 10
121.517122
 20
112.120945
 30
0.0
  0
LWPOLYLINE
  5
130
100
AcDbEntity
  8
Layer_1
 62
7
100
AcDbPolyline
 90
2
 70
0
 10
123.141662
 20
115.123962
 30
0.0
 10
121.458914
 20
114.724442
 30
0.0
  0
SPLINE
  5
131
100
AcDbEntity
  8
Layer_1
 62
7
100
AcDbSpline
 70
8
 71
3
 72
8
 73
4
 74
0
 40
0
 40
0
 40
0
 40
0
 40
1
 40
1
 40
1
 40
1
 10
28.341573
 20
132.890711
 30
0.0
 10
28.508260
 20
131.718608
 30
0.0
 10
28.831051
 20
130.837547
 30
0.0
 10
29.317884
 20
130.258110
 30
0.0
  0
SPLINE
  5
132
100
AcDbEntity
  8
Layer_1
 62
7
100
AcDbSpline
 70
8
 71
3
 72
8
 73
4
 74
0
 40
0
 40
0
 40
0
 40
0
 40
1
 40
1
 40
1
 40
1
 10
29.317884
 20
130.258110
 30
0.0
 10
30.206883
 20
129.202424
 30
0.0
 10
31.733527
 20
128.670612
 30
0.0
 10
33.892524
 20
128.670612
 30
0.0
  0
SPLINE
  5
133
100
AcDbEntity
  8
Layer_1
 62
7
100
AcDbSpline
 70
8
 71
3
 72
8
 73
4
 74
0
 40
0
 40
0
 40
0
 40
0
 40
1
 40
1
 40
1
 40
1
 10
33.892524
 20
128.670612
 30
0.0
 10
35.186335
 20
128.670612
 30
0.0
 10
36.236729
 20
128.810841
 30
0.0
 10
37.041062
 20
129.091299
 30
0.0
  0
SPLINE
  5
134
100
AcDbEntity
  8
Layer_1
 62
7
100
AcDbSpline
 70
8
 71
3
 72
8
 73
4
 74
0
 40
0
 40
0
 40
0
 40
0
 40
1
 40
1
 40
1
 40
1
 10
37.041062
 20
129.091299
 30
0.0
 10
38.572997
 20
129.625757
 30
0.0
 10
39.334996
 20
130.617943
 30
0.0
 10
39.334996
 20
132.073149
 30
0.0
  0
SPLINE
  5
135
100
AcDbEntity
  8
Layer_1
 62
7
100
AcDbSpline
 70
8
 71
3
 72
8
 73
4
 74
0
 40
0
 40
0
 40
0
 40
0
 40
1
 40
1
 40
1
 40
1
 10
39.334996
 20
132.073149
 30
0.0
 10
39.334996
 20
132.922461
 30
0.0
 10
38.961934
 20
133.578627
 30
0.0
 10
38.207873
 20
134.044293
 30
0.0
  0
SPLINE
  5
136
100
AcDbEntity
  8
Layer_1
 62
7
100
AcDbSpline
 70
8
 71
3
 72
8
 73
4
 74
0
 40
0
 40
0
 40
0
 40
0
 40
1
 40
1
 40
1
 40
1
 10
38.207873
 20
134.044293
 30
0.0
 10
37.459103
 20
134.499375
 30
0.0
 10
36.268479
 20
134.898896
 30
0.0
 10
34.643940
 20
135.248145
 30
0.0
  0
LWPOLYLINE
  5
137
100
AcDbEntity
  8
Layer_1
 62
7
100
AcDbPolyline
 90
3
 70
0
 10
121.517122
 20
112.120945
 30
0.0
 10
121.522414
 20
112.120945
 30
0.0
 10
121.525059
 20
112.123591
 30
0.0
  0
SPLINE
  5
138
100
AcDbEntity
  8
Layer_1
 62
7
100
AcDbSpline
 70
8
 71
3
 72
8
 73
4
 74
0
 40
0
 40
0
 40
0
 40
0
 40
1
 40
1
 40
1
 40
1
 10
31.863172
 20
135.854040
 30
0.0
 10
29.130030
 20
136.459935
 30
0.0
 10
27.254137
 20
137.118747
 30
0.0
 10
26.232846
 20
137.825184
 30
0.0
  0
SPLINE
  5
139
100
AcDbEntity
  8
Layer_1
 62
7
100
AcDbSpline
 70
8
 71
3
 72
8
 73
4
 74
0
 40
0
 40
0
 40
0
 40
0
 40
1
 40
1
 40
1
 40
1
 10
26.232846
 20
137.825184
 30
0.0
 10
24.499828
 20
139.005224
 30
0.0
 10
23.637287
 20
140.854659
 30
0.0
 10
23.637287
 20
143.378781
 30
0.0
  0
SPLINE
  5
13a
100
AcDbEntity
  8
Layer_1
 62
7
100
AcDbSpline
 70
8
 71
3
 72
8
 73
4
 74
0
 40
0
 40
0
 40
0
 40
0
 40
1
 40
1
 40
1
 40
1
 10
23.637287
 20
143.378781
 30
0.0
 10
23.637287
 20
145.678007
 30
0.0
 10
24.481307
 20
147.588296
 30
0.0
 10
26.174638
 20
149.109649
 30
0.0
  0
SPLINE
  5
13b
100
AcDbEntity
  8
Layer_1
 62
7
100
AcDbSpline
 70
8
 71
3
 72
8
 73
4
 74
0
 40
0
 40
0
 40
0
 40
0
 40
1
 40
1
 40
1
 40
1
 10
26.174638
 20
149.109649
 30
0.0
 10
27.865323
 20
150.631001
 30
0.0
 10
30.352404
 20
151.393000
 30
0.0
 10
33.633233
 20
151.393000
 30
0.0
  0
SPLINE
  5
13c
100
AcDbEntity
  8
Layer_1
 62
7
100
AcDbSpline
 70
8
 71
3
 72
8
 73
4
 74
0
 40
0
 40
0
 40
0
 40
0
 40
1
 40
1
 40
1
 40
1
 10
33.633233
 20
151.393000
 30
0.0
 10
36.371667
 20
151.393000
 30
0.0
 10
38.713226
 20
150.675980
 30
0.0
 10
40.647328
 20
149.239294
 30
0.0
  0
SPLINE
  5
13d
100
AcDbEntity
  8
Layer_1
 62
7
100
AcDbSpline
 70
8
 71
3
 72
8
 73
4
 74
0
 40
0
 40
0
 40
0
 40
0
 40
1
 40
1
 40
1
 40
1
 10
40.647328
 20
149.239294
 30
0.0
 10
42.578784
 20
147.805255
 30
0.0
 10
43.594783
 20
145.722986
 30
0.0
 10
43.690033
 20
142.992490
 30
0.0
  0
LWPOLYLINE
  5
13e
100
AcDbEntity
  8
Layer_1
 62
7
100
AcDbPolyline
 90
2
 70
0
 10
34.643940
 20
135.248145
 30
0.0
 10
31.863172
 20
135.854040
 30
0.0
  0
SPLINE
  5
13f
100
AcDbEntity
  8
Layer_1
 62
7
100
AcDbSpline
 70
8
 71
3
 72
8
 73
4
 74
0
 40
0
 40
0
 40
0
 40
0
 40
1
 40
1
 40
1
 40
1
 10
38.530664
 20
142.992490
 30
0.0
 10
38.435414
 20
144.535009
 30
0.0
 10
37.742207
 20
145.635674
 30
0.0
 10
36.458979
 20
146.286548
 30
0.0
  0
SPLINE
  5
140
100
AcDbEntity
  8
Layer_1
 62
7
100
AcDbSpline
 70
8
 71
3
 72
8
 73
4
 74
0
 40
0
 40
0
 40
0
 40
0
 40
1
 40
1
 40
1
 40
1
 10
36.458979
 20
146.286548
 30
0.0
 10
35.604376
 20
146.715173
 30
0.0
 10
34.538107
 20
146.929485
 30
0.0
 10
33.265462
 20
146.929485
 30
0.0
  0
SPLINE
  5
141
100
AcDbEntity
  8
Layer_1
 62
7
100
AcDbSpline
 70
8
 71
3
 72
8
 73
4
 74
0
 40
0
 40
0
 40
0
 40
0
 40
1
 40
1
 40
1
 40
1
 10
33.265462
 20
146.929485
 30
0.0
 10
31.849943
 20
146.929485
 30
0.0
 10
30.712236
 20
146.651673
 30
0.0
 10
29.868217
 20
146.096048
 30
0.0
  0
SPLINE
  5
142
100
AcDbEntity
  8
Layer_1
 62
7
100
AcDbSpline
 70
8
 71
3
 72
8
 73
4
 74
0
 40
0
 40
0
 40
0
 40
0
 40
1
 40
1
 40
1
 40
1
 10
29.868217
 20
146.096048
 30
0.0
 10
29.024197
 20
145.535132
 30
0.0
 10
28.600864
 20
144.757258
 30
0.0
 10
28.600864
 20
143.762426
 30
0.0
  0
SPLINE
  5
143
100
AcDbEntity
  8
Layer_1
 62
7
100
AcDbSpline
 70
8
 71
3
 72
8
 73
4
 74
0
 40
0
 40
0
 40
0
 40
0
 40
1
 40
1
 40
1
 40
1
 10
28.600864
 20
143.762426
 30
0.0
 10
28.600864
 20
142.841677
 30
0.0
 10
29.016259
 20
142.159053
 30
0.0
 10
29.849696
 20
141.706616
 30
0.0
  0
SPLINE
  5
144
100
AcDbEntity
  8
Layer_1
 62
7
100
AcDbSpline
 70
8
 71
3
 72
8
 73
4
 74
0
 40
0
 40
0
 40
0
 40
0
 40
1
 40
1
 40
1
 40
1
 10
29.849696
 20
141.706616
 30
0.0
 10
30.384153
 20
141.402346
 30
0.0
 10
31.521860
 20
141.050451
 30
0.0
 10
33.260171
 20
140.645639
 30
0.0
  0
LWPOLYLINE
  5
145
100
AcDbEntity
  8
Layer_1
 62
7
100
AcDbPolyline
 90
2
 70
0
 10
43.690033
 20
142.992490
 30
0.0
 10
38.530664
 20
142.992490
 30
0.0
  0
SPLINE
  5
146
100
AcDbEntity
  8
Layer_1
 62
7
100
AcDbSpline
 70
8
 71
3
 72
8
 73
4
 74
0
 40
0
 40
0
 40
0
 40
0
 40
1
 40
1
 40
1
 40
1
 10
37.768665
 20
139.584661
 30
0.0
 10
39.745100
 20
139.118995
 30
0.0
 10
41.226765
 20
138.497225
 30
0.0
 10
42.211014
 20
137.719351
 30
0.0
  0
SPLINE
  5
147
100
AcDbEntity
  8
Layer_1
 62
7
100
AcDbSpline
 70
8
 71
3
 72
8
 73
4
 74
0
 40
0
 40
0
 40
0
 40
0
 40
1
 40
1
 40
1
 40
1
 10
42.211014
 20
137.719351
 30
0.0
 10
43.742949
 20
136.510206
 30
0.0
 10
44.504948
 20
134.763958
 30
0.0
 10
44.504948
 20
132.472670
 30
0.0
  0
SPLINE
  5
148
100
AcDbEntity
  8
Layer_1
 62
7
100
AcDbSpline
 70
8
 71
3
 72
8
 73
4
 74
0
 40
0
 40
0
 40
0
 40
0
 40
1
 40
1
 40
1
 40
1
 10
44.504948
 20
132.472670
 30
0.0
 10
44.504948
 20
130.181381
 30
0.0
 10
43.594783
 20
128.175842
 30
0.0
 10
41.785035
 20
126.625385
 30
0.0
  0
SPLINE
  5
149
100
AcDbEntity
  8
Layer_1
 62
7
100
AcDbSpline
 70
8
 71
3
 72
8
 73
4
 74
0
 40
0
 40
0
 40
0
 40
0
 40
1
 40
1
 40
1
 40
1
 10
41.785035
 20
126.625385
 30
0.0
 10
39.969996
 20
125.074929
 30
0.0
 10
37.408832
 20
124.299701
 30
0.0
 10
34.098899
 20
124.299701
 30
0.0
  0
SPLINE
  5
14a
100
AcDbEntity
  8
Layer_1
 62
7
100
AcDbSpline
 70
8
 71
3
 72
8
 73
4
 74
0
 40
0
 40
0
 40
0
 40
0
 40
1
 40
1
 40
1
 40
1
 10
34.098899
 20
124.299701
 30
0.0
 10
30.788965
 20
124.299701
 30
0.0
 10
28.058469
 20
125.061700
 30
0.0
 10
26.124367
 20
126.588344
 30
0.0
  0
SPLINE
  5
14b
100
AcDbEntity
  8
Layer_1
 62
7
100
AcDbSpline
 70
8
 71
3
 72
8
 73
4
 74
0
 40
0
 40
0
 40
0
 40
0
 40
1
 40
1
 40
1
 40
1
 10
26.124367
 20
126.588344
 30
0.0
 10
24.182328
 20
128.114988
 30
0.0
 10
23.216600
 20
130.218423
 30
0.0
 10
23.216600
 20
132.890711
 30
0.0
  0
LWPOLYLINE
  5
14c
100
AcDbEntity
  8
Layer_1
 62
7
100
AcDbPolyline
 90
2
 70
0
 10
33.260171
 20
140.645639
 30
0.0
 10
37.768665
 20
139.584661
 30
0.0
  0
SPLINE
  5
14d
100
AcDbEntity
  8
Layer_1
 62
7
100
AcDbSpline
 70
8
 71
3
 72
8
 73
4
 74
0
 40
0
 40
0
 40
0
 40
0
 40
1
 40
1
 40
1
 40
1
 10
61.758406
 20
142.862844
 30
0.0
 10
63.001946
 20
141.836262
 30
0.0
 10
63.623716
 20
140.129702
 30
0.0
 10
63.623716
 20
137.748455
 30
0.0
  0
LWPOLYLINE
  5
14e
100
AcDbEntity
  8
Layer_1
 62
7
100
AcDbPolyline
 90
3
 70
0
 10
23.216600
 20
132.890711
 30
0.0
 10
28.341573
 20
132.890711
 30
0.0
 10
28.341573
 20
132.890711
 30
0.0
  0
SPLINE
  5
14f
100
AcDbEntity
  8
Layer_1
 62
7
100
AcDbSpline
 70
8
 71
3
 72
8
 73
4
 74
0
 40
0
 40
0
 40
0
 40
0
 40
1
 40
1
 40
1
 40
1
 10
58.535785
 20
136.515498
 30
0.0
 10
58.535785
 20
137.515622
 30
0.0
 10
58.403493
 20
138.280267
 30
0.0
 10
58.136264
 20
138.814724
 30
0.0
  0
SPLINE
  5
150
100
AcDbEntity
  8
Layer_1
 62
7
100
AcDbSpline
 70
8
 71
3
 72
8
 73
4
 74
0
 40
0
 40
0
 40
0
 40
0
 40
1
 40
1
 40
1
 40
1
 10
58.136264
 20
138.814724
 30
0.0
 10
57.652077
 20
139.791035
 30
0.0
 10
56.726037
 20
140.280514
 30
0.0
 10
55.366080
 20
140.280514
 30
0.0
  0
SPLINE
  5
151
100
AcDbEntity
  8
Layer_1
 62
7
100
AcDbSpline
 70
8
 71
3
 72
8
 73
4
 74
0
 40
0
 40
0
 40
0
 40
0
 40
1
 40
1
 40
1
 40
1
 10
55.366080
 20
140.280514
 30
0.0
 10
53.693916
 20
140.280514
 30
0.0
 10
52.545626
 20
139.568786
 30
0.0
 10
51.923856
 20
138.137392
 30
0.0
  0
SPLINE
  5
152
100
AcDbEntity
  8
Layer_1
 62
7
100
AcDbSpline
 70
8
 71
3
 72
8
 73
4
 74
0
 40
0
 40
0
 40
0
 40
0
 40
1
 40
1
 40
1
 40
1
 10
51.923856
 20
138.137392
 30
0.0
 10
51.601064
 20
137.383330
 30
0.0
 10
51.439669
 20
136.420248
 30
0.0
 10
51.439669
 20
135.245500
 30
0.0
  0
LWPOLYLINE
  5
153
100
AcDbEntity
  8
Layer_1
 62
7
100
AcDbPolyline
 90
4
 70
0
 10
63.623716
 20
137.748455
 30
0.0
 10
63.623716
 20
124.955867
 30
0.0
 10
58.535785
 20
124.955867
 30
0.0
 10
58.535785
 20
136.515498
 30
0.0
  0
SPLINE
  5
154
100
AcDbEntity
  8
Layer_1
 62
7
100
AcDbSpline
 70
8
 71
3
 72
8
 73
4
 74
0
 40
0
 40
0
 40
0
 40
0
 40
1
 40
1
 40
1
 40
1
 10
51.283565
 20
141.148346
 30
0.0
 10
51.921210
 20
142.124658
 30
0.0
 10
52.521813
 20
142.825802
 30
0.0
 10
53.088021
 20
143.257073
 30
0.0
  0
SPLINE
  5
155
100
AcDbEntity
  8
Layer_1
 62
7
100
AcDbSpline
 70
8
 71
3
 72
8
 73
4
 74
0
 40
0
 40
0
 40
0
 40
0
 40
1
 40
1
 40
1
 40
1
 10
53.088021
 20
143.257073
 30
0.0
 10
54.104019
 20
144.024363
 30
0.0
 10
55.397830
 20
144.410655
 30
0.0
 10
56.958870
 20
144.410655
 30
0.0
  0
SPLINE
  5
156
100
AcDbEntity
  8
Layer_1
 62
7
100
AcDbSpline
 70
8
 71
3
 72
8
 73
4
 74
0
 40
0
 40
0
 40
0
 40
0
 40
1
 40
1
 40
1
 40
1
 10
56.958870
 20
144.410655
 30
0.0
 10
58.914138
 20
144.410655
 30
0.0
 10
60.512220
 20
143.894718
 30
0.0
 10
61.755760
 20
142.868136
 30
0.0
  0
LWPOLYLINE
  5
157
100
AcDbEntity
  8
Layer_1
 62
7
100
AcDbPolyline
 90
6
 70
0
 10
51.439669
 20
135.245500
 30
0.0
 10
51.439669
 20
124.966450
 30
0.0
 10
46.476092
 20
124.966450
 30
0.0
 10
46.476092
 20
143.918530
 30
0.0
 10
51.283565
 20
143.918530
 30
0.0
 10
51.283565
 20
141.148346
 30
0.0
  0
SPLINE
  5
158
100
AcDbEntity
  8
Layer_1
 62
7
100
AcDbSpline
 70
8
 71
3
 72
8
 73
4
 74
0
 40
0
 40
0
 40
0
 40
0
 40
1
 40
1
 40
1
 40
1
 10
95.632967
 20
147.961358
 30
0.0
 10
97.699360
 20
150.072731
 30
0.0
 10
100.331961
 20
151.136354
 30
0.0
 10
103.528124
 20
151.136354
 30
0.0
  0
SPLINE
  5
159
100
AcDbEntity
  8
Layer_1
 62
7
100
AcDbSpline
 70
8
 71
3
 72
8
 73
4
 74
0
 40
0
 40
0
 40
0
 40
0
 40
1
 40
1
 40
1
 40
1
 10
103.528124
 20
151.136354
 30
0.0
 10
107.803785
 20
151.136354
 30
0.0
 10
110.925864
 20
149.720835
 30
0.0
 10
112.902300
 20
146.887152
 30
0.0
  0
SPLINE
  5
15a
100
AcDbEntity
  8
Layer_1
 62
7
100
AcDbSpline
 70
8
 71
3
 72
8
 73
4
 74
0
 40
0
 40
0
 40
0
 40
0
 40
1
 40
1
 40
1
 40
1
 10
112.902300
 20
146.887152
 30
0.0
 10
113.995027
 20
145.294362
 30
0.0
 10
114.579756
 20
143.698926
 30
0.0
 10
114.661776
 20
142.095553
 30
0.0
  0
LWPOLYLINE
  5
15b
100
AcDbEntity
  8
Layer_1
 62
7
100
AcDbPolyline
 90
3
 70
0
 10
61.755760
 20
142.868136
 30
0.0
 10
61.761051
 20
142.862844
 30
0.0
 10
61.758406
 20
142.862844
 30
0.0
  0
SPLINE
  5
15c
100
AcDbEntity
  8
Layer_1
 62
7
100
AcDbSpline
 70
8
 71
3
 72
8
 73
4
 74
0
 40
0
 40
0
 40
0
 40
0
 40
1
 40
1
 40
1
 40
1
 10
109.293387
 20
142.095553
 30
0.0
 10
108.954721
 20
143.328510
 30
0.0
 10
108.515513
 20
144.254551
 30
0.0
 10
107.978410
 20
144.884258
 30
0.0
  0
SPLINE
  5
15d
100
AcDbEntity
  8
Layer_1
 62
7
100
AcDbSpline
 70
8
 71
3
 72
8
 73
4
 74
0
 40
0
 40
0
 40
0
 40
0
 40
1
 40
1
 40
1
 40
1
 10
107.978410
 20
144.884258
 30
0.0
 10
107.023265
 20
146.000798
 30
0.0
 10
105.602455
 20
146.556423
 30
0.0
 10
103.729207
 20
146.556423
 30
0.0
  0
SPLINE
  5
15e
100
AcDbEntity
  8
Layer_1
 62
7
100
AcDbSpline
 70
8
 71
3
 72
8
 73
4
 74
0
 40
0
 40
0
 40
0
 40
0
 40
1
 40
1
 40
1
 40
1
 10
103.729207
 20
146.556423
 30
0.0
 10
101.855959
 20
146.556423
 30
0.0
 10
100.308149
 20
145.773257
 30
0.0
 10
99.204838
 20
144.196342
 30
0.0
  0
SPLINE
  5
15f
100
AcDbEntity
  8
Layer_1
 62
7
100
AcDbSpline
 70
8
 71
3
 72
8
 73
4
 74
0
 40
0
 40
0
 40
0
 40
0
 40
1
 40
1
 40
1
 40
1
 10
99.204838
 20
144.196342
 30
0.0
 10
98.104172
 20
142.619428
 30
0.0
 10
97.551194
 20
140.396931
 30
0.0
 10
97.551194
 20
137.515622
 30
0.0
  0
SPLINE
  5
160
100
AcDbEntity
  8
Layer_1
 62
7
100
AcDbSpline
 70
8
 71
3
 72
8
 73
4
 74
0
 40
0
 40
0
 40
0
 40
0
 40
1
 40
1
 40
1
 40
1
 10
97.551194
 20
137.515622
 30
0.0
 10
97.551194
 20
134.634313
 30
0.0
 10
98.133276
 20
132.477961
 30
0.0
 10
99.300087
 20
131.041276
 30
0.0
  0
SPLINE
  5
161
100
AcDbEntity
  8
Layer_1
 62
7
100
AcDbSpline
 70
8
 71
3
 72
8
 73
4
 74
0
 40
0
 40
0
 40
0
 40
0
 40
1
 40
1
 40
1
 40
1
 10
99.300087
 20
131.041276
 30
0.0
 10
100.461607
 20
129.607236
 30
0.0
 10
101.943272
 20
128.887570
 30
0.0
 10
103.742436
 20
128.887570
 30
0.0
  0
SPLINE
  5
162
100
AcDbEntity
  8
Layer_1
 62
7
100
AcDbSpline
 70
8
 71
3
 72
8
 73
4
 74
0
 40
0
 40
0
 40
0
 40
0
 40
1
 40
1
 40
1
 40
1
 10
103.742436
 20
128.887570
 30
0.0
 10
105.541600
 20
128.887570
 30
0.0
 10
106.986224
 20
129.504048
 30
0.0
 10
107.951952
 20
130.737005
 30
0.0
  0
SPLINE
  5
163
100
AcDbEntity
  8
Layer_1
 62
7
100
AcDbSpline
 70
8
 71
3
 72
8
 73
4
 74
0
 40
0
 40
0
 40
0
 40
0
 40
1
 40
1
 40
1
 40
1
 10
107.951952
 20
130.737005
 30
0.0
 10
108.486409
 20
131.398463
 30
0.0
 10
108.928263
 20
132.390649
 30
0.0
 10
109.280158
 20
133.718856
 30
0.0
  0
LWPOLYLINE
  5
164
100
AcDbEntity
  8
Layer_1
 62
7
100
AcDbPolyline
 90
2
 70
0
 10
114.661776
 20
142.095553
 30
0.0
 10
109.293387
 20
142.095553
 30
0.0
  0
SPLINE
  5
165
100
AcDbEntity
  8
Layer_1
 62
7
100
AcDbSpline
 70
8
 71
3
 72
8
 73
4
 74
0
 40
0
 40
0
 40
0
 40
0
 40
1
 40
1
 40
1
 40
1
 10
114.611506
 20
133.718856
 30
0.0
 10
114.151131
 20
130.919567
 30
0.0
 10
112.979029
 20
128.644154
 30
0.0
 10
111.084614
 20
126.887323
 30
0.0
  0
SPLINE
  5
166
100
AcDbEntity
  8
Layer_1
 62
7
100
AcDbSpline
 70
8
 71
3
 72
8
 73
4
 74
0
 40
0
 40
0
 40
0
 40
0
 40
1
 40
1
 40
1
 40
1
 10
111.084614
 20
126.887323
 30
0.0
 10
109.195492
 20
125.133137
 30
0.0
 10
106.774557
 20
124.260013
 30
0.0
 10
103.816519
 20
124.260013
 30
0.0
  0
SPLINE
  5
167
100
AcDbEntity
  8
Layer_1
 62
7
100
AcDbSpline
 70
8
 71
3
 72
8
 73
4
 74
0
 40
0
 40
0
 40
0
 40
0
 40
1
 40
1
 40
1
 40
1
 10
103.816519
 20
124.260013
 30
0.0
 10
100.162628
 20
124.260013
 30
0.0
 10
97.291903
 20
125.442699
 30
0.0
 10
95.199051
 20
127.813363
 30
0.0
  0
SPLINE
  5
168
100
AcDbEntity
  8
Layer_1
 62
7
100
AcDbSpline
 70
8
 71
3
 72
8
 73
4
 74
0
 40
0
 40
0
 40
0
 40
0
 40
1
 40
1
 40
1
 40
1
 10
95.199051
 20
127.813363
 30
0.0
 10
93.106199
 20
130.194610
 30
0.0
 10
92.061097
 20
133.459564
 30
0.0
 10
92.061097
 20
137.608226
 30
0.0
  0
SPLINE
  5
169
100
AcDbEntity
  8
Layer_1
 62
7
100
AcDbSpline
 70
8
 71
3
 72
8
 73
4
 74
0
 40
0
 40
0
 40
0
 40
0
 40
1
 40
1
 40
1
 40
1
 10
92.061097
 20
137.608226
 30
0.0
 10
92.061097
 20
142.090262
 30
0.0
 10
93.249074
 20
145.548362
 30
0.0
 10
95.630321
 20
147.974588
 30
0.0
  0
LWPOLYLINE
  5
16a
100
AcDbEntity
  8
Layer_1
 62
7
100
AcDbPolyline
 90
2
 70
0
 10
109.280158
 20
133.718856
 30
0.0
 10
114.611506
 20
133.718856
 30
0.0
  0
SPLINE
  5
16b
100
AcDbEntity
  8
Layer_1
 62
7
100
AcDbSpline
 70
8
 71
3
 72
8
 73
4
 74
0
 40
0
 40
0
 40
0
 40
0
 40
1
 40
1
 40
1
 40
1
 10
77.956177
 20
112.038925
 30
0.0
 10
77.718052
 20
112.295570
 30
0.0
 10
77.416428
 20
112.533695
 30
0.0
 10
77.046011
 20
112.745361
 30
0.0
  0
SPLINE
  5
16c
100
AcDbEntity
  8
Layer_1
 62
7
100
AcDbSpline
 70
8
 71
3
 72
8
 73
4
 74
0
 40
0
 40
0
 40
0
 40
0
 40
1
 40
1
 40
1
 40
1
 10
77.046011
 20
112.745361
 30
0.0
 10
77.784198
 20
112.851194
 30
0.0
 10
78.345114
 20
113.113132
 30
0.0
 10
78.712884
 20
113.523235
 30
0.0
  0
SPLINE
  5
16d
100
AcDbEntity
  8
Layer_1
 62
7
100
AcDbSpline
 70
8
 71
3
 72
8
 73
4
 74
0
 40
0
 40
0
 40
0
 40
0
 40
1
 40
1
 40
1
 40
1
 10
78.712884
 20
113.523235
 30
0.0
 10
79.033030
 20
113.880422
 30
0.0
 10
79.215592
 20
114.314338
 30
0.0
 10
79.260571
 20
114.830275
 30
0.0
  0
LWPOLYLINE
  5
16e
100
AcDbEntity
  8
Layer_1
 62
7
100
AcDbPolyline
 90
3
 70
0
 10
95.630321
 20
147.974588
 30
0.0
 10
95.630321
 20
147.964004
 30
0.0
 10
95.632967
 20
147.961358
 30
0.0
  0
SPLINE
  5
16f
100
AcDbEntity
  8
Layer_1
 62
7
100
AcDbSpline
 70
8
 71
3
 72
8
 73
4
 74
0
 40
0
 40
0
 40
0
 40
0
 40
1
 40
1
 40
1
 40
1
 10
77.506386
 20
114.830275
 30
0.0
 10
77.487865
 20
114.642421
 30
0.0
 10
77.434948
 20
114.481026
 30
0.0
 10
77.342344
 20
114.343443
 30
0.0
  0
SPLINE
  5
170
100
AcDbEntity
  8
Layer_1
 62
7
100
AcDbSpline
 70
8
 71
3
 72
8
 73
4
 74
0
 40
0
 40
0
 40
0
 40
0
 40
1
 40
1
 40
1
 40
1
 10
77.342344
 20
114.343443
 30
0.0
 10
77.225928
 20
114.176755
 30
0.0
 10
77.069824
 20
114.060339
 30
0.0
 10
76.866095
 20
113.988901
 30
0.0
  0
SPLINE
  5
171
100
AcDbEntity
  8
Layer_1
 62
7
100
AcDbSpline
 70
8
 71
3
 72
8
 73
4
 74
0
 40
0
 40
0
 40
0
 40
0
 40
1
 40
1
 40
1
 40
1
 10
76.866095
 20
113.988901
 30
0.0
 10
76.665012
 20
113.922756
 30
0.0
 10
76.154367
 20
113.888360
 30
0.0
 10
75.339451
 20
113.888360
 30
0.0
  0
LWPOLYLINE
  5
172
100
AcDbEntity
  8
Layer_1
 62
7
100
AcDbPolyline
 90
2
 70
0
 10
79.260571
 20
114.830275
 30
0.0
 10
77.506386
 20
114.830275
 30
0.0
  0
SPLINE
  5
173
100
AcDbEntity
  8
Layer_1
 62
7
100
AcDbSpline
 70
8
 71
3
 72
8
 73
4
 74
0
 40
0
 40
0
 40
0
 40
0
 40
1
 40
1
 40
1
 40
1
 10
74.423994
 20
112.536341
 30
0.0
 10
74.818222
 20
112.536341
 30
0.0
 10
75.101326
 20
112.501945
 30
0.0
 10
75.283889
 20
112.441091
 30
0.0
  0
SPLINE
  5
174
100
AcDbEntity
  8
Layer_1
 62
7
100
AcDbSpline
 70
8
 71
3
 72
8
 73
4
 74
0
 40
0
 40
0
 40
0
 40
0
 40
1
 40
1
 40
1
 40
1
 10
75.283889
 20
112.441091
 30
0.0
 10
75.461159
 20
112.380237
 30
0.0
 10
75.633138
 20
112.263820
 30
0.0
 10
75.794534
 20
112.091841
 30
0.0
  0
SPLINE
  5
175
100
AcDbEntity
  8
Layer_1
 62
7
100
AcDbSpline
 70
8
 71
3
 72
8
 73
4
 74
0
 40
0
 40
0
 40
0
 40
0
 40
1
 40
1
 40
1
 40
1
 10
75.794534
 20
112.091841
 30
0.0
 10
75.950638
 20
111.919862
 30
0.0
 10
76.254908
 20
111.509759
 30
0.0
 10
76.688824
 20
110.853593
 30
0.0
  0
LWPOLYLINE
  5
176
100
AcDbEntity
  8
Layer_1
 62
7
100
AcDbPolyline
 90
10
 70
0
 10
75.339451
 20
113.888360
 30
0.0
 10
74.080036
 20
113.888360
 30
0.0
 10
74.074744
 20
113.883068
 30
0.0
 10
74.074744
 20
114.830275
 30
0.0
 10
72.381413
 20
114.830275
 30
0.0
 10
72.381413
 20
109.025324
 30
0.0
 10
72.376121
 20
109.020033
 30
0.0
 10
74.080036
 20
109.020033
 30
0.0
 10
74.080036
 20
112.536341
 30
0.0
 10
74.423994
 20
112.536341
 30
0.0
  0
SPLINE
  5
177
100
AcDbEntity
  8
Layer_1
 62
7
100
AcDbSpline
 70
8
 71
3
 72
8
 73
4
 74
0
 40
0
 40
0
 40
0
 40
0
 40
1
 40
1
 40
1
 40
1
 10
78.916613
 20
110.668385
 30
0.0
 10
78.511801
 20
111.324550
 30
0.0
 10
78.189010
 20
111.779633
 30
0.0
 10
77.950885
 20
112.038925
 30
0.0
  0
LWPOLYLINE
  5
178
100
AcDbEntity
  8
Layer_1
 62
7
100
AcDbPolyline
 90
4
 70
0
 10
76.688824
 20
110.853593
 30
0.0
 10
77.916489
 20
109.025324
 30
0.0
 10
79.948487
 20
109.025324
 30
0.0
 10
78.916613
 20
110.668385
 30
0.0
  0
LWPOLYLINE
  5
179
100
AcDbEntity
  8
Layer_1
 62
7
100
AcDbPolyline
 90
2
 70
0
 10
77.950885
 20
112.038925
 30
0.0
 10
77.956177
 20
112.038925
 30
0.0
  0
SPLINE
  5
17a
100
AcDbEntity
  8
Layer_1
 62
7
100
AcDbSpline
 70
8
 71
3
 72
8
 73
4
 74
0
 40
0
 40
0
 40
0
 40
0
 40
1
 40
1
 40
1
 40
1
 10
75.405597
 20
116.026190
 30
0.0
 10
76.093513
 20
116.026190
 30
0.0
 10
76.506262
 20
116.015607
 30
0.0
 10
76.643845
 20
115.997086
 30
0.0
  0
SPLINE
  5
17b
100
AcDbEntity
  8
Layer_1
 62
7
100
AcDbSpline
 70
8
 71
3
 72
8
 73
4
 74
0
 40
0
 40
0
 40
0
 40
0
 40
1
 40
1
 40
1
 40
1
 10
76.643845
 20
115.997086
 30
0.0
 10
76.921657
 20
115.952107
 30
0.0
 10
77.133324
 20
115.840982
 30
0.0
 10
77.286782
 20
115.669003
 30
0.0
  0
SPLINE
  5
17c
100
AcDbEntity
  8
Layer_1
 62
7
100
AcDbSpline
 70
8
 71
3
 72
8
 73
4
 74
0
 40
0
 40
0
 40
0
 40
0
 40
1
 40
1
 40
1
 40
1
 10
77.286782
 20
115.669003
 30
0.0
 10
77.437594
 20
115.497024
 30
0.0
 10
77.514323
 20
115.264191
 30
0.0
 10
77.514323
 20
114.981088
 30
0.0
  0
SPLINE
  5
17d
100
AcDbEntity
  8
Layer_1
 62
7
100
AcDbSpline
 70
8
 71
3
 72
8
 73
4
 74
0
 40
0
 40
0
 40
0
 40
0
 40
1
 40
1
 40
1
 40
1
 10
77.514323
 20
114.981088
 30
0.0
 10
77.514323
 20
114.928171
 30
0.0
 10
77.511677
 20
114.880546
 30
0.0
 10
77.506386
 20
114.832921
 30
0.0
  0
LWPOLYLINE
  5
17e
100
AcDbEntity
  8
Layer_1
 62
7
100
AcDbPolyline
 90
3
 70
0
 10
74.077390
 20
114.830275
 30
0.0
 10
74.077390
 20
116.026190
 30
0.0
 10
75.405597
 20
116.026190
 30
0.0
  0
SPLINE
  5
17f
100
AcDbEntity
  8
Layer_1
 62
7
100
AcDbSpline
 70
8
 71
3
 72
8
 73
4
 74
0
 40
0
 40
0
 40
0
 40
0
 40
1
 40
1
 40
1
 40
1
 10
79.260571
 20
114.832921
 30
0.0
 10
79.268509
 20
114.920233
 30
0.0
 10
79.273800
 20
115.007546
 30
0.0
 10
79.273800
 20
115.097504
 30
0.0
  0
SPLINE
  5
180
100
AcDbEntity
  8
Layer_1
 62
7
100
AcDbSpline
 70
8
 71
3
 72
8
 73
4
 74
0
 40
0
 40
0
 40
0
 40
0
 40
1
 40
1
 40
1
 40
1
 10
79.273800
 20
115.097504
 30
0.0
 10
79.273800
 20
115.592274
 30
0.0
 10
79.152092
 20
116.031482
 30
0.0
 10
78.906030
 20
116.420419
 30
0.0
  0
SPLINE
  5
181
100
AcDbEntity
  8
Layer_1
 62
7
100
AcDbSpline
 70
8
 71
3
 72
8
 73
4
 74
0
 40
0
 40
0
 40
0
 40
0
 40
1
 40
1
 40
1
 40
1
 10
78.906030
 20
116.420419
 30
0.0
 10
78.657322
 20
116.809356
 30
0.0
 10
78.334531
 20
117.076585
 30
0.0
 10
77.924427
 20
117.230043
 30
0.0
  0
SPLINE
  5
182
100
AcDbEntity
  8
Layer_1
 62
7
100
AcDbSpline
 70
8
 71
3
 72
8
 73
4
 74
0
 40
0
 40
0
 40
0
 40
0
 40
1
 40
1
 40
1
 40
1
 10
77.924427
 20
117.230043
 30
0.0
 10
77.514323
 20
117.380855
 30
0.0
 10
76.863449
 20
117.457584
 30
0.0
 10
75.963867
 20
117.457584
 30
0.0
  0
LWPOLYLINE
  5
183
100
AcDbEntity
  8
Layer_1
 62
7
100
AcDbPolyline
 90
2
 70
0
 10
77.506386
 20
114.832921
 30
0.0
 10
79.260571
 20
114.832921
 30
0.0
  0
LWPOLYLINE
  5
184
100
AcDbEntity
  8
Layer_1
 62
7
100
AcDbPolyline
 90
5
 70
0
 10
75.963867
 20
117.457584
 30
0.0
 10
72.386705
 20
117.457584
 30
0.0
 10
72.386705
 20
114.832921
 30
0.0
 10
74.080036
 20
114.832921
 30
0.0
 10
74.077390
 20
114.830275
 30
0.0
  0
SPLINE
  5
185
100
AcDbEntity
  8
Layer_1
 62
7
100
AcDbSpline
 70
8
 71
3
 72
8
 73
4
 74
0
 40
0
 40
0
 40
0
 40
0
 40
1
 40
1
 40
1
 40
1
 10
97.122569
 20
116.026190
 30
0.0
 10
97.733756
 20
116.026190
 30
0.0
 10
98.143860
 20
116.010315
 30
0.0
 10
98.344943
 20
115.970628
 30
0.0
  0
SPLINE
  5
186
100
AcDbEntity
  8
Layer_1
 62
7
100
AcDbSpline
 70
8
 71
3
 72
8
 73
4
 74
0
 40
0
 40
0
 40
0
 40
0
 40
1
 40
1
 40
1
 40
1
 10
98.344943
 20
115.970628
 30
0.0
 10
98.622755
 20
115.920357
 30
0.0
 10
98.845005
 20
115.798649
 30
0.0
 10
99.027567
 20
115.597566
 30
0.0
  0
SPLINE
  5
187
100
AcDbEntity
  8
Layer_1
 62
7
100
AcDbSpline
 70
8
 71
3
 72
8
 73
4
 74
0
 40
0
 40
0
 40
0
 40
0
 40
1
 40
1
 40
1
 40
1
 10
99.027567
 20
115.597566
 30
0.0
 10
99.210129
 20
115.401775
 30
0.0
 10
99.300087
 20
115.147775
 30
0.0
 10
99.300087
 20
114.838213
 30
0.0
  0
LWPOLYLINE
  5
188
100
AcDbEntity
  8
Layer_1
 62
7
100
AcDbPolyline
 90
3
 70
0
 10
96.305008
 20
114.830275
 30
0.0
 10
96.305008
 20
116.026190
 30
0.0
 10
97.122569
 20
116.026190
 30
0.0
  0
SPLINE
  5
189
100
AcDbEntity
  8
Layer_1
 62
7
100
AcDbSpline
 70
8
 71
3
 72
8
 73
4
 74
0
 40
0
 40
0
 40
0
 40
0
 40
1
 40
1
 40
1
 40
1
 10
101.048981
 20
114.859379
 30
0.0
 10
101.048981
 20
115.531420
 30
0.0
 10
100.887585
 20
116.076461
 30
0.0
 10
100.564794
 20
116.502440
 30
0.0
  0
SPLINE
  5
18a
100
AcDbEntity
  8
Layer_1
 62
7
100
AcDbSpline
 70
8
 71
3
 72
8
 73
4
 74
0
 40
0
 40
0
 40
0
 40
0
 40
1
 40
1
 40
1
 40
1
 10
100.564794
 20
116.502440
 30
0.0
 10
100.236711
 20
116.925773
 30
0.0
 10
99.831899
 20
117.200939
 30
0.0
 10
99.353004
 20
117.325293
 30
0.0
  0
SPLINE
  5
18b
100
AcDbEntity
  8
Layer_1
 62
7
100
AcDbSpline
 70
8
 71
3
 72
8
 73
4
 74
0
 40
0
 40
0
 40
0
 40
0
 40
1
 40
1
 40
1
 40
1
 10
99.353004
 20
117.325293
 30
0.0
 10
99.040796
 20
117.409959
 30
0.0
 10
98.368755
 20
117.452293
 30
0.0
 10
97.331590
 20
117.452293
 30
0.0
  0
LWPOLYLINE
  5
18c
100
AcDbEntity
  8
Layer_1
 62
7
100
AcDbPolyline
 90
4
 70
0
 10
99.300087
 20
114.838213
 30
0.0
 10
99.300087
 20
114.830275
 30
0.0
 10
101.048981
 20
114.830275
 30
0.0
 10
101.048981
 20
114.859379
 30
0.0
  0
SPLINE
  5
18d
100
AcDbEntity
  8
Layer_1
 62
7
100
AcDbSpline
 70
8
 71
3
 72
8
 73
4
 74
0
 40
0
 40
0
 40
0
 40
0
 40
1
 40
1
 40
1
 40
1
 10
99.302733
 20
114.830275
 30
0.0
 10
99.302733
 20
114.584213
 30
0.0
 10
99.236588
 20
114.369901
 30
0.0
 10
99.112234
 20
114.184693
 30
0.0
  0
SPLINE
  5
18e
100
AcDbEntity
  8
Layer_1
 62
7
100
AcDbSpline
 70
8
 71
3
 72
8
 73
4
 74
0
 40
0
 40
0
 40
0
 40
0
 40
1
 40
1
 40
1
 40
1
 10
99.112234
 20
114.184693
 30
0.0
 10
98.985234
 20
113.996839
 30
0.0
 10
98.807963
 20
113.861901
 30
0.0
 10
98.580422
 20
113.769297
 30
0.0
  0
SPLINE
  5
18f
100
AcDbEntity
  8
Layer_1
 62
7
100
AcDbSpline
 70
8
 71
3
 72
8
 73
4
 74
0
 40
0
 40
0
 40
0
 40
0
 40
1
 40
1
 40
1
 40
1
 10
98.580422
 20
113.769297
 30
0.0
 10
98.352880
 20
113.684631
 30
0.0
 10
97.903089
 20
113.637006
 30
0.0
 10
97.236340
 20
113.637006
 30
0.0
  0
LWPOLYLINE
  5
190
100
AcDbEntity
  8
Layer_1
 62
7
100
AcDbPolyline
 90
5
 70
0
 10
97.331590
 20
117.452293
 30
0.0
 10
94.603739
 20
117.452293
 30
0.0
 10
94.603739
 20
114.832921
 30
0.0
 10
96.307654
 20
114.832921
 30
0.0
 10
96.305008
 20
114.830275
 30
0.0
  0
SPLINE
  5
191
100
AcDbEntity
  8
Layer_1
 62
7
100
AcDbSpline
 70
8
 71
3
 72
8
 73
4
 74
0
 40
0
 40
0
 40
0
 40
0
 40
1
 40
1
 40
1
 40
1
 10
97.413611
 20
112.200320
 30
0.0
 10
98.180901
 20
112.200320
 30
0.0
 10
98.773567
 20
112.240008
 30
0.0
 10
99.178379
 20
112.322028
 30
0.0
  0
SPLINE
  5
192
100
AcDbEntity
  8
Layer_1
 62
7
100
AcDbSpline
 70
8
 71
3
 72
8
 73
4
 74
0
 40
0
 40
0
 40
0
 40
0
 40
1
 40
1
 40
1
 40
1
 10
99.178379
 20
112.322028
 30
0.0
 10
99.477358
 20
112.388174
 30
0.0
 10
99.768399
 20
112.517820
 30
0.0
 10
100.056795
 20
112.721549
 30
0.0
  0
SPLINE
  5
193
100
AcDbEntity
  8
Layer_1
 62
7
100
AcDbSpline
 70
8
 71
3
 72
8
 73
4
 74
0
 40
0
 40
0
 40
0
 40
0
 40
1
 40
1
 40
1
 40
1
 10
100.056795
 20
112.721549
 30
0.0
 10
100.345190
 20
112.922632
 30
0.0
 10
100.588607
 20
113.200444
 30
0.0
 10
100.773815
 20
113.554985
 30
0.0
  0
SPLINE
  5
194
100
AcDbEntity
  8
Layer_1
 62
7
100
AcDbSpline
 70
8
 71
3
 72
8
 73
4
 74
0
 40
0
 40
0
 40
0
 40
0
 40
1
 40
1
 40
1
 40
1
 10
100.773815
 20
113.554985
 30
0.0
 10
100.956377
 20
113.901589
 30
0.0
 10
101.046335
 20
114.324922
 30
0.0
 10
101.048981
 20
114.824984
 30
0.0
  0
LWPOLYLINE
  5
195
100
AcDbEntity
  8
Layer_1
 62
7
100
AcDbPolyline
 90
9
 70
0
 10
97.236340
 20
113.637006
 30
0.0
 10
96.307654
 20
113.637006
 30
0.0
 10
96.307654
 20
114.827629
 30
0.0
 10
94.603739
 20
114.827629
 30
0.0
 10
94.603739
 20
109.027970
 30
0.0
 10
94.598448
 20
109.022678
 30
0.0
 10
96.302362
 20
109.022678
 30
0.0
 10
96.302362
 20
112.200320
 30
0.0
 10
97.413611
 20
112.200320
 30
0.0
  0
SPLINE
  5
196
100
AcDbEntity
  8
Layer_1
 62
7
100
AcDbSpline
 70
8
 71
3
 72
8
 73
4
 74
0
 40
0
 40
0
 40
0
 40
0
 40
1
 40
1
 40
1
 40
1
 10
130.134590
 20
135.076166
 30
0.0
 10
130.145174
 20
134.867146
 30
0.0
 10
130.150465
 20
134.652834
 30
0.0
 10
130.150465
 20
134.433230
 30
0.0
  0
SPLINE
  5
197
100
AcDbEntity
  8
Layer_1
 62
7
100
AcDbSpline
 70
8
 71
3
 72
8
 73
4
 74
0
 40
0
 40
0
 40
0
 40
0
 40
1
 40
1
 40
1
 40
1
 10
130.150465
 20
134.433230
 30
0.0
 10
130.150465
 20
132.533524
 30
0.0
 10
129.761528
 20
131.062442
 30
0.0
 10
128.983654
 20
130.030569
 30
0.0
  0
SPLINE
  5
198
100
AcDbEntity
  8
Layer_1
 62
7
100
AcDbSpline
 70
8
 71
3
 72
8
 73
4
 74
0
 40
0
 40
0
 40
0
 40
0
 40
1
 40
1
 40
1
 40
1
 10
128.983654
 20
130.030569
 30
0.0
 10
128.205780
 20
128.998695
 30
0.0
 10
127.094532
 20
128.485404
 30
0.0
 10
125.639325
 20
128.485404
 30
0.0
  0
SPLINE
  5
199
100
AcDbEntity
  8
Layer_1
 62
7
100
AcDbSpline
 70
8
 71
3
 72
8
 73
4
 74
0
 40
0
 40
0
 40
0
 40
0
 40
1
 40
1
 40
1
 40
1
 10
125.639325
 20
128.485404
 30
0.0
 10
124.184119
 20
128.485404
 30
0.0
 10
123.067578
 20
129.001341
 30
0.0
 10
122.284413
 20
130.030569
 30
0.0
  0
SPLINE
  5
19a
100
AcDbEntity
  8
Layer_1
 62
7
100
AcDbSpline
 70
8
 71
3
 72
8
 73
4
 74
0
 40
0
 40
0
 40
0
 40
0
 40
1
 40
1
 40
1
 40
1
 10
122.284413
 20
130.030569
 30
0.0
 10
121.495955
 20
131.062442
 30
0.0
 10
121.107018
 20
132.533524
 30
0.0
 10
121.107018
 20
134.433230
 30
0.0
  0
SPLINE
  5
19b
100
AcDbEntity
  8
Layer_1
 62
7
100
AcDbSpline
 70
8
 71
3
 72
8
 73
4
 74
0
 40
0
 40
0
 40
0
 40
0
 40
1
 40
1
 40
1
 40
1
 10
121.107018
 20
134.433230
 30
0.0
 10
121.107018
 20
134.652834
 30
0.0
 10
121.112310
 20
134.867146
 30
0.0
 10
121.122893
 20
135.076166
 30
0.0
  0
LWPOLYLINE
  5
19c
100
AcDbEntity
  8
Layer_1
 62
7
100
AcDbPolyline
 90
3
 70
0
 10
101.048981
 20
114.824984
 30
0.0
 10
99.300087
 20
114.824984
 30
0.0
 10
99.302733
 20
114.830275
 30
0.0
  0
SPLINE
  5
19d
100
AcDbEntity
  8
Layer_1
 62
7
100
AcDbSpline
 70
8
 71
3
 72
8
 73
4
 74
0
 40
0
 40
0
 40
0
 40
0
 40
1
 40
1
 40
1
 40
1
 10
115.966171
 20
135.076166
 30
0.0
 10
115.955587
 20
134.864500
 30
0.0
 10
115.950296
 20
134.650188
 30
0.0
 10
115.950296
 20
134.433230
 30
0.0
  0
SPLINE
  5
19e
100
AcDbEntity
  8
Layer_1
 62
7
100
AcDbSpline
 70
8
 71
3
 72
8
 73
4
 74
0
 40
0
 40
0
 40
0
 40
0
 40
1
 40
1
 40
1
 40
1
 10
115.950296
 20
134.433230
 30
0.0
 10
115.950296
 20
131.649817
 30
0.0
 10
116.749336
 20
129.263278
 30
0.0
 10
118.355355
 20
127.286843
 30
0.0
  0
SPLINE
  5
19f
100
AcDbEntity
  8
Layer_1
 62
7
100
AcDbSpline
 70
8
 71
3
 72
8
 73
4
 74
0
 40
0
 40
0
 40
0
 40
0
 40
1
 40
1
 40
1
 40
1
 10
118.355355
 20
127.286843
 30
0.0
 10
119.958728
 20
125.310408
 30
0.0
 10
122.382308
 20
124.320867
 30
0.0
 10
125.652554
 20
124.320867
 30
0.0
  0
SPLINE
  5
1a0
100
AcDbEntity
  8
Layer_1
 62
7
100
AcDbSpline
 70
8
 71
3
 72
8
 73
4
 74
0
 40
0
 40
0
 40
0
 40
0
 40
1
 40
1
 40
1
 40
1
 10
125.652554
 20
124.320867
 30
0.0
 10
128.922800
 20
124.320867
 30
0.0
 10
131.354318
 20
125.310408
 30
0.0
 10
132.955045
 20
127.286843
 30
0.0
  0
SPLINE
  5
1a1
100
AcDbEntity
  8
Layer_1
 62
7
100
AcDbSpline
 70
8
 71
3
 72
8
 73
4
 74
0
 40
0
 40
0
 40
0
 40
0
 40
1
 40
1
 40
1
 40
1
 10
132.955045
 20
127.286843
 30
0.0
 10
134.561064
 20
129.263278
 30
0.0
 10
135.360105
 20
131.694796
 30
0.0
 10
135.360105
 20
134.433230
 30
0.0
  0
SPLINE
  5
1a2
100
AcDbEntity
  8
Layer_1
 62
7
100
AcDbSpline
 70
8
 71
3
 72
8
 73
4
 74
0
 40
0
 40
0
 40
0
 40
0
 40
1
 40
1
 40
1
 40
1
 10
135.360105
 20
134.433230
 30
0.0
 10
135.360105
 20
134.650188
 30
0.0
 10
135.352167
 20
134.864500
 30
0.0
 10
135.344230
 20
135.076166
 30
0.0
  0
LWPOLYLINE
  5
1a3
100
AcDbEntity
  8
Layer_1
 62
7
100
AcDbPolyline
 90
2
 70
0
 10
121.122893
 20
135.076166
 30
0.0
 10
115.966171
 20
135.076166
 30
0.0
  0
SPLINE
  5
1a4
100
AcDbEntity
  8
Layer_1
 62
7
100
AcDbSpline
 70
8
 71
3
 72
8
 73
4
 74
0
 40
0
 40
0
 40
0
 40
0
 40
1
 40
1
 40
1
 40
1
 10
121.122893
 20
135.076166
 30
0.0
 10
121.204914
 20
136.666310
 30
0.0
 10
121.591205
 20
137.917788
 30
0.0
 10
122.284413
 20
138.825308
 30
0.0
  0
SPLINE
  5
1a5
100
AcDbEntity
  8
Layer_1
 62
7
100
AcDbSpline
 70
8
 71
3
 72
8
 73
4
 74
0
 40
0
 40
0
 40
0
 40
0
 40
1
 40
1
 40
1
 40
1
 10
122.284413
 20
138.825308
 30
0.0
 10
123.067578
 20
139.851890
 30
0.0
 10
124.189410
 20
140.367826
 30
0.0
 10
125.639325
 20
140.367826
 30
0.0
  0
SPLINE
  5
1a6
100
AcDbEntity
  8
Layer_1
 62
7
100
AcDbSpline
 70
8
 71
3
 72
8
 73
4
 74
0
 40
0
 40
0
 40
0
 40
0
 40
1
 40
1
 40
1
 40
1
 10
125.639325
 20
140.367826
 30
0.0
 10
127.089240
 20
140.367826
 30
0.0
 10
128.205780
 20
139.851890
 30
0.0
 10
128.983654
 20
138.825308
 30
0.0
  0
SPLINE
  5
1a7
100
AcDbEntity
  8
Layer_1
 62
7
100
AcDbSpline
 70
8
 71
3
 72
8
 73
4
 74
0
 40
0
 40
0
 40
0
 40
0
 40
1
 40
1
 40
1
 40
1
 10
128.983654
 20
138.825308
 30
0.0
 10
129.671570
 20
137.917788
 30
0.0
 10
130.055215
 20
136.666310
 30
0.0
 10
130.134590
 20
135.076166
 30
0.0
  0
SPLINE
  5
1a8
100
AcDbEntity
  8
Layer_1
 62
7
100
AcDbSpline
 70
8
 71
3
 72
8
 73
4
 74
0
 40
0
 40
0
 40
0
 40
0
 40
1
 40
1
 40
1
 40
1
 10
135.344230
 20
135.076166
 30
0.0
 10
135.227813
 20
137.544726
 30
0.0
 10
134.431418
 20
139.701077
 30
0.0
 10
132.955045
 20
141.553158
 30
0.0
  0
SPLINE
  5
1a9
100
AcDbEntity
  8
Layer_1
 62
7
100
AcDbSpline
 70
8
 71
3
 72
8
 73
4
 74
0
 40
0
 40
0
 40
0
 40
0
 40
1
 40
1
 40
1
 40
1
 10
132.955045
 20
141.553158
 30
0.0
 10
131.349026
 20
143.558697
 30
0.0
 10
128.917509
 20
144.564113
 30
0.0
 10
125.652554
 20
144.564113
 30
0.0
  0
SPLINE
  5
1aa
100
AcDbEntity
  8
Layer_1
 62
7
100
AcDbSpline
 70
8
 71
3
 72
8
 73
4
 74
0
 40
0
 40
0
 40
0
 40
0
 40
1
 40
1
 40
1
 40
1
 10
125.652554
 20
144.564113
 30
0.0
 10
122.387600
 20
144.564113
 30
0.0
 10
119.956082
 20
143.558697
 30
0.0
 10
118.355355
 20
141.553158
 30
0.0
  0
SPLINE
  5
1ab
100
AcDbEntity
  8
Layer_1
 62
7
100
AcDbSpline
 70
8
 71
3
 72
8
 73
4
 74
0
 40
0
 40
0
 40
0
 40
0
 40
1
 40
1
 40
1
 40
1
 10
118.355355
 20
141.553158
 30
0.0
 10
116.873690
 20
139.703723
 30
0.0
 10
116.079941
 20
137.579122
 30
0.0
 10
115.966171
 20
135.076166
 30
0.0
  0
LWPOLYLINE
  5
1ac
100
AcDbEntity
  8
Layer_1
 62
7
100
AcDbPolyline
 90
2
 70
1
 10
135.344230
 20
135.076166
 30
0.0
 10
130.134590
 20
135.076166
 30
0.0
  0
SPLINE
  5
1ad
100
AcDbEntity
  8
Layer_1
 62
7
100
AcDbSpline
 70
8
 71
3
 72
8
 73
4
 74
0
 40
0
 40
0
 40
0
 40
0
 40
1
 40
1
 40
1
 40
1
 10
87.346228
 20
131.700087
 30
0.0
 10
87.539373
 20
132.565274
 30
0.0
 10
87.637269
 20
133.467502
 30
0.0
 10
87.637269
 20
134.425292
 30
0.0
  0
SPLINE
  5
1ae
100
AcDbEntity
  8
Layer_1
 62
7
100
AcDbSpline
 70
8
 71
3
 72
8
 73
4
 74
0
 40
0
 40
0
 40
0
 40
0
 40
1
 40
1
 40
1
 40
1
 10
87.637269
 20
134.425292
 30
0.0
 10
87.637269
 20
134.480855
 30
0.0
 10
87.631977
 20
134.536417
 30
0.0
 10
87.631977
 20
134.591980
 30
0.0
  0
LWPOLYLINE
  5
1af
100
AcDbEntity
  8
Layer_1
 62
7
100
AcDbPolyline
 90
2
 70
0
 10
115.966171
 20
135.076166
 30
0.0
 10
121.122893
 20
135.076166
 30
0.0
  0
SPLINE
  5
1b0
100
AcDbEntity
  8
Layer_1
 62
7
100
AcDbSpline
 70
8
 71
3
 72
8
 73
4
 74
0
 40
0
 40
0
 40
0
 40
0
 40
1
 40
1
 40
1
 40
1
 10
82.374713
 20
135.544478
 30
0.0
 10
82.409109
 20
135.187291
 30
0.0
 10
82.427630
 20
134.819521
 30
0.0
 10
82.427630
 20
134.425292
 30
0.0
  0
SPLINE
  5
1b1
100
AcDbEntity
  8
Layer_1
 62
7
100
AcDbSpline
 70
8
 71
3
 72
8
 73
4
 74
0
 40
0
 40
0
 40
0
 40
0
 40
1
 40
1
 40
1
 40
1
 10
82.427630
 20
134.425292
 30
0.0
 10
82.427630
 20
132.525586
 30
0.0
 10
82.038693
 20
131.054505
 30
0.0
 10
81.260819
 20
130.022631
 30
0.0
  0
SPLINE
  5
1b2
100
AcDbEntity
  8
Layer_1
 62
7
100
AcDbSpline
 70
8
 71
3
 72
8
 73
4
 74
0
 40
0
 40
0
 40
0
 40
0
 40
1
 40
1
 40
1
 40
1
 10
81.260819
 20
130.022631
 30
0.0
 10
80.482945
 20
128.990757
 30
0.0
 10
79.371696
 20
128.477466
 30
0.0
 10
77.913844
 20
128.477466
 30
0.0
  0
SPLINE
  5
1b3
100
AcDbEntity
  8
Layer_1
 62
7
100
AcDbSpline
 70
8
 71
3
 72
8
 73
4
 74
0
 40
0
 40
0
 40
0
 40
0
 40
1
 40
1
 40
1
 40
1
 10
77.913844
 20
128.477466
 30
0.0
 10
76.455991
 20
128.477466
 30
0.0
 10
75.342097
 20
128.993403
 30
0.0
 10
74.558931
 20
130.022631
 30
0.0
  0
SPLINE
  5
1b4
100
AcDbEntity
  8
Layer_1
 62
7
100
AcDbSpline
 70
8
 71
3
 72
8
 73
4
 74
0
 40
0
 40
0
 40
0
 40
0
 40
1
 40
1
 40
1
 40
1
 10
74.558931
 20
130.022631
 30
0.0
 10
73.775765
 20
131.054505
 30
0.0
 10
73.381537
 20
132.520295
 30
0.0
 10
73.381537
 20
134.425292
 30
0.0
  0
SPLINE
  5
1b5
100
AcDbEntity
  8
Layer_1
 62
7
100
AcDbSpline
 70
8
 71
3
 72
8
 73
4
 74
0
 40
0
 40
0
 40
0
 40
0
 40
1
 40
1
 40
1
 40
1
 10
73.381537
 20
134.425292
 30
0.0
 10
73.381537
 20
134.819521
 30
0.0
 10
73.402703
 20
135.189937
 30
0.0
 10
73.437099
 20
135.544478
 30
0.0
  0
LWPOLYLINE
  5
1b6
100
AcDbEntity
  8
Layer_1
 62
7
100
AcDbPolyline
 90
3
 70
0
 10
87.631977
 20
134.591980
 30
0.0
 10
89.227413
 20
135.544478
 30
0.0
 10
82.374713
 20
135.544478
 30
0.0
  0
SPLINE
  5
1b7
100
AcDbEntity
  8
Layer_1
 62
7
100
AcDbSpline
 70
8
 71
3
 72
8
 73
4
 74
0
 40
0
 40
0
 40
0
 40
0
 40
1
 40
1
 40
1
 40
1
 10
68.269793
 20
135.544478
 30
0.0
 10
68.238043
 20
135.189937
 30
0.0
 10
68.219522
 20
134.830104
 30
0.0
 10
68.216877
 20
134.459688
 30
0.0
  0
LWPOLYLINE
  5
1b8
100
AcDbEntity
  8
Layer_1
 62
7
100
AcDbPolyline
 90
2
 70
0
 10
73.437099
 20
135.544478
 30
0.0
 10
68.269793
 20
135.544478
 30
0.0
  0
SPLINE
  5
1b9
100
AcDbEntity
  8
Layer_1
 62
7
100
AcDbSpline
 70
8
 71
3
 72
8
 73
4
 74
0
 40
0
 40
0
 40
0
 40
0
 40
1
 40
1
 40
1
 40
1
 10
69.383688
 20
129.207715
 30
0.0
 10
69.722354
 20
128.525091
 30
0.0
 10
70.132458
 20
127.879509
 30
0.0
 10
70.621936
 20
127.270968
 30
0.0
  0
SPLINE
  5
1ba
100
AcDbEntity
  8
Layer_1
 62
7
100
AcDbSpline
 70
8
 71
3
 72
8
 73
4
 74
0
 40
0
 40
0
 40
0
 40
0
 40
1
 40
1
 40
1
 40
1
 10
70.621936
 20
127.270968
 30
0.0
 10
70.722478
 20
127.149260
 30
0.0
 10
70.833603
 20
127.043427
 30
0.0
 10
70.934144
 20
126.927010
 30
0.0
  0
LWPOLYLINE
  5
1bb
100
AcDbEntity
  8
Layer_1
 62
7
100
AcDbPolyline
 90
4
 70
0
 10
68.216877
 20
134.459688
 30
0.0
 10
65.179464
 20
132.922461
 30
0.0
 10
65.830338
 20
129.456423
 30
0.0
 10
69.383688
 20
129.207715
 30
0.0
  0
SPLINE
  5
1bc
100
AcDbEntity
  8
Layer_1
 62
7
100
AcDbSpline
 70
8
 71
3
 72
8
 73
4
 74
0
 40
0
 40
0
 40
0
 40
0
 40
1
 40
1
 40
1
 40
1
 10
75.109264
 20
124.601325
 30
0.0
 10
75.969159
 20
124.408180
 30
0.0
 10
76.897845
 20
124.297055
 30
0.0
 10
77.919135
 20
124.297055
 30
0.0
  0
SPLINE
  5
1bd
100
AcDbEntity
  8
Layer_1
 62
7
100
AcDbSpline
 70
8
 71
3
 72
8
 73
4
 74
0
 40
0
 40
0
 40
0
 40
0
 40
1
 40
1
 40
1
 40
1
 10
77.919135
 20
124.297055
 30
0.0
 10
78.136093
 20
124.297055
 30
0.0
 10
78.339822
 20
124.312930
 30
0.0
 10
78.546197
 20
124.323513
 30
0.0
  0
LWPOLYLINE
  5
1be
100
AcDbEntity
  8
Layer_1
 62
7
100
AcDbPolyline
 90
4
 70
0
 10
70.934144
 20
126.927010
 30
0.0
 10
69.994874
 20
124.760075
 30
0.0
 10
72.910579
 20
122.767765
 30
0.0
 10
75.109264
 20
124.601325
 30
0.0
  0
SPLINE
  5
1bf
100
AcDbEntity
  8
Layer_1
 62
7
100
AcDbSpline
 70
8
 71
3
 72
8
 73
4
 74
0
 40
0
 40
0
 40
0
 40
0
 40
1
 40
1
 40
1
 40
1
 10
83.229316
 20
125.564408
 30
0.0
 10
83.991315
 20
126.014199
 30
0.0
 10
84.660710
 20
126.580406
 30
0.0
 10
85.221626
 20
127.268322
 30
0.0
  0
LWPOLYLINE
  5
1c0
100
AcDbEntity
  8
Layer_1
 62
7
100
AcDbPolyline
 90
4
 70
0
 10
78.546197
 20
124.323513
 30
0.0
 10
79.535737
 20
121.653871
 30
0.0
 10
83.001775
 20
122.304745
 30
0.0
 10
83.229316
 20
125.564408
 30
0.0
  0
LWPOLYLINE
  5
1c1
100
AcDbEntity
  8
Layer_1
 62
7
100
AcDbPolyline
 90
6
 70
0
 10
85.221626
 20
127.268322
 30
0.0
 10
88.849059
 20
126.413719
 30
0.0
 10
90.248703
 20
129.652215
 30
0.0
 10
87.433540
 20
131.850900
 30
0.0
 10
87.343582
 20
131.692150
 30
0.0
 10
87.346228
 20
131.700087
 30
0.0
  0
SPLINE
  5
1c2
100
AcDbEntity
  8
Layer_1
 62
7
100
AcDbSpline
 70
8
 71
3
 72
8
 73
4
 74
0
 40
0
 40
0
 40
0
 40
0
 40
1
 40
1
 40
1
 40
1
 10
73.437099
 20
135.547124
 30
0.0
 10
73.566745
 20
136.912372
 30
0.0
 10
73.939807
 20
138.005100
 30
0.0
 10
74.558931
 20
138.820016
 30
0.0
  0
SPLINE
  5
1c3
100
AcDbEntity
  8
Layer_1
 62
7
100
AcDbSpline
 70
8
 71
3
 72
8
 73
4
 74
0
 40
0
 40
0
 40
0
 40
0
 40
1
 40
1
 40
1
 40
1
 10
74.558931
 20
138.820016
 30
0.0
 10
75.342097
 20
139.846598
 30
0.0
 10
76.463929
 20
140.357243
 30
0.0
 10
77.913844
 20
140.357243
 30
0.0
  0
SPLINE
  5
1c4
100
AcDbEntity
  8
Layer_1
 62
7
100
AcDbSpline
 70
8
 71
3
 72
8
 73
4
 74
0
 40
0
 40
0
 40
0
 40
0
 40
1
 40
1
 40
1
 40
1
 10
77.913844
 20
140.357243
 30
0.0
 10
79.363758
 20
140.357243
 30
0.0
 10
80.480299
 20
139.841306
 30
0.0
 10
81.260819
 20
138.820016
 30
0.0
  0
SPLINE
  5
1c5
100
AcDbEntity
  8
Layer_1
 62
7
100
AcDbSpline
 70
8
 71
3
 72
8
 73
4
 74
0
 40
0
 40
0
 40
0
 40
0
 40
1
 40
1
 40
1
 40
1
 10
81.260819
 20
138.820016
 30
0.0
 10
81.877297
 20
138.005100
 30
0.0
 10
82.247713
 20
136.912372
 30
0.0
 10
82.374713
 20
135.547124
 30
0.0
  0
LWPOLYLINE
  5
1c6
100
AcDbEntity
  8
Layer_1
 62
7
100
AcDbPolyline
 90
2
 70
0
 10
68.269793
 20
135.547124
 30
0.0
 10
73.437099
 20
135.547124
 30
0.0
  0
SPLINE
  5
1c7
100
AcDbEntity
  8
Layer_1
 62
7
100
AcDbSpline
 70
8
 71
3
 72
8
 73
4
 74
0
 40
0
 40
0
 40
0
 40
0
 40
1
 40
1
 40
1
 40
1
 10
86.420187
 20
139.693140
 30
0.0
 10
86.092104
 20
140.338722
 30
0.0
 10
85.697875
 20
140.957846
 30
0.0
 10
85.232209
 20
141.542575
 30
0.0
  0
SPLINE
  5
1c8
100
AcDbEntity
  8
Layer_1
 62
7
100
AcDbSpline
 70
8
 71
3
 72
8
 73
4
 74
0
 40
0
 40
0
 40
0
 40
0
 40
1
 40
1
 40
1
 40
1
 10
85.232209
 20
141.542575
 30
0.0
 10
85.091980
 20
141.719846
 30
0.0
 10
84.933231
 20
141.881241
 30
0.0
 10
84.782418
 20
142.042637
 30
0.0
  0
LWPOLYLINE
  5
1c9
100
AcDbEntity
  8
Layer_1
 62
7
100
AcDbPolyline
 90
5
 70
0
 10
82.374713
 20
135.547124
 30
0.0
 10
89.227413
 20
135.547124
 30
0.0
 10
90.457724
 20
136.282665
 30
0.0
 10
89.568725
 20
139.693140
 30
0.0
 10
86.420187
 20
139.693140
 30
0.0
  0
SPLINE
  5
1ca
100
AcDbEntity
  8
Layer_1
 62
7
100
AcDbSpline
 70
8
 71
3
 72
8
 73
4
 74
0
 40
0
 40
0
 40
0
 40
0
 40
1
 40
1
 40
1
 40
1
 10
80.400924
 20
144.325988
 30
0.0
 10
79.638925
 20
144.471509
 30
0.0
 10
78.818717
 20
144.553529
 30
0.0
 10
77.929719
 20
144.553529
 30
0.0
  0
SPLINE
  5
1cb
100
AcDbEntity
  8
Layer_1
 62
7
100
AcDbSpline
 70
8
 71
3
 72
8
 73
4
 74
0
 40
0
 40
0
 40
0
 40
0
 40
1
 40
1
 40
1
 40
1
 10
77.929719
 20
144.553529
 30
0.0
 10
77.651906
 20
144.553529
 30
0.0
 10
77.384678
 20
144.537654
 30
0.0
 10
77.114803
 20
144.524425
 30
0.0
  0
LWPOLYLINE
  5
1cc
100
AcDbEntity
  8
Layer_1
 62
7
100
AcDbPolyline
 90
4
 70
0
 10
84.782418
 20
142.042637
 30
0.0
 10
85.570876
 20
144.669946
 30
0.0
 10
82.528171
 20
146.453235
 30
0.0
 10
80.400924
 20
144.325988
 30
0.0
  0
SPLINE
  5
1cd
100
AcDbEntity
  8
Layer_1
 62
7
100
AcDbSpline
 70
8
 71
3
 72
8
 73
4
 74
0
 40
0
 40
0
 40
0
 40
0
 40
1
 40
1
 40
1
 40
1
 10
72.492538
 20
143.190927
 30
0.0
 10
71.786101
 20
142.746428
 30
0.0
 10
71.159040
 20
142.206678
 30
0.0
 10
70.627228
 20
141.542575
 30
0.0
  0
SPLINE
  5
1ce
100
AcDbEntity
  8
Layer_1
 62
7
100
AcDbSpline
 70
8
 71
3
 72
8
 73
4
 74
0
 40
0
 40
0
 40
0
 40
0
 40
1
 40
1
 40
1
 40
1
 10
70.627228
 20
141.542575
 30
0.0
 10
70.537270
 20
141.431450
 30
0.0
 10
70.460540
 20
141.315034
 30
0.0
 10
70.373228
 20
141.198617
 30
0.0
  0
LWPOLYLINE
  5
1cf
100
AcDbEntity
  8
Layer_1
 62
7
100
AcDbPolyline
 90
4
 70
0
 10
77.114803
 20
144.524425
 30
0.0
 10
75.903013
 20
147.207297
 30
0.0
 10
72.492538
 20
146.313006
 30
0.0
 10
72.492538
 20
143.190927
 30
0.0
  0
SPLINE
  5
1d0
100
AcDbEntity
  8
Layer_1
 62
7
100
AcDbSpline
 70
8
 71
3
 72
8
 73
4
 74
0
 40
0
 40
0
 40
0
 40
0
 40
1
 40
1
 40
1
 40
1
 10
68.423251
 20
136.690123
 30
0.0
 10
68.354460
 20
136.314415
 30
0.0
 10
68.304189
 20
135.933415
 30
0.0
 10
68.269793
 20
135.544478
 30
0.0
  0
LWPOLYLINE
  5
1d1
100
AcDbEntity
  8
Layer_1
 62
7
100
AcDbPolyline
 90
4
 70
0
 10
70.373228
 20
141.198617
 30
0.0
 10
67.714169
 20
142.082324
 30
0.0
 10
65.825046
 20
139.100474
 30
0.0
 10
68.423251
 20
136.690123
 30
0.0
  0
LWPOLYLINE
  5
1d2
100
AcDbEntity
  8
Layer_1
 62
7
100
AcDbPolyline
 90
2
 70
0
 10
68.269793
 20
135.544478
 30
0.0
 10
68.269793
 20
135.547124
 30
0.0
  0
ENDSEC
  0
SECTION
  2
OBJECTS
  0
DICTIONARY
  5
C
330
0
100
AcDbDictionary
  3
ACAD_GROUP
350
D
  3
ACAD_MLINESTYLE
350
17
  0
DICTIONARY
  5
D
330
C
100
AcDbDictionary
  0
DICTIONARY
  5
1A
330
C
100
AcDbDictionary
  0
DICTIONARY
  5
17
330
C
100
AcDbDictionary
  3
STANDARD
350
18
  0
DICTIONARY
  5
19
330
C
100
AcDbDictionary
  0
ENDSEC
  0
EOF
